<svg width="179" height="42" viewBox="0 0 179 42" fill="none" xmlns="http://www.w3.org/2000/svg">
<path d="M18.5136 41.1428L18.4165 41.3071ZM28.2898 0.692871L22.7076 8.66688L28.2898 16.5442L33.872 8.66688L28.2898 0.692871ZM36.8719 12.9583L31.542 21.1353L45.6966 41.1332H56.5699L36.8621 12.9583H36.8719ZM28.2898 26.142L18.5136 41.1332H38.066L28.2898 26.142ZM38.1728 41.2975L38.0757 41.1332ZM19.7077 12.968L0 41.1428H10.8732L25.0278 21.145L19.698 12.9777L19.7077 12.968Z" fill="white"/>
<path d="M79.4662 18.2504C82.1482 18.2504 84.1746 17.701 84.1746 15.0189C84.1746 13.0812 82.8985 12.2541 80.9962 11.9824L76.6305 11.3562C73.3813 10.9013 71.7508 9.2117 71.7508 6.28151C71.7508 2.32338 75.1654 0.692871 79.1235 0.692871C81.6402 0.692871 83.5306 1.24819 84.8067 2.35292C86.0827 3.45765 86.7857 4.91684 86.9216 6.7364H84.0859C83.7433 4.06023 81.8351 2.96732 79.094 2.96732C77.6171 2.96732 76.5182 3.25679 75.7916 3.82983C75.065 4.40878 74.6987 5.1945 74.6987 6.1988C74.6987 7.77024 75.6735 8.62094 77.2213 8.86315L81.841 9.54253C85.7637 10.1038 87.1166 12.0297 87.1166 14.6467C87.1166 18.5576 84.5645 20.5189 79.4603 20.5189C76.5891 20.5189 74.486 19.8809 73.1627 18.6049C71.8394 17.3288 71.1777 15.7101 71.1777 13.7429H74.0134C74.1079 16.7499 75.9216 18.2504 79.4603 18.2504H79.4662Z" fill="white"/>
<path d="M121.653 7.78205C118.344 7.78205 117.624 10.7772 117.624 14.0796V20.0641H114.847V11.4743C114.847 9.22352 114.091 7.78796 111.84 7.78796C108.55 7.78796 107.811 10.8009 107.811 14.0855V20.07H104.975V5.8916H107.811V8.98131C108.756 6.61825 110.422 5.43671 112.803 5.43671C115.184 5.43671 116.868 6.54735 117.423 9.09355C118.368 6.65369 120.099 5.43671 122.61 5.43671C125.859 5.43671 127.489 7.36261 127.489 11.2203V20.07H124.654V11.4802C124.654 9.21761 123.886 7.79387 121.647 7.79387L121.653 7.78205Z" fill="white"/>
<path d="M146.807 7.78205C143.499 7.78205 142.778 10.7772 142.778 14.0796V20.0641H139.996V11.4743C139.996 9.22352 139.24 7.78796 136.989 7.78796C133.704 7.78796 132.96 10.795 132.96 14.0855V20.07H130.124V5.8916H132.96V8.98131C133.905 6.61825 135.571 5.43671 137.952 5.43671C140.333 5.43671 142.016 6.55917 142.572 9.09355C143.517 6.65369 145.248 5.43671 147.759 5.43671C151.008 5.43671 152.638 7.36261 152.638 11.2203V20.07H149.803V11.4802C149.803 9.22942 149.046 7.79387 146.796 7.79387L146.807 7.78205Z" fill="white"/>
<path d="M159.781 12.9453C159.781 8.57368 162.368 5.43081 167.094 5.43081C171.82 5.43081 174.408 8.52051 174.408 12.9453C174.408 17.3702 171.85 20.5189 167.094 20.5189C162.339 20.5189 159.781 17.3347 159.781 12.9453ZM167.094 18.2504C170.462 18.2504 171.549 16.3718 171.549 12.9749C171.549 9.57798 170.468 7.69934 167.094 7.69934C163.721 7.69934 162.64 9.57207 162.64 12.9749C162.64 16.3777 163.721 18.2504 167.094 18.2504Z" fill="white"/>
<path d="M155.066 1.20684H158.044V3.75894H155.066V1.20684ZM155.137 5.8857H157.973V20.0641H155.137V5.8857Z" fill="white"/>
<path d="M100.982 5.8857L100.97 5.91523L96.3266 18.0495L95.8304 19.4733L95.3755 18.0495L90.8443 5.87979H87.9259L93.2842 20.0582H95.5645L94.2648 23.455H90.0704V25.7236H92.5103C93.6268 25.7236 94.4952 25.5759 95.1155 25.2746C95.7418 24.9674 96.2321 24.5243 96.5925 23.9395C96.9528 23.3546 97.3604 22.4744 97.8094 21.3047L103.741 5.87979H100.988L100.982 5.8857Z" fill="white"/>
<path d="M175.324 1.20684V1.66763H174.438V3.75894H173.882V1.66763H172.996V1.20684H175.324ZM175.649 1.20684H176.44L177.149 2.99095H177.191L177.894 1.20684H178.685V3.75894H178.148V2.01028H178.106L177.409 3.75894H176.937L176.239 2.01028H176.198V3.75894H175.66V1.20684H175.649Z" fill="white"/>
<path d="M165.542 40.5945V30.8186H166.853L171.598 37.2599C171.646 37.3169 171.707 37.4024 171.783 37.5164C171.859 37.6304 171.935 37.7444 172.011 37.8584C172.087 37.9629 172.149 38.0579 172.197 38.1434H172.254C172.254 37.9914 172.254 37.8442 172.254 37.7017C172.254 37.5496 172.254 37.4024 172.254 37.2599V30.8186H173.579V40.5945H172.339L167.537 34.0392C167.47 33.9347 167.37 33.7875 167.237 33.5975C167.114 33.4075 167.009 33.2555 166.924 33.1415H166.853C166.853 33.2935 166.853 33.4455 166.853 33.5975C166.853 33.74 166.853 33.8872 166.853 34.0392V40.5945H165.542Z" fill="white"/>
<path d="M157.845 40.7656C156.828 40.7656 155.954 40.5804 155.222 40.2099C154.5 39.8394 153.94 39.2788 153.541 38.5283C153.151 37.7778 152.957 36.8372 152.957 35.7067C152.957 34.5666 153.151 33.6261 153.541 32.8851C153.94 32.1345 154.5 31.574 155.222 31.2035C155.954 30.833 156.828 30.6477 157.845 30.6477C158.861 30.6477 159.73 30.833 160.452 31.2035C161.184 31.574 161.744 32.1345 162.134 32.8851C162.533 33.6261 162.732 34.5666 162.732 35.7067C162.732 36.8372 162.533 37.7778 162.134 38.5283C161.744 39.2788 161.184 39.8394 160.452 40.2099C159.73 40.5804 158.861 40.7656 157.845 40.7656ZM157.845 39.5971C158.377 39.5971 158.856 39.5258 159.284 39.3833C159.721 39.2408 160.087 39.0176 160.381 38.7136C160.685 38.4 160.918 38.0105 161.079 37.545C161.241 37.07 161.322 36.5095 161.322 35.8634V35.5642C161.322 34.9086 161.241 34.3481 161.079 33.8826C160.918 33.4076 160.685 33.0181 160.381 32.714C160.087 32.4005 159.721 32.1725 159.284 32.03C158.856 31.8875 158.377 31.8163 157.845 31.8163C157.303 31.8163 156.818 31.8875 156.391 32.03C155.963 32.1725 155.598 32.4005 155.294 32.714C154.99 33.0181 154.757 33.4076 154.595 33.8826C154.443 34.3481 154.367 34.9086 154.367 35.5642V35.8634C154.367 36.5095 154.443 37.07 154.595 37.545C154.757 38.0105 154.99 38.4 155.294 38.7136C155.598 39.0176 155.963 39.2408 156.391 39.3833C156.818 39.5258 157.303 39.5971 157.845 39.5971Z" fill="white"/>
<path d="M148.801 40.5945V30.8186H150.155V40.5945H148.801Z" fill="white"/>
<path d="M141.698 40.5945V32.0014H138.349V30.8186H146.429V32.0014H143.052V40.5945H141.698Z" fill="white"/>
<path d="M128.848 40.5945L132.71 30.8186H134.491L138.368 40.5945H136.9L135.945 38.1719H131.185L130.245 40.5945H128.848ZM131.627 37.0176H135.489L134.306 33.9537C134.278 33.8682 134.235 33.7495 134.178 33.5975C134.121 33.4455 134.059 33.2792 133.993 33.0987C133.926 32.9087 133.86 32.7187 133.793 32.5287C133.727 32.3292 133.665 32.1487 133.608 31.9872H133.522C133.456 32.1772 133.38 32.3957 133.294 32.6427C133.209 32.8897 133.123 33.132 133.038 33.3695C132.952 33.5975 132.881 33.7922 132.824 33.9537L131.627 37.0176Z" fill="white"/>
<path d="M118.834 40.5945V30.8186H122.483C123.509 30.8186 124.383 30.9896 125.105 31.3316C125.827 31.6736 126.378 32.2057 126.758 32.9277C127.147 33.6402 127.342 34.5665 127.342 35.7066C127.342 36.8276 127.147 37.7492 126.758 38.4712C126.378 39.1932 125.827 39.73 125.105 40.0815C124.383 40.4235 123.509 40.5945 122.483 40.5945H118.834ZM120.188 39.426H122.454C122.996 39.426 123.48 39.3595 123.908 39.2265C124.335 39.084 124.701 38.8702 125.005 38.5852C125.309 38.3002 125.537 37.9344 125.689 37.4879C125.851 37.0319 125.931 36.4903 125.931 35.8633V35.5783C125.931 34.9323 125.851 34.386 125.689 33.9395C125.537 33.4835 125.309 33.113 125.005 32.8279C124.71 32.5429 124.349 32.3339 123.922 32.2009C123.494 32.0584 123.005 31.9872 122.454 31.9872H120.188V39.426Z" fill="white"/>
<path d="M107.486 40.5945V30.8186H108.797L113.543 37.2599C113.59 37.3169 113.652 37.4024 113.728 37.5164C113.804 37.6304 113.88 37.7444 113.956 37.8584C114.032 37.9629 114.094 38.0579 114.141 38.1434H114.198C114.198 37.9914 114.198 37.8442 114.198 37.7017C114.198 37.5496 114.198 37.4024 114.198 37.2599V30.8186H115.524V40.5945H114.284L109.481 34.0392C109.415 33.9347 109.315 33.7875 109.182 33.5975C109.059 33.4075 108.954 33.2555 108.869 33.1415H108.797C108.797 33.2935 108.797 33.4455 108.797 33.5975C108.797 33.74 108.797 33.8872 108.797 34.0392V40.5945H107.486Z" fill="white"/>
<path d="M100.169 40.7655C99.3428 40.7655 98.6303 40.6325 98.0318 40.3665C97.4333 40.1005 96.9725 39.6825 96.6495 39.1125C96.336 38.5329 96.1792 37.7919 96.1792 36.8894V30.8186H97.533V37.0319C97.533 37.8869 97.761 38.5282 98.217 38.9557C98.6826 39.3832 99.3333 39.597 100.169 39.597C101.015 39.597 101.675 39.3832 102.15 38.9557C102.625 38.5282 102.863 37.8869 102.863 37.0319V30.8186H104.202V36.8894C104.202 37.7919 104.041 38.5329 103.718 39.1125C103.395 39.6825 102.929 40.1005 102.321 40.3665C101.723 40.6325 101.005 40.7655 100.169 40.7655Z" fill="white"/>
<path d="M88.511 40.7656C87.4945 40.7656 86.6204 40.5804 85.8889 40.2099C85.1669 39.8394 84.6063 39.2788 84.2073 38.5283C83.8178 37.7778 83.623 36.8372 83.623 35.7067C83.623 34.5666 83.8178 33.6261 84.2073 32.8851C84.6063 32.1345 85.1669 31.574 85.8889 31.2035C86.6204 30.833 87.4945 30.6477 88.511 30.6477C89.5276 30.6477 90.3968 30.833 91.1189 31.2035C91.8504 31.574 92.4109 32.1345 92.8004 32.8851C93.1995 33.6261 93.399 34.5666 93.399 35.7067C93.399 36.8372 93.1995 37.7778 92.8004 38.5283C92.4109 39.2788 91.8504 39.8394 91.1189 40.2099C90.3968 40.5804 89.5276 40.7656 88.511 40.7656ZM88.511 39.5971C89.043 39.5971 89.5228 39.5258 89.9503 39.3833C90.3873 39.2408 90.7531 39.0176 91.0476 38.7136C91.3516 38.4 91.5844 38.0105 91.7459 37.545C91.9074 37.07 91.9882 36.5095 91.9882 35.8634V35.5642C91.9882 34.9086 91.9074 34.3481 91.7459 33.8826C91.5844 33.4076 91.3516 33.0181 91.0476 32.714C90.7531 32.4005 90.3873 32.1725 89.9503 32.03C89.5228 31.8875 89.043 31.8163 88.511 31.8163C87.9695 31.8163 87.485 31.8875 87.0574 32.03C86.6299 32.1725 86.2642 32.4005 85.9601 32.714C85.6561 33.0181 85.4234 33.4076 85.2619 33.8826C85.1099 34.3481 85.0339 34.9086 85.0339 35.5642V35.8634C85.0339 36.5095 85.1099 37.07 85.2619 37.545C85.4234 38.0105 85.6561 38.4 85.9601 38.7136C86.2642 39.0176 86.6299 39.2408 87.0574 39.3833C87.485 39.5258 87.9695 39.5971 88.511 39.5971Z" fill="white"/>
<path d="M74.541 40.5945V30.8186H81.4668V31.9872H75.8948V35.1223H80.968V36.2766H75.8948V40.5945H74.541Z" fill="white"/>
</svg>
