<svg width="305" height="306" viewBox="0 0 305 306" fill="none" xmlns="http://www.w3.org/2000/svg">
  <mask id="mask0_0_3924" style="mask-type:luminance" maskUnits="userSpaceOnUse" x="1" y="1" width="304" height="304">
    <path
      d="M1.02091 150.503C0.620843 176.841 28.7859 202.859 79.1148 217.189C28.7859 202.859 0.540829 176.921 1.02091 150.503C1.18094 145.62 1.58101 139.136 2.14111 134.252C2.46117 130.89 3.26131 126.407 3.90143 123.045C4.8616 118.161 6.62191 111.757 7.98215 107.034C8.94232 103.752 10.7026 99.4286 11.9029 96.1463C13.7432 91.183 17.0238 84.8587 19.4242 80.1354C21.0245 77.0133 23.6649 73.0906 25.4253 70.0486C28.2258 65.3254 32.7866 59.4814 36.3872 55.3186C41.028 49.8748 47.7492 42.9902 53.1902 38.2669C56.7908 35.1448 61.9118 31.3022 65.6724 28.5003C67.1927 27.3795 69.2731 26.0186 70.8733 24.9779C73.9139 23.0566 77.9146 20.5749 81.1152 18.9738C85.756 16.5722 91.9971 13.6102 96.798 11.6889C99.9985 10.408 104.399 8.8069 107.76 7.76619C112.321 6.40526 118.562 4.72412 123.203 3.84352C129.844 2.56265 138.885 1.36183 145.607 1.12167C149.927 0.96156 155.688 0.96156 160.009 1.12167C163.29 1.28178 167.691 1.68205 170.971 2.08232C174.892 2.56265 180.013 3.44325 183.853 4.24379C187.054 4.88423 191.215 6.00499 194.335 6.80554C203.297 9.28723 210.338 12.3293 215.059 14.3307C217.94 15.6115 221.78 17.3727 224.501 18.9738C226.981 20.4148 230.422 22.2561 232.902 23.7771C235.383 25.2981 238.583 27.4596 240.904 29.1407C243.224 30.7418 246.185 32.9834 248.345 34.7446C250.425 36.5058 253.226 38.8273 255.226 40.6686C257.227 42.5098 259.867 44.9915 261.707 46.9128C265.388 50.8355 270.029 56.2792 273.389 60.442C275.07 62.5235 277.07 65.5655 278.67 67.727C278.75 67.8071 283.391 74.4516 288.032 83.5778C289.392 86.2196 291.153 89.742 292.273 92.4638C294.433 97.8275 297.074 105.032 298.834 110.556C299.874 113.758 300.834 118.161 301.554 121.444C302.195 124.486 302.835 128.568 303.315 131.61C303.875 135.453 304.355 140.577 304.595 144.419C304.835 147.701 304.755 152.104 304.835 155.467C304.915 160.35 304.275 166.834 303.715 171.718C303.315 175.08 302.675 179.563 301.954 182.925C300.914 187.809 299.234 194.213 297.874 198.936C295.873 205.581 292.113 214.067 289.232 220.391C287.072 225.274 283.311 231.358 280.431 235.841C277.39 240.485 273.149 246.489 269.469 250.571C264.668 255.935 258.107 262.9 252.666 267.623C249.065 270.745 243.944 274.588 240.183 277.39C238.663 278.51 236.583 279.871 234.983 280.912C228.981 284.675 220.74 289.318 214.179 292.12C209.458 294.121 203.057 296.523 198.176 298.124C194.895 299.245 190.415 300.285 187.054 301.166C182.413 302.287 176.172 303.487 171.451 303.888C168.091 304.208 163.61 304.688 160.249 304.848C155.928 305.009 150.167 305.089 145.847 304.848C142.566 304.688 138.165 304.368 134.885 303.888C130.964 303.407 125.763 302.687 122.002 301.726C118.482 300.846 113.681 299.885 110.24 298.764C104.319 296.843 96.4779 294.041 90.7969 291.559C87.9164 290.278 84.0757 288.517 81.3552 286.916C78.8748 285.475 75.4342 283.634 72.9537 282.113C70.4733 280.592 67.2727 278.43 64.9523 276.749C62.6319 275.148 59.6714 272.907 57.511 271.145C53.4302 267.623 47.9093 262.9 44.1486 258.977C42.3083 257.056 39.8278 254.414 38.0675 252.413C36.3072 250.411 34.1468 247.529 32.3865 245.448C30.7062 243.367 28.6258 240.405 27.1056 238.163C25.5853 235.841 23.5849 232.719 22.1447 230.318C20.7044 227.916 19.0241 224.714 17.7439 222.312C16.3836 219.911 14.9434 216.468 13.7432 213.906C12.4629 211.185 11.0227 207.342 9.98251 204.54C9.02234 201.818 7.90214 198.056 6.94197 195.334C5.90178 192.132 4.86159 187.729 4.22148 184.446C3.50135 180.764 2.54118 175.881 2.14111 172.198C1.58101 165.714 1.10093 157.068 1.02091 150.503Z"
      fill="white" />
  </mask>
  <g mask="url(#mask0_0_3924)">
    <path
      d="M118.882 300.606C114.801 300.606 110.88 299.725 107.2 298.044C98.1581 293.881 90.7968 284.435 85.9159 270.825C83.1955 263.3 81.1951 254.654 79.9949 245.048C67.4326 233.36 56.3107 219.991 47.109 205.581C21.8245 193.252 5.34159 176.921 1.4209 159.309C-2.01972 143.699 4.30141 128.408 19.8242 114.879L20.4643 114.319V115.199C20.0642 146.02 30.226 177.482 47.6691 205.02C57.0308 209.584 67.5927 213.506 79.1147 216.788L79.4348 216.869V217.189C79.2747 227.035 79.7548 236.322 80.795 244.727C101.039 263.38 125.043 277.63 150.887 284.995L151.608 285.235L151.048 285.715C139.766 295.642 128.804 300.606 118.882 300.606ZM81.0351 245.928C84.5557 272.426 93.9174 290.919 107.6 297.323C119.762 303.007 134.485 298.924 150.007 285.635C124.563 278.27 100.959 264.181 81.0351 245.928ZM48.5493 206.301C57.3508 219.991 67.9127 232.719 79.9149 243.847C78.9547 235.761 78.5546 226.955 78.7147 217.509C67.5927 214.307 57.5109 210.544 48.5493 206.301ZM19.7442 116.08C4.94152 129.209 -1.05955 144.099 2.30105 159.149C6.14174 176.281 21.9846 192.212 46.3889 204.38C29.4259 177.162 19.5041 146.341 19.7442 116.08Z"
      fill="white" fill-opacity="0.36" />
    <path
      d="M87.9964 275.629C50.8698 265.061 21.1845 226.315 21.7446 189.33H22.5448C21.9847 225.995 51.4299 264.421 88.2364 274.828L87.9964 275.629Z"
      fill="white" fill-opacity="0.36" />
    <path
      d="M113.761 300.125C50.3897 282.113 -0.339341 215.988 0.62083 152.745H1.42097C0.460802 215.668 50.9498 281.392 113.921 299.325L113.761 300.125Z"
      fill="white" fill-opacity="0.36" />
    <path
      d="M33.4266 226.155C24.3049 226.155 18.3839 224.153 16.2235 220.231C12.5428 213.506 19.7441 201.978 37.0272 186.928L37.5873 187.569C20.8643 202.138 13.583 213.586 17.0236 219.831C21.6645 228.236 44.2285 227.115 79.0347 216.868L79.2747 217.669C59.9113 223.273 44.3885 226.155 33.4266 226.155Z"
      fill="white" fill-opacity="0.36" />
    <path
      d="M54.5503 268.264C53.7501 268.264 53.03 268.023 52.5499 267.623C47.109 262.66 66.6324 233.76 78.7946 216.949L79.4347 217.429C49.7494 258.577 51.7498 265.782 53.11 266.983C54.3903 268.183 59.9913 268.664 83.9155 247.93L84.4756 248.57C73.5937 257.937 60.3913 268.264 54.5503 268.264Z"
      fill="white" fill-opacity="0.36" />
    <path
      d="M118.882 300.605C114.801 300.605 110.88 299.725 107.2 298.044C98.1581 293.881 90.7968 284.434 85.9159 270.825C80.795 256.656 78.3146 238.563 78.6346 217.189V216.628L79.1147 216.788C152.168 237.603 244.664 225.755 285.311 190.451L285.952 189.89V190.771C285.391 225.274 271.709 254.174 247.385 272.266C221.62 291.399 187.374 296.202 150.807 285.875C139.605 295.642 128.724 300.605 118.882 300.605ZM79.4348 217.749C78.8747 259.137 89.3566 288.918 107.52 297.323C119.842 303.087 134.725 298.844 150.487 285.075L150.647 284.915L150.888 284.995C187.294 295.322 221.38 290.599 246.985 271.546C270.909 253.774 284.431 225.434 285.151 191.571C257.867 214.867 208.018 227.756 156.248 227.836C130.244 227.836 103.839 224.634 79.4348 217.749Z"
      fill="white" fill-opacity="0.36" />
    <path
      d="M106.64 278.35C100.639 278.35 94.3975 277.47 87.9963 275.628L88.2364 274.828C106.56 280.031 123.683 277.63 136.565 268.103C148.647 259.057 155.528 244.647 155.768 227.436H156.569C156.329 244.888 149.367 259.538 137.045 268.744C128.484 275.148 118.002 278.35 106.64 278.35Z"
      fill="white" fill-opacity="0.36" />
    <path
      d="M145.607 304.768C135.365 304.768 124.643 303.247 113.761 300.125L114.001 299.325C145.367 308.291 174.812 304.128 196.896 287.717C217.699 272.266 229.382 247.449 229.862 217.909H230.662C230.182 247.689 218.34 272.666 197.376 288.277C182.733 299.245 164.97 304.768 145.607 304.768Z"
      fill="white" fill-opacity="0.36" />
    <path
      d="M179.693 301.486C175.452 301.486 171.131 301.006 166.73 300.125C133.684 293.401 100.719 262.5 78.7146 217.349L79.4347 217.029C101.359 261.939 134.084 292.68 166.89 299.405C185.854 303.247 203.457 298.684 217.859 286.116L218.419 286.756C207.137 296.523 193.935 301.486 179.693 301.486Z"
      fill="white" fill-opacity="0.36" />
    <path
      d="M208.418 271.706C167.69 271.706 118.882 252.573 78.7947 217.509L79.3548 216.869C141.846 271.626 225.621 287.397 266.188 252.093L266.748 252.733C251.945 265.622 231.462 271.706 208.418 271.706Z"
      fill="white" fill-opacity="0.36" />
    <path
      d="M156.248 227.836C130.084 227.836 103.439 224.554 78.9546 217.589L78.6345 217.509V217.189C79.7547 144.019 113.841 55.7188 154.648 20.2547L154.808 20.0946L155.048 20.1747C228.421 41.0689 287.152 117.601 286.031 190.771V190.931L285.871 191.011C258.747 214.707 208.498 227.836 156.248 227.836ZM79.4347 216.869C152.408 237.523 244.584 225.755 285.151 190.531C286.191 117.761 227.861 41.7894 154.968 20.8951C114.561 56.3593 80.7149 144.099 79.4347 216.869Z"
      fill="white" fill-opacity="0.36" />
    <path
      d="M156.568 227.516H155.768C156.328 190.851 126.883 152.425 90.0767 142.018L90.3167 141.217C127.363 151.784 157.129 190.451 156.568 227.516Z"
      fill="white" fill-opacity="0.36" />
    <path
      d="M230.661 217.989H229.861C230.822 155.066 180.333 89.3418 117.361 71.4096L117.601 70.609C180.893 88.7013 231.622 154.826 230.661 217.989Z"
      fill="white" fill-opacity="0.36" />
    <path
      d="M79.1946 217.589L78.9546 216.788C142.646 197.896 227.621 153.786 268.268 118.401L268.828 119.042C228.021 154.506 142.966 198.696 79.1946 217.589Z"
      fill="white" fill-opacity="0.36" />
    <path
      d="M79.3547 217.429L78.7146 216.949C116.641 164.353 180.653 92.7841 221.38 57.3199L221.94 57.9604C181.213 93.3445 117.281 164.913 79.3547 217.429Z"
      fill="white" fill-opacity="0.36" />
    <path
      d="M79.4348 217.749L78.9547 217.589C35.827 205.341 6.86184 183.566 1.50089 159.309C-1.93972 143.779 4.3814 128.488 19.7441 115.039C20.3042 80.6158 33.9867 51.7962 58.311 33.7038C84.0756 14.5708 118.482 9.68749 155.048 20.1746L155.768 20.4148L155.208 20.8951C114.561 56.2792 80.635 144.339 79.4348 217.269V217.749ZM118.162 15.5315C95.8377 15.5315 75.5141 21.8558 58.7111 34.3443C34.6268 52.2765 21.0244 81.016 20.4643 115.199V115.359L20.3042 115.439C5.02152 128.729 -1.2196 143.779 2.141 159.069C7.42194 182.925 35.987 204.38 78.5546 216.628C79.8348 143.939 113.601 56.3593 154.008 20.655C141.766 17.2927 129.764 15.5315 118.162 15.5315Z"
      fill="white" fill-opacity="0.36" />
    <path
      d="M22.5445 189.41H21.7444C21.9844 171.958 28.9457 157.308 41.2679 148.102C54.3102 138.415 71.7533 135.933 90.3166 141.217L90.0765 142.018C71.7533 136.814 54.6302 139.216 41.7479 148.742C29.6658 157.708 22.7846 172.198 22.5445 189.41Z"
      fill="white" fill-opacity="0.36" />
    <path
      d="M1.42099 152.745H0.62085C1.10094 122.965 12.943 97.9876 33.9068 82.3769C56.1507 65.8057 85.916 61.6428 117.522 70.689L117.282 71.4895C85.916 62.5234 56.4708 66.6863 34.3869 83.0974C13.5832 98.4679 1.90108 123.285 1.42099 152.745Z"
      fill="white" fill-opacity="0.36" />
    <path
      d="M78.7147 217.349C42.7083 143.619 46.5489 54.7582 87.4362 19.214L87.9963 19.8544C47.4291 55.1584 43.5884 143.619 79.5148 217.029L78.7147 217.349Z"
      fill="white" fill-opacity="0.36" />
    <path
      d="M78.7946 217.509C40.0677 183.566 16.9436 141.297 17.0236 104.312C17.0236 83.4177 24.705 65.7257 39.0276 53.1571L39.5877 53.7975C25.4251 66.1259 17.8238 83.6579 17.8238 104.312C17.7438 140.977 40.7879 183.086 79.3547 216.869L78.7946 217.509Z"
      fill="white" fill-opacity="0.36" />
    <path
      d="M150.888 285.876L150.648 285.795C77.3545 264.901 18.6241 188.369 19.7443 115.199V115.039L19.9043 114.959C60.7116 79.495 153.528 67.5669 226.821 88.4611L227.141 88.5412V88.8614C226.021 162.031 191.935 250.331 151.128 285.795L150.888 285.876ZM20.5444 115.359C19.5042 188.129 77.8346 264.101 150.728 284.995C191.215 249.611 225.061 161.871 226.341 89.1016C153.368 68.3675 61.1917 80.2155 20.5444 115.359Z"
      fill="white" fill-opacity="0.36" />
    <path
      d="M188.254 235.281C124.883 217.269 74.1541 151.144 75.1142 87.9008H75.9144C74.9542 150.824 125.443 216.548 188.414 234.481L188.254 235.281Z"
      fill="white" fill-opacity="0.36" />
    <path
      d="M37.5074 187.489L36.9473 186.848C77.6745 151.384 162.73 107.194 226.581 88.301L226.821 89.1016C163.13 107.994 78.1546 152.104 37.5074 187.489Z"
      fill="white" fill-opacity="0.36" />
    <path
      d="M84.3958 248.57L83.8357 247.93C124.483 212.546 188.494 140.977 226.341 88.4612L226.981 88.9415C189.054 141.537 125.123 213.186 84.3958 248.57Z"
      fill="white" fill-opacity="0.36" />
    <path
      d="M187.614 291.159C175.772 291.159 163.37 289.398 150.727 285.795L150.007 285.555L150.567 285.075C191.215 249.691 225.141 161.631 226.341 88.7012V88.1409L226.821 88.301C269.949 100.549 298.914 122.324 304.275 146.581C307.715 162.111 301.394 177.402 286.032 190.851C285.471 225.274 271.789 254.094 247.465 272.186C230.582 284.755 210.018 291.159 187.614 291.159ZM151.608 285.235C187.694 295.322 221.54 290.519 246.985 271.626C271.069 253.694 284.671 224.954 285.231 190.771V190.611L285.391 190.531C300.674 177.242 306.915 162.191 303.555 146.901C298.274 123.045 269.709 101.59 227.141 89.3417C225.781 161.951 192.095 249.531 151.608 285.235Z"
      fill="white" fill-opacity="0.36" />
    <path
      d="M220.1 239.924C209.858 239.924 199.136 238.403 188.254 235.281L188.494 234.48C219.86 243.447 249.305 239.284 271.389 222.873C292.193 207.422 303.875 182.605 304.355 153.065H305.155C304.675 182.845 292.833 207.822 271.869 223.433C257.306 234.4 239.543 239.924 220.1 239.924Z"
      fill="white" fill-opacity="0.36" />
    <path
      d="M218.339 286.676L217.779 286.036C258.347 250.732 262.187 162.271 226.261 88.8614L226.981 88.5411C263.067 162.271 259.227 251.212 218.339 286.676Z"
      fill="white" fill-opacity="0.36" />
    <path
      d="M266.748 252.733L266.188 252.092C280.351 239.764 287.952 222.232 287.952 201.578C288.032 164.913 264.988 122.804 226.421 89.0214L226.981 88.381C265.708 122.324 288.832 164.593 288.752 201.578C288.752 222.552 281.071 240.244 266.748 252.733Z"
      fill="white" fill-opacity="0.36" />
    <path
      d="M285.231 191.651V190.771C285.711 159.95 275.55 128.568 258.106 100.95C248.745 96.3866 238.183 92.4639 226.661 89.1817L226.341 89.1016V88.7814C226.501 78.9347 226.021 69.6484 224.981 61.2426C204.737 42.5899 180.733 28.3402 154.888 20.9752L154.168 20.7351L154.728 20.2547C170.731 6.32525 185.934 2.00232 198.576 7.92635C207.617 12.0892 214.979 21.5356 219.86 35.1449C222.58 42.67 224.58 51.3159 225.781 60.9224C238.343 72.6104 249.465 85.9795 258.667 100.389C283.951 112.718 300.434 129.049 304.355 146.661C307.795 162.271 301.474 177.562 285.951 191.091L285.231 191.651ZM259.387 101.59C276.35 128.729 286.271 159.55 286.031 189.81C300.834 176.681 306.835 161.791 303.475 146.741C299.714 129.689 283.871 113.758 259.387 101.59ZM227.141 88.4612C238.183 91.5833 248.265 95.4259 257.306 99.6688C248.505 85.9795 237.943 73.2508 225.941 62.1232C226.821 70.2087 227.221 79.0147 227.141 88.4612ZM155.768 20.3348C181.213 27.6998 204.817 41.7093 224.741 59.9618C221.22 33.4637 211.858 14.9711 198.176 8.56678C186.014 2.96297 171.371 6.96569 155.768 20.3348Z"
      fill="white" fill-opacity="0.36" />
    <path
      d="M305.155 153.225H304.355C305.315 90.3025 254.826 24.5777 191.855 6.64552L192.095 5.84497C255.386 23.8572 306.115 89.9822 305.155 153.225Z"
      fill="white" fill-opacity="0.36" />
    <path
      d="M268.828 119.042L268.268 118.402C284.991 103.832 292.272 92.3838 288.832 86.1396C284.191 77.7339 261.627 78.8546 226.821 89.1016L226.581 88.301C261.787 77.894 284.751 76.9333 289.552 85.6592C293.233 92.4639 286.111 103.992 268.828 119.042Z"
      fill="white" fill-opacity="0.36" />
    <path
      d="M227.061 89.0216L226.421 88.5412C256.106 47.3932 254.106 40.1883 252.745 38.9875C251.465 37.7867 245.864 37.3064 221.94 58.0405L221.38 57.4C233.702 46.6727 249.225 34.6646 253.226 38.3471C258.667 43.3105 239.143 72.2101 227.061 89.0216Z"
      fill="white" fill-opacity="0.36" />
    <path
      d="M19.7441 116.08V115.199C20.3042 80.6958 33.9867 51.7961 58.311 33.7038C84.0756 14.5708 118.322 9.76749 154.888 20.0945C170.891 6.24509 185.934 2.00221 198.576 7.92624C207.618 12.0891 214.979 21.5355 219.86 35.1448C224.981 49.3144 227.461 67.4067 227.141 88.7813V89.3417L226.661 89.1815C153.608 68.3674 61.1115 80.2154 20.4643 115.519L19.7441 116.08ZM118.162 15.5314C95.8377 15.5314 75.5141 21.8557 58.7111 34.3442C34.7868 52.1163 21.2644 80.4556 20.5443 114.319C61.5916 79.3348 153.448 67.6469 226.261 88.2209C226.821 46.8327 216.339 17.0524 198.176 8.64673C185.854 2.8828 170.971 7.12569 155.208 20.8951L155.048 21.0552L154.808 20.9751C142.246 17.3727 129.924 15.5314 118.162 15.5314Z"
      fill="white" fill-opacity="0.36" />
    <path
      d="M75.9142 87.9808H75.114C75.5941 58.2005 87.4362 33.2235 108.4 17.6129C130.644 1.04161 160.409 -3.12122 192.015 5.92494L191.775 6.72548C160.409 -2.24062 130.964 1.92221 108.88 18.3334C88.0763 33.6238 76.3942 58.4407 75.9142 87.9808Z"
      fill="white" fill-opacity="0.36" />
    <path
      d="M226.341 88.9415C204.417 44.0309 171.691 13.29 138.885 6.56538C119.922 2.72277 102.319 7.28587 87.9163 19.8544L87.3562 19.214C101.919 6.48533 119.762 1.84217 138.965 5.76484C172.011 12.4894 204.977 43.3904 226.981 88.5412L226.341 88.9415Z"
      fill="white" fill-opacity="0.36" />
    <path
      d="M226.421 89.0215C163.93 34.2643 80.1549 18.4935 39.5877 53.7976L39.0276 53.1571C79.9149 17.6129 164.17 33.4637 226.901 88.3811L226.421 89.0215Z"
      fill="white" fill-opacity="0.36" />
  </g>
  <mask id="mask1_0_3924" style="mask-type:luminance" maskUnits="userSpaceOnUse" x="1" y="1" width="304" height="304">
    <path
      d="M1.02091 150.503C0.620843 176.841 28.7859 202.859 79.1148 217.189C28.7859 202.859 0.540829 176.921 1.02091 150.503C1.18094 145.62 1.58101 139.136 2.14111 134.252C2.46117 130.89 3.26131 126.407 3.90143 123.045C4.8616 118.161 6.62191 111.757 7.98215 107.034C8.94232 103.752 10.7026 99.4286 11.9029 96.1463C13.7432 91.183 17.0238 84.8587 19.4242 80.1354C21.0245 77.0133 23.6649 73.0906 25.4253 70.0486C28.2258 65.3254 32.7866 59.4814 36.3872 55.3186C41.028 49.8748 47.7492 42.9902 53.1902 38.2669C56.7908 35.1448 61.9118 31.3022 65.6724 28.5003C67.1927 27.3795 69.2731 26.0186 70.8733 24.9779C73.9139 23.0566 77.9146 20.5749 81.1152 18.9738C85.756 16.5722 91.9971 13.6102 96.798 11.6889C99.9985 10.408 104.399 8.8069 107.76 7.76619C112.321 6.40526 118.562 4.72412 123.203 3.84352C129.844 2.56265 138.885 1.36183 145.607 1.12167C149.927 0.96156 155.688 0.96156 160.009 1.12167C163.29 1.28178 167.691 1.68205 170.971 2.08232C174.892 2.56265 180.013 3.44325 183.853 4.24379C187.054 4.88423 191.215 6.00499 194.335 6.80554C203.297 9.28723 210.338 12.3293 215.059 14.3307C217.94 15.6115 221.78 17.3727 224.501 18.9738C226.981 20.4148 230.422 22.2561 232.902 23.7771C235.383 25.2981 238.583 27.4596 240.904 29.1407C243.224 30.7418 246.185 32.9834 248.345 34.7446C250.425 36.5058 253.226 38.8273 255.226 40.6686C257.227 42.5098 259.867 44.9915 261.707 46.9128C265.388 50.8355 270.029 56.2792 273.389 60.442C275.07 62.5235 277.07 65.5655 278.67 67.727C278.75 67.8071 283.391 74.4516 288.032 83.5778C289.392 86.2196 291.153 89.742 292.273 92.4638C294.433 97.8275 297.074 105.032 298.834 110.556C299.874 113.758 300.834 118.161 301.554 121.444C302.195 124.486 302.835 128.568 303.315 131.61C303.875 135.453 304.355 140.577 304.595 144.419C304.835 147.701 304.755 152.104 304.835 155.467C304.915 160.35 304.275 166.834 303.715 171.718C303.315 175.08 302.675 179.563 301.954 182.925C300.914 187.809 299.234 194.213 297.874 198.936C295.873 205.581 292.113 214.067 289.232 220.391C287.072 225.274 283.311 231.358 280.431 235.841C277.39 240.485 273.149 246.489 269.469 250.571C264.668 255.935 258.107 262.9 252.666 267.623C249.065 270.745 243.944 274.588 240.183 277.39C238.663 278.51 236.583 279.871 234.983 280.912C228.981 284.675 220.74 289.318 214.179 292.12C209.458 294.121 203.057 296.523 198.176 298.124C194.895 299.245 190.415 300.285 187.054 301.166C182.413 302.287 176.172 303.487 171.451 303.888C168.091 304.208 163.61 304.688 160.249 304.848C155.928 305.009 150.167 305.089 145.847 304.848C142.566 304.688 138.165 304.368 134.885 303.888C130.964 303.407 125.763 302.687 122.002 301.726C118.482 300.846 113.681 299.885 110.24 298.764C104.319 296.843 96.4779 294.041 90.7969 291.559C87.9164 290.278 84.0757 288.517 81.3552 286.916C78.8748 285.475 75.4342 283.634 72.9537 282.113C70.4733 280.592 67.2727 278.43 64.9523 276.749C62.6319 275.148 59.6714 272.907 57.511 271.145C53.4302 267.623 47.9093 262.9 44.1486 258.977C42.3083 257.056 39.8278 254.414 38.0675 252.413C36.3072 250.411 34.1468 247.529 32.3865 245.448C30.7062 243.367 28.6258 240.405 27.1056 238.163C25.5853 235.841 23.5849 232.719 22.1447 230.318C20.7044 227.916 19.0241 224.714 17.7439 222.312C16.3836 219.911 14.9434 216.468 13.7432 213.906C12.4629 211.185 11.0227 207.342 9.98251 204.54C9.02234 201.818 7.90214 198.056 6.94197 195.334C5.90178 192.132 4.86159 187.729 4.22148 184.446C3.50135 180.764 2.54118 175.881 2.14111 172.198C1.58101 165.714 1.10093 157.068 1.02091 150.503Z"
      fill="white" />
  </mask>
  <g mask="url(#mask1_0_3924)">
    <path
      d="M152.568 305.409C150.247 305.409 147.847 305.409 145.767 305.249C142.166 305.089 137.845 304.688 134.725 304.288C131.044 303.808 125.683 303.087 121.762 302.126C120.882 301.886 119.922 301.726 118.962 301.486C116.001 300.766 112.561 300.045 110 299.164C104.559 297.403 96.5579 294.601 90.4768 291.96C87.9964 290.919 83.9957 288.998 81.0352 287.316C80.315 286.916 79.5149 286.436 78.7147 286.036C76.7144 284.915 74.394 283.634 72.6337 282.513C70.0732 280.912 66.7926 278.671 64.6322 277.149C63.272 276.189 59.7514 273.707 57.1909 271.466L56.5508 270.985C52.4701 267.463 47.3492 263.06 43.7485 259.297L43.3484 258.817C41.5881 256.896 39.3477 254.574 37.7475 252.653C36.5472 251.292 35.187 249.531 33.8268 247.85C33.1866 247.129 32.6265 246.328 32.0664 245.688C30.7062 244.007 28.9459 241.525 26.7855 238.323C25.1852 235.921 23.1849 232.799 21.8246 230.478C20.8644 228.877 19.8243 226.875 18.7841 224.954C18.304 224.073 17.8239 223.193 17.4238 222.472C16.3036 220.471 15.1034 217.829 14.0632 215.508L13.4231 214.067C12.3829 211.745 10.9427 208.223 9.66246 204.62C8.94233 202.619 8.14218 200.057 7.42206 197.816C7.18201 196.935 6.86196 196.134 6.62191 195.334C5.58173 192.052 4.54155 187.488 3.90143 184.366C3.1813 180.764 2.22113 175.881 1.82106 172.118C1.34098 166.914 0.860891 159.87 0.700863 153.465C0.620848 152.665 0.62085 151.784 0.62085 150.984C0.62085 150.824 0.62085 150.583 0.62085 150.423C0.780878 145.54 1.26096 138.975 1.74105 134.172C2.14112 130.65 2.94126 126.007 3.58138 122.965C4.62156 117.921 6.38187 111.357 7.6621 106.874C8.46224 104.232 9.66246 101.03 10.7827 98.1477C11.1027 97.3471 11.3428 96.6266 11.5828 95.9862C13.4231 91.1829 16.4637 85.1788 19.1842 79.9753C20.3044 77.8138 21.9046 75.2521 23.3449 72.8504C23.985 71.8097 24.6251 70.769 25.1852 69.8884C28.1457 65.0051 32.7866 59.0811 36.1472 55.0784C40.948 49.4745 47.6692 42.6699 52.9502 37.9467C56.2307 35.0647 60.7115 31.7024 64.3922 28.9806L65.5124 28.1C67.0327 26.9792 69.193 25.5382 70.7933 24.5776C73.5938 22.8164 77.7546 20.2546 81.0352 18.5735C85.2759 16.412 91.6771 13.2899 96.7179 11.2885C100.319 9.84756 104.639 8.32653 107.68 7.36587C112.081 6.085 118.322 4.3238 123.203 3.36315C129.364 2.24239 138.485 0.881462 145.687 0.561244C149.847 0.401135 155.688 0.401135 160.089 0.561244C163.69 0.721353 168.571 1.20168 171.051 1.5219C176.012 2.08228 182.173 3.2831 184.013 3.68337C188.014 4.48391 193.055 5.84484 194.575 6.24511C203.537 8.7268 210.658 11.7689 215.379 13.7702C217.859 14.8109 221.86 16.7323 224.821 18.4134C225.541 18.8137 226.341 19.294 227.141 19.6943C229.141 20.815 231.462 22.0959 233.222 23.2167C235.783 24.8178 239.063 27.0593 241.224 28.5803C242.584 29.541 246.105 32.0227 248.665 34.2642C249.305 34.8246 250.025 35.3849 250.745 36.0254C252.426 37.4664 254.186 38.9073 255.546 40.1882C258.027 42.4297 260.507 44.8314 262.027 46.5125C265.148 49.7948 269.549 54.8382 273.709 60.0417C274.91 61.4827 276.19 63.324 277.47 65.1652C278.03 65.9658 278.51 66.6863 279.07 67.4067C279.15 67.4868 283.791 74.1313 288.512 83.3376C289.872 86.0594 291.633 89.5018 292.753 92.3037C295.073 98.2277 297.634 105.353 299.314 110.396C300.114 112.958 300.994 116.56 302.034 121.283C302.515 123.685 303.155 127.127 303.795 131.45C304.515 135.933 304.915 141.937 305.075 144.259C305.235 146.981 305.235 150.423 305.315 153.385V155.307C305.395 161.471 304.435 169.316 304.195 171.558C303.715 175.801 302.995 179.963 302.355 182.765C301.314 187.729 299.634 194.213 298.274 198.776C296.273 205.501 292.433 214.067 289.632 220.311C287.072 225.995 282.591 233.039 280.751 235.841C278.91 238.643 274.109 245.768 269.789 250.651C266.828 253.934 259.307 262.179 252.986 267.783C249.705 270.665 245.224 274.027 241.544 276.749L240.423 277.63C238.903 278.751 236.743 280.192 235.143 281.152C229.542 284.675 221.06 289.478 214.339 292.36C209.698 294.281 203.217 296.763 198.256 298.364C195.215 299.405 191.055 300.445 187.134 301.406C182.893 302.447 176.572 303.728 171.531 304.128C170.571 304.208 169.531 304.288 168.491 304.448C165.77 304.688 162.73 305.008 160.329 305.089C158.089 305.329 155.368 305.409 152.568 305.409ZM1.74105 160.43C1.98109 164.673 2.22113 168.836 2.54119 172.198C2.86125 175.961 3.90143 180.844 4.62156 184.366C5.26167 187.488 6.30186 191.891 7.34204 195.174C7.58209 195.974 7.82213 196.775 8.14219 197.655C8.86231 199.897 9.66246 202.459 10.3826 204.38C11.6628 207.902 13.1031 211.425 14.1433 213.746L14.7834 215.187C15.8236 217.509 17.0238 220.151 18.144 222.072C18.544 222.873 19.0241 223.673 19.5042 224.554C20.5444 226.475 21.5846 228.476 22.5447 230.077C23.905 232.319 25.9053 235.521 27.5056 237.843C29.666 241.045 31.4263 243.527 32.7866 245.128C33.3467 245.768 33.9068 246.489 34.5469 247.289C35.9071 248.97 37.2674 250.651 38.4676 252.012C40.0679 253.854 42.3083 256.255 44.0686 258.177L44.4687 258.657C47.9893 262.419 53.1102 266.742 57.1909 270.265L57.831 270.745C60.3115 272.907 63.8321 275.388 65.1923 276.349C67.3527 277.87 70.6333 280.112 73.1938 281.633C74.9541 282.753 77.1945 284.034 79.1948 285.155C79.995 285.635 80.7951 286.036 81.5152 286.436C84.4758 288.117 88.3965 289.958 90.8769 291.079C96.958 293.641 104.879 296.523 110.32 298.284C112.881 299.084 116.241 299.885 119.202 300.605C120.162 300.846 121.122 301.086 122.002 301.246C125.843 302.126 131.204 302.927 134.885 303.407C137.925 303.808 142.246 304.128 145.847 304.368C150.488 304.608 156.489 304.528 160.169 304.368C162.57 304.288 165.61 303.968 168.331 303.728C169.371 303.648 170.411 303.487 171.371 303.407C176.332 302.927 182.653 301.726 186.894 300.686C190.815 299.725 194.895 298.684 198.016 297.643C202.977 295.962 209.378 293.561 214.019 291.639C220.74 288.757 229.141 284.034 234.742 280.512C236.983 279.151 238.743 277.95 239.943 276.989L241.064 276.109C244.664 273.387 249.225 270.025 252.426 267.143C258.747 261.619 266.268 253.373 269.149 250.091C273.469 245.288 278.19 238.243 280.031 235.361C281.791 232.639 286.272 225.594 288.832 219.991C291.633 213.746 295.473 205.181 297.474 198.536C298.834 193.893 300.514 187.488 301.554 182.525C302.194 179.723 302.835 175.56 303.315 171.317C303.555 169.076 304.515 161.311 304.435 155.146V153.225C304.435 150.183 304.355 146.821 304.195 144.099C304.035 141.777 303.635 135.853 302.915 131.37C302.275 127.047 301.634 123.605 301.154 121.283C300.114 116.48 299.234 112.958 298.434 110.396C296.834 105.273 294.273 98.2277 291.873 92.3037C290.752 89.5818 289.072 86.1395 287.632 83.4176C282.911 74.2914 278.27 67.6469 278.27 67.6469C277.79 66.9264 277.23 66.2059 276.67 65.4054C275.39 63.6442 274.109 61.8029 272.989 60.3619C268.749 55.1584 264.428 50.115 261.307 46.8327C259.787 45.1516 257.306 42.83 254.826 40.5885C253.466 39.3076 251.706 37.8666 250.025 36.4257C249.305 35.7852 248.585 35.2248 247.945 34.6645C245.464 32.503 241.944 30.0213 240.584 29.0606C238.423 27.5396 235.143 25.2981 232.582 23.777C230.822 22.6563 228.581 21.3754 226.581 20.2546C225.781 19.7743 224.981 19.374 224.261 18.9738C221.3 17.2926 217.379 15.4514 214.899 14.3306C210.258 12.3293 203.137 9.28719 194.255 6.8055C190.415 5.76479 186.494 4.72408 183.773 4.24375C182.013 3.92353 175.852 2.64266 170.891 2.08228C168.331 1.76206 163.53 1.28173 159.929 1.12163C155.528 0.961517 149.767 0.961517 145.527 1.12163C138.405 1.36179 129.284 2.72272 123.123 3.84348C118.322 4.72408 112.081 6.48528 107.68 7.76615C104.639 8.64675 100.399 10.1678 96.798 11.6088C91.7571 13.6101 85.4359 16.7323 81.1952 18.8937C77.9946 20.5749 73.8339 23.1366 71.0334 24.8978C68.793 26.2587 67.0327 27.4596 65.8325 28.4202L64.7123 29.3008C61.1116 32.0227 56.5508 35.3849 53.3502 38.2669C48.0693 42.9101 41.3481 49.7147 36.6273 55.3185C33.2667 59.2412 28.6258 65.1652 25.7453 70.0485C25.1852 71.0092 24.5451 71.9698 23.905 73.0906C22.3847 75.4922 20.8644 77.9739 19.7442 80.1354C17.0238 85.3389 13.9832 91.263 12.2229 96.0662C11.9829 96.7867 11.6628 97.5072 11.4228 98.2277C10.3826 101.03 9.10236 104.312 8.38223 106.874C7.02199 111.277 5.26168 117.841 4.30151 122.884C3.66139 126.007 2.86125 130.49 2.54119 134.092C2.0611 138.895 1.58102 145.38 1.42099 150.263C1.42099 151.224 1.501 152.264 1.501 153.305C3.26132 179.243 32.6265 203.259 79.1948 216.548L78.9548 217.349C36.0672 205.421 7.6621 184.046 1.74105 160.43Z"
      fill="white" fill-opacity="0.36" />
  </g>
  <mask id="mask2_0_3924" style="mask-type:luminance" maskUnits="userSpaceOnUse" x="1" y="1" width="304" height="304">
    <path
      d="M111.36 299.165C108.32 298.284 104.319 297.003 101.279 295.962C97.9981 294.762 93.7573 293.16 90.6368 291.639C85.3558 289.078 78.4746 285.395 73.3537 282.513C70.7932 280.992 67.5126 278.671 65.0322 276.989C60.8715 274.188 53.4301 268.103 50.6296 265.382C48.7093 263.46 45.9888 261.059 44.1485 259.057C40.5478 255.135 35.667 249.851 32.4664 245.528C30.8661 243.367 28.7057 240.485 27.1855 238.243C25.6652 236.002 23.8249 232.879 22.3046 230.638C20.7843 228.316 19.184 225.034 17.8238 222.552C17.8238 222.472 13.8231 215.187 10.1424 205.101C9.10225 202.219 7.66199 198.296 6.94187 195.334C5.4216 189.41 3.58127 181.484 2.6211 175.48C2.061 171.958 1.58091 167.235 1.34087 163.632C1.10083 159.71 0.9408 154.426 1.02081 150.423C1.18084 138.335 7.42195 126.247 20.2242 115.119C60.9515 79.6552 153.448 67.8071 226.741 88.7013C153.448 67.8071 60.9515 79.6552 20.2242 115.119C7.42195 126.247 1.26086 138.415 1.02081 150.423C1.34087 143.699 1.82096 134.573 3.02117 127.928C3.90133 123.045 5.34158 116.64 6.5418 111.917C7.42195 108.555 8.86221 104.232 10.0624 100.95C11.7427 96.2264 14.3032 89.9822 16.7036 85.4991C19.9842 79.2549 24.705 71.0893 28.7057 65.3254C31.7463 60.8424 36.3871 55.3186 39.9878 51.2358C42.3082 48.514 45.8288 45.2317 48.3092 42.67C52.2299 38.6673 58.071 34.1042 62.5518 30.7419C66.3124 27.8599 71.6734 24.4976 75.6741 22.0159C78.7146 20.1747 82.9554 18.0933 86.076 16.4121C90.7968 13.9304 97.518 11.2886 102.559 9.52743C107.36 7.76623 113.921 5.84492 118.882 4.80421C122.242 4.08372 126.723 3.12307 130.084 2.64274C134.725 2.0023 140.966 1.28181 145.687 1.1217C152.328 0.88154 161.209 0.961595 167.851 1.68209C172.091 2.16241 177.692 2.96296 181.853 3.7635C185.054 4.32388 189.294 5.36459 192.415 6.24519C202.977 9.0471 211.378 12.6495 214.099 13.8504C218.82 15.9318 226.341 19.6143 232.982 23.7771C242.584 29.7812 248.105 34.5044 248.345 34.6645C250.425 36.4257 253.306 38.6673 255.226 40.5886C257.146 42.4298 259.787 44.9115 261.707 46.8328C263.628 48.7541 266.028 51.3959 267.788 53.4773C269.549 55.4787 271.789 58.2806 273.469 60.4421C275.07 62.6035 277.15 65.5656 278.75 67.727C280.351 69.8885 282.111 73.0907 283.631 75.3322C285.151 77.6538 286.832 80.936 288.112 83.4177C289.392 85.8994 290.992 89.2617 292.113 91.8234C293.713 95.2658 296.833 103.111 298.994 110.636C299.794 113.518 300.834 117.441 301.474 120.323C302.194 123.685 303.075 128.248 303.475 131.611C304.195 137.214 305.075 144.179 304.995 155.387C304.915 162.191 304.035 171.157 302.995 177.882C302.194 182.765 300.674 189.17 299.474 193.893C298.594 197.255 296.993 201.578 295.953 204.86C294.433 209.664 291.633 215.828 289.312 220.311C286.112 226.555 281.231 234.641 277.31 240.485C274.269 244.968 269.709 250.571 266.028 254.574C255.626 266.102 243.624 275.949 230.262 283.794C225.621 286.516 219.3 290.038 214.259 292.04C210.978 293.321 206.737 295.242 203.457 296.363C198.656 297.964 192.095 299.965 187.134 301.086C180.493 302.527 171.531 304.048 164.73 304.528C160.089 304.848 153.848 305.009 149.207 304.928C145.927 304.928 141.526 304.528 138.165 304.208C133.924 303.808 128.323 302.927 124.163 302.127C120.242 301.486 115.121 300.285 111.36 299.165Z"
      fill="white" />
  </mask>
  <g mask="url(#mask2_0_3924)">
    <path
      d="M118.882 300.606C114.801 300.606 110.88 299.725 107.2 298.044C98.1581 293.881 90.7968 284.435 85.9159 270.825C83.1955 263.3 81.1951 254.654 79.9949 245.048C67.4326 233.36 56.3107 219.991 47.109 205.581C21.8245 193.252 5.34159 176.921 1.4209 159.309C-2.01972 143.699 4.30141 128.408 19.8242 114.879L20.4643 114.319V115.199C20.0642 146.02 30.226 177.482 47.6691 205.02C57.0308 209.584 67.5927 213.506 79.1147 216.788L79.4348 216.869V217.189C79.2747 227.035 79.7548 236.322 80.795 244.727C101.039 263.38 125.043 277.63 150.887 284.995L151.608 285.235L151.048 285.715C139.766 295.642 128.804 300.606 118.882 300.606ZM81.0351 245.928C84.5557 272.426 93.9174 290.919 107.6 297.323C119.762 303.007 134.485 298.924 150.007 285.635C124.563 278.27 100.959 264.181 81.0351 245.928ZM48.5493 206.301C57.3508 219.991 67.9127 232.719 79.9149 243.847C78.9547 235.761 78.5546 226.955 78.7147 217.509C67.5927 214.307 57.5109 210.544 48.5493 206.301ZM19.7442 116.08C4.94152 129.209 -1.05955 144.099 2.30105 159.149C6.14174 176.281 21.9846 192.212 46.3889 204.38C29.4259 177.162 19.5041 146.341 19.7442 116.08Z"
      fill="white" fill-opacity="0.36" />
    <path
      d="M113.761 300.125C50.3897 282.113 -0.339341 215.988 0.62083 152.745H1.42097C0.460802 215.668 50.9498 281.392 113.921 299.325L113.761 300.125Z"
      fill="white" fill-opacity="0.36" />
    <path
      d="M33.4266 226.155C24.3049 226.155 18.3839 224.153 16.2235 220.231C12.5428 213.506 19.7441 201.978 37.0272 186.928L37.5873 187.569C20.8643 202.138 13.583 213.586 17.0236 219.831C21.6645 228.236 44.2285 227.115 79.0347 216.868L79.2747 217.669C59.9113 223.273 44.3885 226.155 33.4266 226.155Z"
      fill="white" fill-opacity="0.36" />
    <path
      d="M54.5503 268.264C53.7501 268.264 53.03 268.023 52.5499 267.623C47.109 262.66 66.6324 233.76 78.7946 216.949L79.4347 217.429C49.7494 258.577 51.7498 265.782 53.11 266.983C54.3903 268.183 59.9913 268.664 83.9155 247.93L84.4756 248.57C73.5937 257.937 60.3913 268.264 54.5503 268.264Z"
      fill="white" fill-opacity="0.36" />
    <path
      d="M118.882 300.605C114.801 300.605 110.88 299.725 107.2 298.044C98.1581 293.881 90.7968 284.434 85.9159 270.825C80.795 256.656 78.3146 238.563 78.6346 217.189V216.628L79.1147 216.788C152.168 237.603 244.664 225.755 285.311 190.451L285.952 189.89V190.771C285.391 225.274 271.709 254.174 247.385 272.266C221.62 291.399 187.374 296.202 150.807 285.875C139.605 295.642 128.724 300.605 118.882 300.605ZM79.4348 217.749C78.8747 259.137 89.3566 288.918 107.52 297.323C119.842 303.087 134.725 298.844 150.487 285.075L150.647 284.915L150.888 284.995C187.294 295.322 221.38 290.599 246.985 271.546C270.909 253.774 284.431 225.434 285.151 191.571C257.867 214.867 208.018 227.756 156.248 227.836C130.244 227.836 103.839 224.634 79.4348 217.749Z"
      fill="white" fill-opacity="0.36" />
    <path
      d="M145.607 304.768C135.365 304.768 124.643 303.247 113.761 300.125L114.001 299.325C145.367 308.291 174.812 304.128 196.896 287.717C217.699 272.266 229.382 247.449 229.862 217.909H230.662C230.182 247.689 218.34 272.666 197.376 288.277C182.733 299.245 164.97 304.768 145.607 304.768Z"
      fill="white" fill-opacity="0.36" />
    <path
      d="M179.693 301.486C175.452 301.486 171.131 301.006 166.73 300.125C133.684 293.401 100.719 262.5 78.7146 217.349L79.4347 217.029C101.359 261.939 134.084 292.68 166.89 299.405C185.854 303.247 203.457 298.684 217.859 286.116L218.419 286.756C207.137 296.523 193.935 301.486 179.693 301.486Z"
      fill="white" fill-opacity="0.36" />
    <path
      d="M208.418 271.706C167.69 271.706 118.882 252.573 78.7947 217.509L79.3548 216.869C141.846 271.626 225.621 287.397 266.188 252.093L266.748 252.733C251.945 265.622 231.462 271.706 208.418 271.706Z"
      fill="white" fill-opacity="0.36" />
    <path
      d="M156.248 227.836C130.084 227.836 103.439 224.554 78.9546 217.589L78.6345 217.509V217.189C79.7547 144.019 113.841 55.7188 154.648 20.2547L154.808 20.0946L155.048 20.1747C228.421 41.0689 287.152 117.601 286.031 190.771V190.931L285.871 191.011C258.747 214.707 208.498 227.836 156.248 227.836ZM79.4347 216.869C152.408 237.523 244.584 225.755 285.151 190.531C286.191 117.761 227.861 41.7894 154.968 20.8951C114.561 56.3593 80.7149 144.099 79.4347 216.869Z"
      fill="white" fill-opacity="0.36" />
    <path
      d="M230.661 217.989H229.861C230.822 155.066 180.333 89.3418 117.361 71.4096L117.601 70.609C180.893 88.7013 231.622 154.826 230.661 217.989Z"
      fill="white" fill-opacity="0.36" />
    <path
      d="M79.1946 217.589L78.9546 216.788C142.646 197.896 227.621 153.786 268.268 118.401L268.828 119.042C228.021 154.506 142.966 198.696 79.1946 217.589Z"
      fill="white" fill-opacity="0.36" />
    <path
      d="M79.3547 217.429L78.7146 216.949C116.641 164.353 180.653 92.7841 221.38 57.3199L221.94 57.9604C181.213 93.3445 117.281 164.913 79.3547 217.429Z"
      fill="white" fill-opacity="0.36" />
    <path
      d="M79.4348 217.749L78.9547 217.589C35.827 205.341 6.86184 183.566 1.50089 159.309C-1.93972 143.779 4.3814 128.488 19.7441 115.039C20.3042 80.6158 33.9867 51.7962 58.311 33.7038C84.0756 14.5708 118.482 9.68749 155.048 20.1746L155.768 20.4148L155.208 20.8951C114.561 56.2792 80.635 144.339 79.4348 217.269V217.749ZM118.162 15.5315C95.8377 15.5315 75.5141 21.8558 58.7111 34.3443C34.6268 52.2765 21.0244 81.016 20.4643 115.199V115.359L20.3042 115.439C5.02152 128.729 -1.2196 143.779 2.141 159.069C7.42194 182.925 35.987 204.38 78.5546 216.628C79.8348 143.939 113.601 56.3593 154.008 20.655C141.766 17.2927 129.764 15.5315 118.162 15.5315Z"
      fill="white" fill-opacity="0.36" />
    <path
      d="M1.42099 152.745H0.62085C1.10094 122.965 12.943 97.9876 33.9068 82.3769C56.1507 65.8057 85.916 61.6428 117.522 70.689L117.282 71.4895C85.916 62.5234 56.4708 66.6863 34.3869 83.0974C13.5832 98.4679 1.90108 123.285 1.42099 152.745Z"
      fill="white" fill-opacity="0.36" />
    <path
      d="M78.7147 217.349C42.7083 143.619 46.5489 54.7582 87.4362 19.214L87.9963 19.8544C47.4291 55.1584 43.5884 143.619 79.5148 217.029L78.7147 217.349Z"
      fill="white" fill-opacity="0.36" />
    <path
      d="M78.7946 217.509C40.0677 183.566 16.9436 141.297 17.0236 104.312C17.0236 83.4177 24.705 65.7257 39.0276 53.1571L39.5877 53.7975C25.4251 66.1259 17.8238 83.6579 17.8238 104.312C17.7438 140.977 40.7879 183.086 79.3547 216.869L78.7946 217.509Z"
      fill="white" fill-opacity="0.36" />
    <path
      d="M150.888 285.876L150.648 285.795C77.3545 264.901 18.6241 188.369 19.7443 115.199V115.039L19.9043 114.959C60.7116 79.495 153.528 67.5669 226.821 88.4611L227.141 88.5412V88.8614C226.021 162.031 191.935 250.331 151.128 285.795L150.888 285.876ZM20.5444 115.359C19.5042 188.129 77.8346 264.101 150.728 284.995C191.215 249.611 225.061 161.871 226.341 89.1016C153.368 68.3675 61.1917 80.2155 20.5444 115.359Z"
      fill="white" fill-opacity="0.36" />
    <path
      d="M188.254 235.281C124.883 217.269 74.1541 151.144 75.1142 87.9008H75.9144C74.9542 150.824 125.443 216.548 188.414 234.481L188.254 235.281Z"
      fill="white" fill-opacity="0.36" />
    <path
      d="M215.459 164.753C178.332 154.186 148.647 115.44 149.207 78.4543H150.007C149.447 115.119 178.893 153.545 215.699 163.953L215.459 164.753Z"
      fill="white" fill-opacity="0.36" />
    <path
      d="M37.5074 187.489L36.9473 186.848C77.6745 151.384 162.73 107.194 226.581 88.301L226.821 89.1016C163.13 107.994 78.1546 152.104 37.5074 187.489Z"
      fill="white" fill-opacity="0.36" />
    <path
      d="M84.3958 248.57L83.8357 247.93C124.483 212.546 188.494 140.977 226.341 88.4612L226.981 88.9415C189.054 141.537 125.123 213.186 84.3958 248.57Z"
      fill="white" fill-opacity="0.36" />
    <path
      d="M187.614 291.159C175.772 291.159 163.37 289.398 150.727 285.795L150.007 285.555L150.567 285.075C191.215 249.691 225.141 161.631 226.341 88.7012V88.1409L226.821 88.301C269.949 100.549 298.914 122.324 304.275 146.581C307.715 162.111 301.394 177.402 286.032 190.851C285.471 225.274 271.789 254.094 247.465 272.186C230.582 284.755 210.018 291.159 187.614 291.159ZM151.608 285.235C187.694 295.322 221.54 290.519 246.985 271.626C271.069 253.694 284.671 224.954 285.231 190.771V190.611L285.391 190.531C300.674 177.242 306.915 162.191 303.555 146.901C298.274 123.045 269.709 101.59 227.141 89.3417C225.781 161.951 192.095 249.531 151.608 285.235Z"
      fill="white" fill-opacity="0.36" />
    <path
      d="M220.1 239.924C209.858 239.924 199.136 238.403 188.254 235.281L188.494 234.48C219.86 243.447 249.305 239.284 271.389 222.873C292.193 207.422 303.875 182.605 304.355 153.065H305.155C304.675 182.845 292.833 207.822 271.869 223.433C257.306 234.4 239.543 239.924 220.1 239.924Z"
      fill="white" fill-opacity="0.36" />
    <path
      d="M234.102 167.475C228.101 167.475 221.86 166.594 215.459 164.753L215.699 163.952C234.022 169.156 251.145 166.754 264.028 157.228C276.11 148.182 282.991 133.772 283.231 116.56H284.031C283.791 134.012 276.83 148.662 264.508 157.868C255.946 164.273 245.544 167.475 234.102 167.475Z"
      fill="white" fill-opacity="0.36" />
    <path
      d="M218.339 286.676L217.779 286.036C258.347 250.732 262.187 162.271 226.261 88.8614L226.981 88.5411C263.067 162.271 259.227 251.212 218.339 286.676Z"
      fill="white" fill-opacity="0.36" />
    <path
      d="M266.748 252.733L266.188 252.092C280.351 239.764 287.952 222.232 287.952 201.578C288.032 164.913 264.988 122.804 226.421 89.0214L226.981 88.381C265.708 122.324 288.832 164.593 288.752 201.578C288.752 222.552 281.071 240.244 266.748 252.733Z"
      fill="white" fill-opacity="0.36" />
    <path
      d="M285.231 191.651V190.771C285.711 159.95 275.55 128.568 258.106 100.95C248.745 96.3866 238.183 92.4639 226.661 89.1817L226.341 89.1016V88.7814C226.501 78.9347 226.021 69.6484 224.981 61.2426C204.737 42.5899 180.733 28.3402 154.888 20.9752L154.168 20.7351L154.728 20.2547C170.731 6.32525 185.934 2.00232 198.576 7.92635C207.617 12.0892 214.979 21.5356 219.86 35.1449C222.58 42.67 224.58 51.3159 225.781 60.9224C238.343 72.6104 249.465 85.9795 258.667 100.389C283.951 112.718 300.434 129.049 304.355 146.661C307.795 162.271 301.474 177.562 285.951 191.091L285.231 191.651ZM259.387 101.59C276.35 128.729 286.271 159.55 286.031 189.81C300.834 176.681 306.835 161.791 303.475 146.741C299.714 129.689 283.871 113.758 259.387 101.59ZM227.141 88.4612C238.183 91.5833 248.265 95.4259 257.306 99.6688C248.505 85.9795 237.943 73.2508 225.941 62.1232C226.821 70.2087 227.221 79.0147 227.141 88.4612ZM155.768 20.3348C181.213 27.6998 204.817 41.7093 224.741 59.9618C221.22 33.4637 211.858 14.9711 198.176 8.56678C186.014 2.96297 171.371 6.96569 155.768 20.3348Z"
      fill="white" fill-opacity="0.36" />
    <path
      d="M305.155 153.225H304.355C305.315 90.3025 254.826 24.5777 191.855 6.64552L192.095 5.84497C255.386 23.8572 306.115 89.9822 305.155 153.225Z"
      fill="white" fill-opacity="0.36" />
    <path
      d="M284.031 116.56H283.231C283.791 79.8954 254.346 41.4692 217.539 31.0621L217.779 30.2616C254.906 40.8288 284.591 79.5752 284.031 116.56Z"
      fill="white" fill-opacity="0.36" />
    <path
      d="M268.828 119.042L268.268 118.402C284.991 103.832 292.272 92.3838 288.832 86.1396C284.191 77.7339 261.627 78.8546 226.821 89.1016L226.581 88.301C261.787 77.894 284.751 76.9333 289.552 85.6592C293.233 92.4639 286.111 103.992 268.828 119.042Z"
      fill="white" fill-opacity="0.36" />
    <path
      d="M227.061 89.0216L226.421 88.5412C256.106 47.3932 254.106 40.1883 252.745 38.9875C251.465 37.7867 245.864 37.3064 221.94 58.0405L221.38 57.4C233.702 46.6727 249.225 34.6646 253.226 38.3471C258.667 43.3105 239.143 72.2101 227.061 89.0216Z"
      fill="white" fill-opacity="0.36" />
    <path
      d="M19.7441 116.08V115.199C20.3042 80.6958 33.9867 51.7961 58.311 33.7038C84.0756 14.5708 118.322 9.76749 154.888 20.0945C170.891 6.24509 185.934 2.00221 198.576 7.92624C207.618 12.0891 214.979 21.5355 219.86 35.1448C224.981 49.3144 227.461 67.4067 227.141 88.7813V89.3417L226.661 89.1815C153.608 68.3674 61.1115 80.2154 20.4643 115.519L19.7441 116.08ZM118.162 15.5314C95.8377 15.5314 75.5141 21.8557 58.7111 34.3442C34.7868 52.1163 21.2644 80.4556 20.5443 114.319C61.5916 79.3348 153.448 67.6469 226.261 88.2209C226.821 46.8327 216.339 17.0524 198.176 8.64673C185.854 2.8828 170.971 7.12569 155.208 20.8951L155.048 21.0552L154.808 20.9751C142.246 17.3727 129.924 15.5314 118.162 15.5314Z"
      fill="white" fill-opacity="0.36" />
    <path
      d="M75.9142 87.9808H75.114C75.5941 58.2005 87.4362 33.2235 108.4 17.6129C130.644 1.04161 160.409 -3.12122 192.015 5.92494L191.775 6.72548C160.409 -2.24062 130.964 1.92221 108.88 18.3334C88.0763 33.6238 76.3942 58.4407 75.9142 87.9808Z"
      fill="white" fill-opacity="0.36" />
    <path
      d="M150.007 78.4543H149.207C149.447 61.0024 156.409 46.3524 168.731 37.1462C181.773 27.4596 199.216 24.9779 217.779 30.2615L217.539 31.062C199.216 25.8585 182.093 28.2601 169.211 37.7866C157.129 46.8328 150.327 61.2426 150.007 78.4543Z"
      fill="white" fill-opacity="0.36" />
    <path
      d="M226.341 88.9415C204.417 44.0309 171.691 13.29 138.885 6.56538C119.922 2.72277 102.319 7.28587 87.9163 19.8544L87.3562 19.214C101.919 6.48533 119.762 1.84217 138.965 5.76484C172.011 12.4894 204.977 43.3904 226.981 88.5412L226.341 88.9415Z"
      fill="white" fill-opacity="0.36" />
    <path
      d="M226.421 89.0215C163.93 34.2643 80.1549 18.4935 39.5877 53.7976L39.0276 53.1571C79.9149 17.6129 164.17 33.4637 226.901 88.3811L226.421 89.0215Z"
      fill="white" fill-opacity="0.36" />
  </g>
  <path
    d="M151.047 305.409C150.327 305.409 149.687 305.409 149.047 305.409C145.847 305.409 141.686 305.009 138.005 304.688C133.684 304.288 127.923 303.407 124.003 302.607C119.762 301.806 114.721 300.606 111.28 299.565C106.96 298.284 103.519 297.163 101.199 296.283C96.4778 294.601 92.9572 293.16 90.4767 291.96C85.5958 289.638 78.7946 286.036 73.1936 282.833C71.1933 281.713 68.7929 280.032 66.6325 278.591C65.9924 278.19 65.3522 277.71 64.7921 277.31C60.6314 274.508 53.1101 268.344 50.3096 265.622C49.7495 265.061 49.0293 264.421 48.3092 263.78C46.7089 262.259 45.0286 260.738 43.7484 259.297L43.2683 258.817C39.5877 254.814 35.1069 249.931 31.9863 245.768C30.226 243.367 28.1456 240.645 26.7054 238.483C25.6652 236.962 24.465 235.041 23.2648 233.2C22.7847 232.399 22.3046 231.599 21.8245 230.878C20.7843 229.197 19.5841 227.035 18.6239 225.114C18.1438 224.314 17.7438 223.513 17.3437 222.793C17.3437 222.713 13.343 215.348 9.66233 205.341C8.54213 202.299 7.18189 198.456 6.46176 195.494C5.74163 192.772 3.42122 183.326 2.14099 175.641C1.50088 171.958 1.02079 167.075 0.860765 163.792C0.620722 160.03 0.460693 154.746 0.460693 150.583C0.460693 149.703 0.540708 148.822 0.620722 147.942C0.940779 141.457 1.42086 133.932 2.46105 128.008C3.34121 123.045 4.78146 116.56 5.98168 111.917C7.10188 107.594 8.94221 102.391 9.50231 100.95C11.1026 96.4666 13.7431 90.0623 16.1435 85.4191C19.8241 78.4544 24.545 70.4489 28.2256 65.1653C30.7061 61.5629 34.5468 56.8396 39.5076 51.0757C41.1079 49.2345 43.2683 47.073 45.3487 45.0716C46.2288 44.191 47.109 43.3104 47.9091 42.5099C51.9099 38.4271 57.9909 33.7039 62.1517 30.5017C66.5525 27.1394 72.8736 23.2968 75.354 21.7758C77.5944 20.4149 80.555 18.8938 83.1154 17.5329C84.0756 17.0526 84.9557 16.5722 85.7559 16.172C89.5165 14.1706 94.8775 11.9291 102.239 9.20724C107.04 7.44604 113.601 5.52473 118.562 4.48402C123.443 3.44331 127.123 2.72282 129.764 2.32255C133.364 1.84222 140.246 0.961623 145.366 0.801514C151.128 0.56135 160.409 0.641402 167.53 1.36189C171.611 1.84222 177.212 2.64277 181.533 3.44331C185.614 4.1638 190.655 5.52473 192.095 5.925C202.657 8.72691 211.138 12.4094 213.859 13.6102C218.66 15.6916 226.101 19.3742 232.822 23.617C242.504 29.7012 248.025 34.3443 248.265 34.5845C248.905 35.1449 249.545 35.7053 250.265 36.2656C251.945 37.7066 253.786 39.1476 255.146 40.5085C255.786 41.0689 256.426 41.7894 257.146 42.4298C258.667 43.9509 260.347 45.4719 261.627 46.7528C263.548 48.6741 265.948 51.3959 267.708 53.3973C269.469 55.3987 271.709 58.2006 273.389 60.362C274.509 61.803 275.79 63.6443 277.07 65.4055C277.63 66.206 278.19 67.0066 278.67 67.647C279.79 69.168 280.991 71.0894 282.111 73.0107C282.591 73.8112 283.071 74.6117 283.551 75.3322C285.071 77.7339 286.832 81.0962 288.032 83.4177C289.312 85.9795 290.912 89.4218 292.033 91.8235C293.633 95.2658 296.753 103.111 298.914 110.716C299.714 113.358 300.754 117.361 301.394 120.483C301.874 122.564 302.915 127.768 303.475 131.851C304.195 137.455 305.075 144.419 304.995 155.707C304.915 162.111 304.115 171.157 302.995 178.282C302.034 184.046 300.194 191.411 299.474 194.373C298.834 196.695 297.954 199.417 297.073 202.058C296.673 203.259 296.273 204.38 295.953 205.421C294.273 210.704 291.312 217.029 289.312 220.951C286.112 227.196 281.231 235.281 277.23 241.205C273.949 246.008 269.229 251.612 265.948 255.295C255.546 266.823 243.464 276.749 230.102 284.595C227.221 286.276 219.86 290.519 214.019 292.84C213.059 293.241 212.018 293.641 210.898 294.121C208.338 295.162 205.537 296.363 203.137 297.163C198.496 298.684 191.935 300.766 186.814 301.886C180.653 303.247 171.531 304.848 164.33 305.329C160.649 305.249 155.448 305.409 151.047 305.409ZM1.42086 150.583C1.42086 154.666 1.50088 159.95 1.74092 163.712C1.98096 166.995 2.38104 171.798 3.02115 175.48C4.30138 183.166 6.7018 192.532 7.34192 195.254C8.06205 198.216 9.42229 201.978 10.5425 205.021C14.1431 214.947 18.1438 222.312 18.1438 222.392C18.5439 223.113 18.944 223.913 19.4241 224.714C20.4643 226.635 21.5844 228.797 22.6246 230.398C23.1047 231.118 23.5848 231.919 24.0649 232.719C25.1851 234.561 26.3853 236.482 27.4255 238.003C28.8657 240.164 30.8661 242.886 32.7064 245.288C35.747 249.371 40.3078 254.334 43.9084 258.257L44.3885 258.737C45.6687 260.098 47.269 261.619 48.8693 263.14C49.5894 263.78 50.2295 264.421 50.8697 264.981C53.6702 267.703 61.1115 273.787 65.2722 276.589C65.8323 276.989 66.4724 277.39 67.1126 277.87C69.1929 279.311 71.5933 280.992 73.5937 282.113C79.1947 285.315 85.9959 288.918 90.8768 291.239C93.2772 292.44 96.8779 293.881 101.519 295.562C103.839 296.443 107.2 297.483 111.52 298.764C114.961 299.805 119.922 301.006 124.163 301.806C128.083 302.527 133.764 303.488 138.085 303.888C141.686 304.208 145.847 304.528 149.047 304.608C153.768 304.688 160.009 304.528 164.49 304.208C171.691 303.728 180.733 302.127 186.814 300.766C191.935 299.645 198.496 297.564 203.057 296.042C205.377 295.242 208.258 294.121 210.738 293C211.858 292.52 212.899 292.12 213.859 291.719C219.7 289.398 226.981 285.235 229.782 283.474C243.064 275.629 255.066 265.782 265.468 254.254C268.588 250.732 273.469 244.968 276.67 240.244C280.671 234.4 285.471 226.315 288.672 220.071C290.672 216.228 293.553 209.904 295.233 204.7C295.553 203.66 295.953 202.539 296.353 201.338C297.233 198.696 298.114 195.974 298.754 193.733C299.474 190.851 301.394 183.486 302.274 177.722C303.395 170.677 304.195 161.631 304.275 155.307C304.435 144.099 303.475 137.134 302.835 131.611C302.354 127.528 301.234 122.404 300.834 120.323C300.194 117.201 299.154 113.278 298.354 110.636C296.193 103.111 293.073 95.2658 291.552 91.8235C290.432 89.4218 288.832 85.9795 287.552 83.4978C286.352 81.1762 284.591 77.894 283.071 75.4923C282.591 74.7719 282.111 73.9713 281.631 73.1708C280.511 71.3295 279.31 69.4082 278.19 67.8872C277.71 67.1667 277.15 66.4462 276.59 65.6456C275.39 63.8844 274.109 62.1232 272.989 60.6823C271.389 58.6008 269.149 55.7989 267.388 53.7976C265.628 51.7962 263.227 49.0744 261.307 47.1531C260.027 45.8722 258.427 44.2711 256.826 42.8301C256.106 42.1897 255.386 41.4692 254.826 40.9088C253.466 39.6279 251.705 38.1069 250.025 36.746C249.305 36.1856 248.585 35.5452 247.945 35.0648C247.705 34.9047 242.264 30.1815 232.582 24.1774C225.941 20.0146 218.499 16.3321 213.699 14.2507C210.978 13.0498 202.577 9.44739 192.015 6.64549C190.575 6.24521 185.534 4.96434 181.533 4.24385C177.292 3.44331 171.691 2.64276 167.61 2.16244C160.569 1.36189 151.288 1.3619 145.527 1.60206C140.406 1.76217 133.604 2.64277 129.924 3.12309C127.283 3.52336 123.603 4.1638 118.802 5.28456C113.841 6.40533 107.28 8.24658 102.559 10.0078C95.1976 12.6496 89.8366 14.8911 86.156 16.8925C85.3558 17.3728 84.3956 17.7731 83.5155 18.3334C80.955 19.6944 78.0745 21.2154 75.8341 22.5763C73.3537 24.0974 67.1126 27.94 62.7118 31.3023C58.551 34.5045 52.4699 39.1476 48.5493 43.2304C47.7491 44.0309 46.869 44.9115 45.9888 45.7921C43.9084 47.7935 41.8281 49.8749 40.2278 51.7962C35.2669 57.5601 31.5062 62.2834 29.0258 65.8058C25.3451 71.0894 20.7043 79.0147 17.0236 85.9795C14.6232 90.5426 12.0628 96.9469 10.4625 101.35C9.90237 102.871 8.06205 107.994 6.94185 112.317C5.74163 116.961 4.30138 123.365 3.42122 128.328C2.70109 132.251 2.30102 136.894 1.98097 141.457C3.42122 136.334 5.90166 131.21 9.50231 126.327C12.3028 122.404 15.8234 118.642 19.9842 115.039C51.8298 87.3404 115.441 73.9713 176.732 79.415C193.295 80.856 209.618 83.738 225.141 87.9809C225.221 87.9809 225.381 88.0609 225.461 88.0609C225.541 88.0609 225.621 88.141 225.701 88.141C225.701 88.141 225.701 88.141 225.781 88.141C225.861 88.141 226.021 88.221 226.101 88.221C226.181 88.221 226.261 88.3011 226.341 88.3011C226.501 88.3811 226.741 88.3811 226.901 88.4612L226.661 89.2617C226.581 89.2617 226.421 89.1817 226.341 89.1817C226.261 89.1817 226.181 89.1016 226.101 89.1016C226.021 89.1016 226.021 89.1016 225.941 89.0216C225.941 89.0216 225.941 89.0216 225.861 89.0216C209.458 84.3784 192.015 81.4164 174.492 79.9754H174.412C114.001 75.0921 51.8298 88.3011 20.4643 115.6C14.3032 120.963 9.66233 126.647 6.46176 132.491C3.74128 137.535 2.06098 142.738 1.58089 148.022C1.58089 148.662 1.50088 149.223 1.50088 149.863L1.42086 150.583Z"
    fill="white" fill-opacity="0.36" />
</svg>