<svg width="32" height="50" viewBox="0 0 32 50" fill="none" xmlns="http://www.w3.org/2000/svg">
  <path d="M25.8691 6.10352e-05L20.3214 15.7466H17.2391L22.7705 0.0131015V6.10352e-05H25.8691Z" fill="#A14A42" />
  <path d="M22.7706 6.10352e-05V0.0131015L17.2393 15.7466H14.1951L19.7269 0.0131015V6.10352e-05H22.7706Z"
    fill="#8F8F8F" />
  <path d="M19.727 6.10352e-05V0.0131015L14.1952 15.7466H11.0859L16.6337 6.10352e-05H19.727Z" fill="#A14A42" />
  <path
    d="M22.4881 15.9814C22.8955 16.9051 23.1216 17.8988 23.1579 18.9074C20.9777 17.7752 18.5069 17.1366 15.8905 17.1366C13.1281 17.1366 10.5295 17.8485 8.26257 19.0999C8.27452 18.0252 8.50413 16.9635 8.9368 15.9814L9.13853 15.5241C9.36372 15.012 9.83267 14.654 10.3795 14.5758L10.9754 14.4903C14.1174 14.0434 17.3071 14.0434 20.4504 14.4903L21.0454 14.5758C21.5927 14.6536 22.0612 15.012 22.2864 15.5241L22.4881 15.9814ZM20.8848 16.4311V15.8299C20.8848 15.6559 20.7459 15.5147 20.5747 15.5147H10.8502C10.679 15.5147 10.5401 15.6559 10.5401 15.8299V16.4311C10.5401 16.606 10.679 16.7472 10.8502 16.7472H20.5747C20.7459 16.7472 20.8848 16.606 20.8848 16.4311Z"
    fill="#C9C9C9" />
  <path d="M5.53662 6.10352e-05L11.0844 15.7466H14.167L8.63566 0.0131015V6.10352e-05H5.53662Z" fill="#FF7A6E" />
  <path d="M8.63586 6.10352e-05V0.0131015L14.1672 15.7466H17.211L11.6796 0.0131015V6.10352e-05H8.63586Z" fill="white" />
  <path d="M11.6794 6.10352e-05V0.0131015L17.2108 15.7466H20.3205L14.7727 6.10352e-05H11.6794Z" fill="#FF7A6E" />
  <path
    d="M23.2669 18.9073C28.4506 21.5972 32 27.0764 32 33.3988C32 42.3805 24.8361 49.662 15.9996 49.662C7.16297 49.662 0 42.3805 0 33.3988C0 27.2248 3.38439 21.8544 8.37162 19.0997C10.6385 17.8483 13.2372 17.1365 15.9996 17.1365C18.6159 17.1365 21.0868 17.775 23.2669 18.9073Z"
    fill="#9C9C9C" />
  <path
    d="M15.9994 48.3664C12.0665 48.3664 8.36886 46.8096 5.58746 43.9825C2.80651 41.1555 1.2749 37.3971 1.2749 33.3991C1.2749 27.9068 4.22707 22.8647 8.97982 20.2391C11.1206 19.0573 13.5476 18.4328 15.9994 18.4328C18.4513 18.4328 20.6053 18.9809 22.6873 20.0619C25.0679 21.2972 27.0764 23.17 28.4956 25.4773C29.9538 27.8484 30.7249 30.5878 30.7249 33.3987C30.7249 37.3962 29.1933 41.155 26.4119 43.9821C23.6305 46.8092 19.9329 48.3659 15.9994 48.3659V48.3664Z"
    fill="#E4E4E4" />
  <path
    d="M11.9034 38.1539V36.8215L15.4382 33.3563C15.7762 33.0149 16.058 32.7117 16.2833 32.4465C16.5087 32.1814 16.6777 31.9245 16.7904 31.6759C16.9031 31.4273 16.9595 31.1622 16.9595 30.8805C16.9595 30.559 16.8866 30.2839 16.7407 30.0552C16.5949 29.8232 16.3944 29.6442 16.1392 29.5183C15.884 29.3923 15.5939 29.3293 15.2691 29.3293C14.9344 29.3293 14.6411 29.3989 14.3892 29.5381C14.1373 29.674 13.9417 29.8679 13.8025 30.1198C13.6666 30.3717 13.5987 30.6717 13.5987 31.0197H11.8437C11.8437 30.3734 11.9912 29.8116 12.2862 29.3343C12.5812 28.857 12.9872 28.4875 13.5042 28.2256C14.0246 27.9638 14.6212 27.8329 15.294 27.8329C15.9768 27.8329 16.5767 27.9605 17.0937 28.2157C17.6108 28.4709 18.0118 28.8206 18.2968 29.2647C18.5852 29.7088 18.7294 30.2159 18.7294 30.786C18.7294 31.1672 18.6564 31.5417 18.5106 31.9096C18.3648 32.2775 18.1079 32.6852 17.74 33.1326C17.3754 33.58 16.8634 34.1219 16.2038 34.7583L14.4488 36.5431V36.6127H18.8835V38.1539H11.9034Z"
    fill="#0A0505" />
  <path
    d="M13.385 20.9234C13.385 20.9234 13.3836 20.925 13.3823 20.9263C13.3133 20.9846 12.3378 21.8363 11.9547 22.5772C11.557 23.3445 10.3209 24.1135 10.3209 24.1139C10.3187 24.1139 10.3616 22.9394 10.8801 22.4005C11.4986 21.7503 13.3275 20.9477 13.3845 20.9238L13.385 20.9234Z"
    fill="#AFAFAF" />
  <path
    d="M14.8355 23.354C14.8355 23.354 14.8333 23.3549 14.8315 23.3549C14.735 23.3675 13.3463 23.5572 12.4611 23.9564C11.544 24.3707 10.027 24.343 10.027 24.3426C10.0257 24.3426 11.0405 23.422 11.8515 23.255C12.8252 23.0522 14.7744 23.3448 14.8359 23.354H14.8355Z"
    fill="#AFAFAF" />
  <path
    d="M10.3949 22.5937C10.3949 22.5937 10.394 22.5958 10.3931 22.5967C10.3356 22.6622 9.52995 23.6108 9.29857 24.3819C9.05702 25.1807 7.97977 26.0815 7.97977 26.0815C7.97755 26.0815 7.77626 24.9251 8.1846 24.3357C8.66992 23.6251 10.3418 22.6235 10.3949 22.5933V22.5937Z"
    fill="#AFAFAF" />
  <path
    d="M12.3417 24.8049C12.3417 24.8049 12.3395 24.8061 12.3377 24.8061C12.2435 24.8296 10.892 25.1784 10.0881 25.6742C9.2555 26.1884 7.73274 26.3407 7.7323 26.3403C7.73097 26.3403 8.55562 25.3174 9.33336 25.058C10.2673 24.744 12.2784 24.8023 12.3413 24.8044L12.3417 24.8049Z"
    fill="#AFAFAF" />
  <path
    d="M7.60076 24.7094C7.60076 24.7094 7.60076 24.7115 7.59987 24.7128C7.56315 24.7858 7.06589 25.8428 7.08403 26.6243C7.09995 27.4341 6.32707 28.4986 6.32752 28.499C6.32575 28.499 5.75283 27.4286 5.9674 26.7885C6.21736 26.0178 7.55696 24.748 7.60031 24.7094H7.60076Z"
    fill="#AFAFAF" />
  <path
    d="M10.2254 26.4656C10.2254 26.4656 10.2236 26.4673 10.2219 26.4677C10.136 26.5076 8.91056 27.0914 8.27616 27.7165C7.61919 28.3641 6.1681 28.794 6.1681 28.794C6.16589 28.794 6.64899 27.6594 7.33472 27.2661C8.15671 26.7909 10.1626 26.4748 10.2249 26.4656H10.2254Z"
    fill="#AFAFAF" />
  <path
    d="M5.58262 27.0772C5.58262 27.0772 5.58262 27.0793 5.58262 27.0806C5.55785 27.1561 5.23489 28.245 5.38487 29.0161C5.53617 29.8149 4.94202 30.9377 4.94291 30.9381C4.94114 30.9385 4.18728 29.9311 4.2939 29.2792C4.41423 28.4947 5.54546 27.1192 5.58307 27.0772H5.58262Z"
    fill="#AFAFAF" />
  <path
    d="M8.50408 28.5758C8.50408 28.5758 8.50275 28.5775 8.50098 28.5783C8.42179 28.6253 7.29056 29.3129 6.76012 29.9878C6.21021 30.6876 4.83212 31.2433 4.83168 31.2433C4.82947 31.2433 5.12145 30.0777 5.74259 29.6268C6.48583 29.0824 8.44302 28.5905 8.50408 28.5758Z"
    fill="#AFAFAF" />
  <path
    d="M4.05316 29.6607C4.05316 29.6607 4.05361 29.6628 4.05361 29.6641C4.04874 29.7413 4.01866 30.8487 4.37258 31.5773C4.73491 32.3329 4.44867 33.5175 4.45 33.5179C4.44867 33.5183 3.43247 32.6486 3.36301 31.9979C3.27011 31.2155 4.02573 29.7073 4.05316 29.6607Z"
    fill="#AFAFAF" />
  <path
    d="M7.34548 30.6828C7.34548 30.6828 7.34416 30.6845 7.34327 30.6857C7.27691 30.7432 6.33768 31.5815 5.99305 32.3198C5.63515 33.0842 4.42429 33.8326 4.42384 33.8331C4.42163 33.8331 4.39597 32.6523 4.89058 32.1196C5.48031 31.4774 7.28885 30.7063 7.34548 30.6832V30.6828Z"
    fill="#AFAFAF" />
  <path
    d="M3.18204 32.324C3.18204 32.324 3.18292 32.3257 3.18337 32.327C3.19797 32.4029 3.45102 33.4893 3.9881 34.1525C4.53889 34.8405 4.56057 36.0422 4.56234 36.0422C4.5619 36.0426 3.33511 35.3333 3.09842 34.7066C2.80423 33.9535 3.16655 32.3727 3.18248 32.3236L3.18204 32.324Z"
    fill="#AFAFAF" />
  <path
    d="M6.70052 32.8597C6.70052 32.8597 6.69964 32.8618 6.69875 32.8627C6.64743 32.9282 5.92985 33.881 5.77722 34.6525C5.61752 35.4517 4.6168 36.3559 4.6168 36.3559C4.61458 36.3559 4.28544 35.202 4.63803 34.6114C5.05566 33.8995 6.6492 32.89 6.70008 32.8597H6.70052Z"
    fill="#AFAFAF" />
  <path
    d="M3.14172 35.4261C3.14172 35.4261 3.14349 35.4278 3.14394 35.4287C3.18464 35.4988 3.81197 36.4944 4.56405 37.0304C5.33826 37.587 5.78022 38.7451 5.78244 38.7447C5.78244 38.7447 4.3486 38.296 3.89824 37.7382C3.34744 37.0686 3.14305 35.4761 3.14217 35.4261H3.14172Z"
    fill="#AFAFAF" />
  <path
    d="M6.74372 35.2567C6.74372 35.2567 6.74372 35.2588 6.74328 35.26C6.71541 35.3335 6.34822 36.3909 6.46988 37.1657C6.59286 37.9687 5.94474 39.0361 5.94518 39.0366C5.94342 39.037 5.2192 37.9842 5.35369 37.3462C5.5072 36.5776 6.70435 35.2957 6.74372 35.2567Z"
    fill="#AFAFAF" />
  <path
    d="M3.92249 38.0618C3.92249 38.0618 3.92426 38.0635 3.92514 38.0643C3.97159 38.1327 4.68209 39.1036 5.47975 39.6128C6.30129 40.1417 6.83837 41.2805 6.84059 41.2805C6.84059 41.2805 5.36738 40.88 4.87012 40.3394C4.26269 39.6905 3.92779 38.1118 3.92293 38.0618H3.92249Z"
    fill="#AFAFAF" />
  <path
    d="M7.522 37.7752C7.522 37.7752 7.522 37.7772 7.522 37.7785C7.49988 37.8524 7.21674 38.9173 7.40167 39.6855C7.58969 40.4813 7.02739 41.5655 7.02784 41.566C7.02607 41.5664 6.2147 40.5418 6.29743 39.9016C6.38856 39.1314 7.48528 37.8159 7.522 37.7756V37.7752Z"
    fill="#AFAFAF" />
  <path
    d="M5.4939 40.951C5.4939 40.951 5.49611 40.9523 5.49744 40.9531C5.56866 41.0089 6.62336 41.7943 7.57851 42.1192C8.56374 42.4575 9.51447 43.4494 9.51668 43.449C9.51668 43.449 7.96738 43.3675 7.28342 42.9495C6.45347 42.4487 5.51779 40.9976 5.4939 40.951Z"
    fill="#AFAFAF" />
  <path
    d="M8.02393 43.549C8.02393 43.549 8.02614 43.5498 8.02791 43.5506C8.11196 43.596 9.34583 44.2319 10.3616 44.4284C11.4105 44.6332 12.5913 45.4916 12.5926 45.4912C12.5926 45.4912 11.0628 45.6108 10.2877 45.2872C9.34937 44.9002 8.05932 43.5914 8.02393 43.5494V43.549Z"
    fill="#AFAFAF" />
  <path
    d="M8.81146 39.9156C8.81146 39.9156 8.81234 39.9172 8.81234 39.9189C8.81898 39.9949 8.95789 41.0825 9.4295 41.7872C9.91349 42.518 9.80245 43.6866 9.80421 43.6866C9.80333 43.6871 8.63582 42.8627 8.46594 42.2267C8.25182 41.4623 8.79111 39.9617 8.8119 39.9156H8.81146Z"
    fill="#AFAFAF" />
  <path
    d="M10.8549 42.3258C10.8549 42.3258 10.8562 42.3275 10.8566 42.3283C10.8801 42.393 11.2508 43.3152 11.8158 43.8693C12.3971 44.4443 12.5705 45.4698 12.5718 45.4698C12.5714 45.4698 11.388 44.8926 11.0951 44.3633C10.7354 43.7274 10.8478 42.3678 10.8549 42.3254V42.3258Z"
    fill="#AFAFAF" />
  <path
    d="M18.0349 20.9234C18.0349 20.9234 18.0362 20.925 18.0376 20.9263C18.1066 20.9846 19.0821 21.8363 19.4652 22.5772C19.8629 23.3445 21.099 24.1135 21.099 24.1135C21.1012 24.1135 21.0583 22.939 20.5398 22.4001C19.9213 21.7499 18.0924 20.9473 18.0354 20.9234H18.0349Z"
    fill="#AFAFAF" />
  <path
    d="M16.5847 23.354C16.5847 23.354 16.5869 23.3549 16.5887 23.3549C16.6851 23.3675 18.0738 23.5572 18.9591 23.9564C19.8762 24.3707 21.3932 24.343 21.3932 24.3426C21.3945 24.3426 20.3797 23.422 19.5687 23.255C18.595 23.0522 16.6458 23.3448 16.5847 23.354Z"
    fill="#AFAFAF" />
  <path
    d="M21.0254 22.5937C21.0254 22.5937 21.0263 22.5958 21.0272 22.5967C21.0847 22.6622 21.8903 23.6108 22.1217 24.3819C22.3632 25.1807 23.4405 26.0815 23.4405 26.0815C23.4427 26.0815 23.644 24.9251 23.2356 24.3357C22.7503 23.6251 21.0785 22.6235 21.0254 22.5933V22.5937Z"
    fill="#AFAFAF" />
  <path
    d="M19.0789 24.8049C19.0789 24.8049 19.0811 24.8061 19.0828 24.8061C19.1771 24.8296 20.5286 25.1784 21.3325 25.6742C22.1651 26.1884 23.6878 26.3407 23.6883 26.3403C23.6896 26.3403 22.865 25.3174 22.0872 25.058C21.1533 24.744 19.1421 24.8023 19.0793 24.8044L19.0789 24.8049Z"
    fill="#AFAFAF" />
  <path
    d="M23.819 24.7096C23.819 24.7096 23.819 24.7117 23.8199 24.7129C23.8566 24.786 24.3538 25.8429 24.3357 26.6245C24.3198 27.4342 25.0927 28.4987 25.0922 28.4991C25.094 28.4991 25.6669 27.4287 25.4523 26.7886C25.2024 26.0179 23.8632 24.7482 23.8194 24.7096H23.819Z"
    fill="#AFAFAF" />
  <path
    d="M21.1946 26.4656C21.1946 26.4656 21.1964 26.4673 21.1981 26.4677C21.2839 26.5076 22.5094 27.0914 23.1438 27.7165C23.8008 28.3641 25.2519 28.794 25.2523 28.794C25.2545 28.794 24.771 27.6594 24.0853 27.2661C23.2633 26.7909 21.2574 26.4748 21.195 26.4656H21.1946Z"
    fill="#AFAFAF" />
  <path
    d="M25.838 27.077C25.838 27.077 25.838 27.0791 25.838 27.0803C25.8627 27.1559 26.1857 28.2447 26.0357 29.0158C25.8844 29.8146 26.4786 30.9375 26.4777 30.9379C26.4795 30.9383 27.2333 29.9309 27.1267 29.279C27.0064 28.4945 25.8751 27.119 25.8375 27.077H25.838Z"
    fill="#AFAFAF" />
  <path
    d="M22.916 28.5758C22.916 28.5758 22.9173 28.5775 22.9191 28.5783C22.9983 28.6253 24.1295 29.3129 24.66 29.9878C25.2099 30.6876 26.588 31.2433 26.5884 31.2433C26.5906 31.2433 26.2986 30.0777 25.6775 29.6268C24.9343 29.0824 22.9771 28.5905 22.916 28.5758Z"
    fill="#AFAFAF" />
  <path
    d="M27.3673 29.6606C27.3673 29.6606 27.3669 29.6627 27.3669 29.6639C27.3717 29.7412 27.4018 30.8485 27.0479 31.5772C26.6856 32.3327 26.9718 33.5173 26.9705 33.5177C26.9718 33.5181 27.988 32.6484 28.0575 31.9978C28.1504 31.2153 27.3947 29.7071 27.3673 29.6606Z"
    fill="#AFAFAF" />
  <path
    d="M24.075 30.6828C24.075 30.6828 24.0763 30.6845 24.0772 30.6857C24.1435 30.7432 25.0827 31.5815 25.4274 32.3198C25.7853 33.0842 26.9961 33.8326 26.9966 33.8331C26.9988 33.8331 27.0245 32.6523 26.5299 32.1196C25.9401 31.4774 24.1316 30.7063 24.075 30.6832V30.6828Z"
    fill="#AFAFAF" />
  <path
    d="M28.2385 32.3241C28.2385 32.3241 28.2371 32.3258 28.2371 32.327C28.2225 32.403 27.9695 33.4893 27.4324 34.1526C26.8816 34.8405 26.8599 36.0423 26.8582 36.0423C26.8586 36.0427 28.0854 35.3333 28.3221 34.7066C28.6163 33.9536 28.2539 32.3728 28.238 32.3237L28.2385 32.3241Z"
    fill="#AFAFAF" />
  <path
    d="M24.72 32.8597C24.72 32.8597 24.7209 32.8618 24.7217 32.8627C24.7731 32.9282 25.4906 33.881 25.6433 34.6525C25.803 35.4517 26.8037 36.3559 26.8037 36.3559C26.8059 36.3559 27.1351 35.202 26.7825 34.6114C26.3648 33.8995 24.7713 32.89 24.7204 32.8597H24.72Z"
    fill="#AFAFAF" />
  <path
    d="M28.2783 35.4261C28.2783 35.4261 28.2765 35.4278 28.2761 35.4287C28.2354 35.4988 27.608 36.4944 26.856 37.0304C26.0817 37.587 25.6398 38.7451 25.6376 38.7447C25.6376 38.7447 27.0714 38.296 27.5218 37.7382C28.0726 37.0686 28.277 35.4761 28.2783 35.4261Z"
    fill="#AFAFAF" />
  <path
    d="M24.676 35.2569C24.676 35.2569 24.676 35.259 24.6765 35.2603C24.7043 35.3337 25.0715 36.3911 24.9499 37.1659C24.8269 37.9689 25.475 39.0364 25.4746 39.0368C25.4763 39.0372 26.2006 37.9845 26.0661 37.3464C25.9125 36.5779 24.7154 35.2959 24.676 35.2569Z"
    fill="#AFAFAF" />
  <path
    d="M27.4981 38.0618C27.4981 38.0618 27.4963 38.0635 27.4954 38.0643C27.4489 38.1327 26.7384 39.1036 25.9408 39.6128C25.1192 40.1417 24.5822 41.2805 24.58 41.2805C24.58 41.2805 26.0532 40.88 26.5504 40.3394C27.1578 39.6905 27.4927 38.1118 27.4976 38.0618H27.4981Z"
    fill="#AFAFAF" />
  <path
    d="M23.8989 37.7749C23.8989 37.7749 23.8989 37.777 23.8989 37.7783C23.921 37.8522 24.2041 38.9171 24.0192 39.6852C23.8312 40.4811 24.3935 41.5653 24.3926 41.5657C24.3944 41.5662 25.2057 40.5415 25.123 39.9014C25.0319 39.1312 23.9352 37.8156 23.8984 37.7753L23.8989 37.7749Z"
    fill="#AFAFAF" />
  <path
    d="M25.9266 40.951C25.9266 40.951 25.9244 40.9523 25.9231 40.9531C25.8523 41.0089 24.7971 41.7943 23.842 42.1192C22.8567 42.4575 21.906 43.4494 21.9038 43.449C21.9038 43.449 23.4531 43.3675 24.1371 42.9495C24.967 42.4487 25.9027 40.9976 25.9266 40.951Z"
    fill="#AFAFAF" />
  <path
    d="M23.3971 43.549C23.3971 43.549 23.3949 43.5498 23.3931 43.5506C23.309 43.596 22.0752 44.2319 21.0594 44.4284C20.0105 44.6332 18.8297 45.4916 18.8284 45.4912C18.8284 45.4912 20.3582 45.6108 21.1333 45.2872C22.0716 44.9002 23.3617 43.5914 23.3971 43.5494V43.549Z"
    fill="#AFAFAF" />
  <path
    d="M22.6087 39.9156C22.6087 39.9156 22.6078 39.9172 22.6078 39.9189C22.6012 39.9949 22.4623 41.0825 21.9907 41.7872C21.5067 42.518 21.6177 43.6866 21.6164 43.6866C21.6173 43.6871 22.7848 42.8627 22.9547 42.2267C23.1688 41.4623 22.6295 39.9617 22.6087 39.9156Z"
    fill="#AFAFAF" />
  <path
    d="M20.5656 42.3258C20.5656 42.3258 20.5643 42.3275 20.5643 42.3283C20.5409 42.393 20.1701 43.3152 19.6052 43.8693C19.0239 44.4443 18.8504 45.4698 18.8491 45.4698C18.8496 45.4698 20.033 44.8926 20.3259 44.3633C20.6855 43.7274 20.5732 42.3678 20.5661 42.3254L20.5656 42.3258Z"
    fill="#AFAFAF" />
  <path
    d="M15.7468 46.6947C14.3568 46.6947 13.3879 46.2117 13.3879 45.7783C13.3879 45.3448 14.3568 44.8618 15.7468 44.8618C17.1369 44.8618 18.1057 45.3448 18.1057 45.7783C18.1057 46.2117 17.1369 46.6947 15.7468 46.6947Z"
    fill="#AFAFAF" />
</svg>