<svg width="380" height="285" viewBox="0 0 380 285" fill="none" xmlns="http://www.w3.org/2000/svg">
  <path fill-rule="evenodd" clip-rule="evenodd"
    d="M255.946 138.181H281.963C290.505 138.181 299.126 138.181 307.668 138.023H333.529V137.238H307.668H255.867C237.138 137.238 229.066 135.667 219.192 118.699C212.26 106.754 207.341 93.3354 202.588 80.3701L202.588 80.3697L202.499 80.1284C201.584 77.5072 200.56 74.7768 199.563 72.1194L199.562 72.1155C199.364 71.5885 199.167 71.0645 198.973 70.5447C198.307 68.7374 197.64 66.9105 196.974 65.0836C196.308 63.2577 195.642 61.4318 194.976 59.6255L194.882 59.3658L194.882 59.3655C190.209 46.4844 185.372 33.1486 178.833 20.8978C171.78 7.54348 165.04 0.944852 157.752 0.0807462C151.169 -0.626249 144.195 3.3015 136.436 12.1782C123.337 27.1736 114.071 46.4723 105.075 65.21L105.074 65.2102L105.074 65.2103L104.776 65.8313C91.689 93.2471 78.1316 121.527 52.584 137.081L52.9759 137.788C78.6801 122.077 92.3159 93.7184 105.482 66.2241L105.789 65.587L105.789 65.5869C114.783 46.9327 124.046 27.7194 137.063 12.8067C144.587 4.16561 151.404 0.316415 157.674 1.02341C164.648 1.80896 171.153 8.25047 178.127 21.3692C184.632 33.7023 189.569 47.0567 194.271 60.0183C195.176 62.6264 196.163 65.2755 197.143 67.9065L197.143 67.9075C197.521 68.9213 197.897 69.9324 198.268 70.9374C198.855 72.5085 199.443 74.1189 200.031 75.7293C200.619 77.3397 201.206 78.95 201.794 80.5211C206.575 93.6398 211.512 107.151 218.565 119.249C228.596 136.452 237.216 138.181 255.946 138.181ZM221.072 127.654C230.633 141.873 239.253 142.737 252.889 142.737C253.83 142.737 254.77 142.737 255.632 142.894H258.688H334.939V142.108H258.688H255.632C240.664 142.187 231.652 142.187 221.699 127.419C213.236 114.771 207.75 99.6886 202.499 85.1559C201.324 81.8566 200.07 78.4787 198.816 75.1794C198.15 73.3729 197.484 71.5467 196.818 69.7205L196.817 69.7184L196.814 69.7089L196.814 69.7078C196.149 67.8854 195.484 66.0631 194.82 64.2603L194.743 64.0516C189.438 49.5055 183.967 34.5032 176.012 21.2906C169.664 10.6071 163.238 5.26538 156.42 4.87261C149.132 4.40128 141.217 9.82158 132.205 21.3692C121.468 35.1163 113.005 52.3984 104.855 69.1307L104.697 69.4516C90.8756 97.6314 76.6228 126.69 50.7816 141.794L51.1734 142.501C77.307 127.207 91.6441 97.8951 105.495 69.578L105.56 69.4449C113.71 52.7126 122.174 35.4305 132.832 21.7619C141.687 10.3715 149.367 5.10827 156.42 5.50105C162.924 5.89382 169.115 11.157 175.385 21.5263C183.089 34.2456 188.39 48.7162 193.535 62.7579L193.535 62.7581L193.758 63.3662L194.114 64.3388C195.019 66.9473 196.006 69.5968 196.986 72.2281L196.99 72.2394C197.367 73.2494 197.742 74.2567 198.111 75.258C199.365 78.4787 200.619 81.9351 201.794 85.2345L202.16 86.2377L202.16 86.2378C207.372 100.534 212.726 115.219 221.072 127.654ZM253.673 147.372C239.802 147.372 231.025 146.586 221.386 132.21C212.766 119.484 207.201 104.323 201.873 89.7121C201.246 88.0626 200.619 86.3739 199.992 84.6852C199.365 82.9961 198.738 81.3069 198.111 79.657C196.999 76.8093 195.936 73.9128 194.884 71.0444C194.601 70.273 194.318 69.5037 194.036 68.7379L193.947 68.4973C188.567 53.9612 183.02 38.9716 174.993 25.8468C168.723 15.5561 162.454 10.3715 155.871 9.97869C148.74 9.58591 140.903 14.9277 131.969 26.3967C121.409 39.8629 113.002 56.8771 104.844 73.3886L104.844 73.3887L104.62 73.844C90.5135 102.359 75.9373 131.818 49.5277 146.979L49.1359 146.272C75.1499 131.36 89.6301 102.248 103.655 74.0513L103.914 73.5297C112.143 56.8761 120.685 39.594 131.343 25.9254C140.59 14.2207 148.426 8.87892 155.95 9.35025C162.768 9.74303 169.272 15.0848 175.698 25.6111C183.804 38.8152 189.352 53.8065 194.732 68.3438L194.82 68.5808C195.102 69.3468 195.384 70.1163 195.667 70.8878L195.668 70.888L195.668 70.8896L195.669 70.8908L195.669 70.8917L195.669 70.8926L195.67 70.8935L195.67 70.8943L195.67 70.8948L195.67 70.8953L195.67 70.8958L195.671 70.8963L195.671 70.8968L195.671 70.8973L195.671 70.8979L195.671 70.8984L195.672 70.8989L195.672 70.8994L195.672 70.8999L195.672 70.9004L195.672 70.9009L195.672 70.9014C196.723 73.7651 197.785 76.6569 198.895 79.4999C200.148 82.7992 201.402 86.1771 202.656 89.555C207.985 104.166 213.549 119.249 222.091 131.896C232.122 146.743 241.291 146.743 256.416 146.665H259.394H336.507V147.45H259.394H256.416C255.475 147.372 254.613 147.372 253.673 147.372ZM221.621 136.924C231.417 151.378 240.351 152.163 254.457 152.163C255.319 152.163 256.259 152.163 257.121 152.085H260.021H337.995V151.299H260.021H257.121C241.761 151.378 232.514 151.378 222.326 136.452C213.814 123.963 208.205 109.023 202.784 94.5815L202.578 94.0326C201.591 91.2632 200.494 88.3832 199.426 85.5782L199.425 85.5765L199.425 85.5763L199.267 85.1619L199.064 84.6284L198.816 83.9776C197.858 81.3777 196.859 78.7371 195.877 76.1436L195.876 76.1393L195.875 76.1376L195.874 76.1353C195.493 75.127 195.114 74.1258 194.741 73.137C189.256 58.5257 183.535 43.3646 175.306 30.0888C168.802 19.7195 162.297 14.4563 155.401 14.0636C147.8 13.6708 139.885 19.0125 130.481 30.9529C119.954 44.2775 111.537 61.0758 103.382 77.3496L102.895 78.3216C88.7111 106.837 73.9781 136.374 47.4902 151.142L47.882 151.849C74.5267 136.924 89.338 107.308 103.601 78.6358L103.855 78.1283C112.082 61.7116 120.558 44.7978 131.107 31.4242C140.276 19.7195 148.035 14.4563 155.323 14.8491C161.906 15.2419 168.253 20.348 174.601 30.5601C182.709 43.4872 188.307 58.3976 193.717 72.8108L193.958 73.4512C194.417 74.669 194.875 75.9148 195.338 77.1694C196.217 79.5563 197.108 81.9747 198.033 84.2918C198.66 85.9415 199.286 87.6304 199.913 89.3193C200.54 91.0083 201.167 92.6972 201.794 94.3468L201.874 94.5601C207.335 109.183 212.964 124.259 221.621 136.924ZM339.563 157.034H258.532C241.761 157.034 232.514 156.327 221.778 141.009C213.129 128.668 207.502 113.921 202.046 99.6231L201.951 99.3744C201.507 98.222 201.063 97.061 200.618 95.8999L200.617 95.8967L200.617 95.8965C199.73 93.5761 198.842 91.2557 197.954 89.0051C196.387 84.9202 194.82 80.8354 193.174 76.5148C187.296 60.7253 181.184 44.3073 171.545 31.2671C165.902 23.6473 160.26 19.9552 154.226 19.8766H154.147C143.881 19.8766 134.399 30.8743 127.189 40.4581C117.785 52.9483 110.184 68.0309 102.19 83.9776L102.09 84.1753C87.6236 112.865 72.6632 142.534 46.0796 156.798L45.6878 156.091C72.0973 141.873 87.0654 112.257 101.485 83.5848L101.741 83.0796C109.717 67.3197 117.258 52.4227 126.562 39.9867C133.85 30.2459 143.568 19.0911 154.147 19.0911H154.226C160.495 19.0911 166.372 22.9403 172.172 30.7958C181.889 43.9145 188.002 60.3325 193.879 76.2006C194.393 77.5508 194.892 78.8856 195.386 80.2051L195.386 80.2066L195.386 80.2071C196.471 83.1093 197.528 85.9372 198.66 88.6909C199.548 90.943 200.436 93.2649 201.324 95.5869C201.768 96.7475 202.212 97.9082 202.656 99.0602C208.064 113.357 213.706 128.204 222.405 140.537C232.984 155.541 242.075 156.248 258.532 156.248H339.563V157.034ZM259.159 161.904H341.13V161.04H259.159C242.545 161.04 233.376 160.333 222.64 145.251C213.863 132.917 208.142 118.07 202.656 103.695C201.664 101.121 200.629 98.5042 199.615 95.9408C199.267 95.0615 198.921 94.1884 198.581 93.3256C197.014 89.3193 195.446 85.2345 193.801 80.9139L193.513 80.1538C187.569 64.4417 181.419 48.185 171.701 35.352C165.981 27.7321 159.946 23.8829 153.677 23.8829C142.941 23.8829 133.067 35.0378 125.7 44.8571C116.218 57.426 108.538 72.43 100.466 88.3766L100.354 88.5969C85.7342 117.28 70.6185 146.936 43.9637 160.883L44.3555 161.59C71.2214 147.457 86.4227 117.63 101.148 88.7359L101.171 88.6909C109.243 72.8227 116.923 57.8187 126.327 45.3285C133.615 35.7448 143.333 24.6685 153.677 24.6685C159.711 24.6685 165.432 28.3606 171.074 35.8233C180.827 48.728 187.007 65.0587 193.016 80.9394L193.016 80.9396L193.016 80.9399L193.095 81.1496C193.385 81.9232 193.669 82.6871 193.951 83.4426L193.951 83.444L193.952 83.4469L193.953 83.4471L193.953 83.4473L193.953 83.4483C195.271 86.9866 196.52 90.3399 197.876 93.6398C199.034 96.4134 200.139 99.2929 201.235 102.148L201.236 102.148L201.236 102.149L201.236 102.149L201.236 102.149L201.236 102.15L201.237 102.151C201.475 102.772 201.713 103.392 201.951 104.009L202.18 104.601L202.18 104.602C207.673 118.794 213.356 133.481 222.013 145.722C232.906 161.197 242.231 161.904 259.159 161.904ZM342.619 166.696H259.786C242.78 166.696 233.376 165.989 222.248 150.435C213.392 137.945 207.515 123.098 201.951 108.644C200.96 106.072 199.925 103.456 198.911 100.894L198.91 100.891L198.91 100.891L198.91 100.891L198.91 100.89L198.91 100.89L198.91 100.89L198.91 100.89L198.91 100.89L198.909 100.89L198.909 100.89L198.909 100.889C198.561 100.01 198.216 99.137 197.876 98.2746C196.23 94.2683 194.663 90.1834 193.017 85.8629C186.905 69.8377 180.557 53.3411 170.604 40.3795C164.962 33.0739 159.241 29.4603 153.207 29.4603H153.128C142.627 29.4603 132.832 40.6152 125.465 50.2774C117.772 60.3475 111.265 72.0723 104.731 84.6127C111.621 72.8438 118.934 61.2011 127.346 50.5131C136.436 38.887 144.273 33.5452 151.953 33.4667C158.457 33.4667 164.727 37.3159 170.996 45.407C181.149 58.3031 187.546 74.6565 193.75 90.5162L193.958 91.0475C194.691 92.8866 195.391 94.6912 196.08 96.4695L196.08 96.4702C196.863 98.4896 197.633 100.475 198.424 102.438C199.678 105.423 200.854 108.408 202.029 111.472L202.346 112.265C207.889 126.16 213.626 140.539 221.778 153.027C231.574 168.11 240.507 170.545 258.218 170.624C277.261 170.702 296.696 170.702 315.426 170.624H344.03V171.409H315.426H286.9C277.34 171.409 267.779 171.409 258.218 171.331C240.586 171.252 231.103 168.66 221.151 153.342C212.844 140.537 206.966 125.847 201.324 111.707C200.637 109.917 199.923 108.154 199.214 106.402L199.213 106.399C198.709 105.154 198.207 103.914 197.719 102.674C196.23 98.9816 194.741 95.2109 193.252 91.2832L193.22 91.2015C187.039 75.2799 180.618 58.7394 170.448 45.8784C164.257 38.1014 158.222 34.2522 152.031 34.2522C144.587 34.2522 136.985 39.5939 128.051 50.9844C116.164 66.0884 106.471 83.0991 97.0639 99.6074L96.3536 100.854C89.8209 113.447 83.0066 125.96 74.9966 136.995C66.2031 150.797 56.121 163.703 40.9074 171.174L40.5939 170.467C52.3 164.744 60.9515 155.665 68.3465 145.446C60.9861 154.026 52.5984 161.286 42.6315 166.382L42.2396 165.675C55.5082 158.87 65.967 148.183 74.943 135.637C77.0342 132.336 79.0593 128.992 81.071 125.671L81.0714 125.67L81.0733 125.667L81.0738 125.666L81.0757 125.663L81.0762 125.662L81.0766 125.661L81.3446 125.219L82.5201 123.255C86.9086 115.949 91.2188 108.33 95.3722 100.945L95.5487 100.634C96.8441 98.1441 98.1288 95.6499 99.4099 93.1625L99.4114 93.1597L99.4128 93.1569L99.4473 93.09C107.597 77.2218 115.356 62.2178 124.838 49.7276C132.361 39.9082 142.314 28.5962 153.128 28.5962C159.319 28.5962 165.432 32.3669 171.231 39.7511C181.153 52.649 187.471 69.0051 193.598 84.867L193.801 85.3915C195.446 89.7121 197.014 93.7969 198.66 97.8033C199.578 100.002 200.462 102.3 201.336 104.568L201.336 104.569L201.337 104.573L201.338 104.575L201.339 104.578L201.341 104.581L201.342 104.584L201.343 104.587C201.809 105.797 202.272 106.999 202.735 108.173L203.165 109.268C208.669 123.3 214.323 137.71 222.953 149.807C233.846 165.046 243.093 165.753 259.864 165.753H342.697V166.696H342.619ZM287.841 176.201H258.845C241.134 176.123 231.495 173.53 221.386 158.134C213.001 145.329 207.045 130.639 201.324 116.421C200.856 115.277 200.399 114.145 199.944 113.019L199.944 113.017L199.943 113.016L199.943 113.014L199.942 113.013L199.942 113.011L199.94 113.008L199.939 113.005L199.937 113.001L199.936 112.998L199.935 112.994L199.934 112.992L199.933 112.991L199.933 112.991L199.933 112.99L199.933 112.99L199.933 112.99L199.933 112.99C199.174 111.11 198.423 109.248 197.641 107.387C196.152 103.695 194.663 100.003 193.095 96.0751C186.826 80.0498 180.243 63.4747 169.899 50.5917C163.708 42.8933 157.674 39.1226 151.404 39.1226H151.326C143.803 39.1226 136.123 44.5429 127.032 56.012C114.729 71.6444 104.62 89.2408 94.902 106.287L93.8506 108.122C89.945 114.941 85.9129 121.98 81.8148 128.754L80.7177 130.561C69.9031 148.314 58.6966 166.696 39.1833 176.044L38.8699 175.337C58.1156 166.083 69.2386 147.904 80.0361 130.257L80.0907 130.168L81.1879 128.361C85.6548 120.977 90.0433 113.357 94.2751 105.894C103.993 88.848 114.102 71.1731 126.484 55.5406C135.653 43.8359 143.568 38.4156 151.404 38.4156H151.483C157.987 38.4156 164.257 42.2648 170.604 50.1203C181.027 63.0819 187.61 79.7356 193.879 95.8394C194.333 96.9758 194.773 98.0926 195.208 99.1953L195.208 99.1968L195.209 99.197L195.209 99.1972L195.209 99.1975L195.209 99.1977L195.209 99.1989L195.21 99.2018L195.212 99.2052L195.212 99.2055L195.212 99.2057L195.212 99.206L195.213 99.2071L195.214 99.2101C196.28 101.913 197.313 104.532 198.424 107.151C199.051 108.644 199.659 110.156 200.266 111.668C200.873 113.18 201.481 114.693 202.108 116.185C207.828 130.404 213.784 145.015 222.091 157.819C232.044 172.98 241.056 175.494 258.845 175.494C271.732 175.547 284.76 175.529 297.646 175.512H297.649H297.652H297.654H297.657H297.66H297.663H297.666H297.669H297.671H297.674H297.677H297.68H297.682H297.685H297.688H297.691H297.694C304.068 175.503 310.408 175.494 316.68 175.494H345.597V176.28H316.68C307.197 176.201 297.558 176.201 287.841 176.201ZM259.55 181.622H288.86H288.865C298.659 181.622 308.453 181.622 318.09 181.7H347.321V180.915H318.09C311.735 180.915 305.311 180.923 298.852 180.932H298.85H298.848H298.846H298.844H298.842H298.84H298.839H298.837H298.835H298.833H298.831H298.829H298.827H298.825H298.823H298.821C285.778 180.949 272.594 180.967 259.55 180.915C241.996 180.915 232.436 178.322 222.405 163.161C213.941 150.357 207.907 135.667 202.108 121.448L202.104 121.439L202.103 121.438C200.851 118.378 199.599 115.318 198.346 112.336C196.857 108.722 195.368 105.03 193.801 101.103C187.375 84.9202 180.714 68.2665 170.056 55.305C163.63 47.528 157.36 43.7574 150.856 43.7574H150.699C142.784 43.8359 134.791 49.3348 125.465 61.0395C113.296 76.3067 103.369 93.4471 93.7139 110.119L93.7138 110.119L93.7138 110.119L93.7137 110.119L93.7137 110.119L93.7136 110.119L93.7136 110.119L93.7135 110.119L93.7135 110.12L93.7135 110.12L93.7134 110.12L93.7134 110.12L93.7133 110.12L93.7133 110.12L93.7132 110.12L93.7131 110.12L93.0212 111.315C88.7111 118.777 84.2442 126.476 79.6989 133.939L78.6801 135.667C67.7872 153.42 56.5024 171.724 36.9891 180.836L37.3025 181.543C57.0509 172.273 68.4141 153.892 79.3854 136.06L80.4042 134.331C84.9495 126.869 89.4164 119.17 93.7265 111.708C103.522 94.6611 113.71 77.0647 126.092 61.5108C135.261 50.0418 143.098 44.6215 150.699 44.5429H150.856C157.125 44.5429 163.238 48.235 169.429 55.7763C179.93 68.5808 186.591 85.2345 193.017 101.338C193.412 102.328 193.797 103.303 194.177 104.265L194.181 104.276L194.182 104.278L194.183 104.279L194.183 104.28L194.183 104.281L194.185 104.284C195.31 107.134 196.393 109.875 197.562 112.572C198.189 114.104 198.816 115.616 199.443 117.128C200.07 118.64 200.697 120.152 201.324 121.684L201.7 122.593C207.46 136.531 213.416 150.944 221.699 163.475C231.965 178.951 241.683 181.543 259.55 181.622ZM348.967 187.356H262.528C243.015 187.356 232.436 184.528 221.307 167.717C213.267 155.666 207.471 141.814 201.873 128.434L201.481 127.497L197.484 118.07C195.917 114.457 194.349 110.686 192.86 107.073L192.551 106.324C186.379 91.3957 180.009 75.9888 170.683 63.3176C164.257 54.598 157.83 50.2774 151.013 50.1203H150.699C142.236 50.1203 133.458 56.4833 122.252 70.7018C111.271 84.6137 102.145 100.311 93.2861 115.549L92.551 116.814C91.8635 117.99 91.1723 119.178 90.4775 120.372L90.4742 120.377L90.4728 120.38L90.4719 120.381C87.9219 124.763 85.3235 129.227 82.6768 133.546C81.7364 135.117 80.796 136.688 79.7773 138.338C68.179 157.741 56.1889 177.772 35.0299 187.199L34.7164 186.492C55.562 177.144 67.5521 157.191 79.072 137.945C79.3265 137.52 79.581 137.089 79.8371 136.655L79.8383 136.653C80.5279 135.485 81.2289 134.298 81.9715 133.153C84.6178 128.835 87.2156 124.371 89.7652 119.991L89.7661 119.989L89.7666 119.988L89.7676 119.987L89.7682 119.986L89.7688 119.985L89.7693 119.984L89.7727 119.978L89.7952 119.939L89.8003 119.931C90.4856 118.753 91.1674 117.582 91.8457 116.421L91.9043 116.32L91.9045 116.32C100.977 100.719 110.365 84.5751 121.625 70.2304C133.067 55.6192 142.157 49.2562 150.934 49.3348C157.987 49.4133 164.57 53.891 171.153 62.8463C180.714 75.8078 187.218 91.5974 193.409 106.837C194.898 110.451 196.465 114.221 198.033 117.835L202.029 127.261L202.253 127.797C207.904 141.299 213.734 155.23 221.778 167.325C232.749 183.821 243.172 186.57 262.372 186.57H348.967V187.356ZM263.312 193.012H350.926V192.148H263.312C243.955 192.148 233.376 189.398 222.248 172.823C214.055 160.659 208.148 146.737 202.424 133.243L202.186 132.682C201.52 131.111 200.834 129.52 200.149 127.929L200.146 127.923L200.144 127.919L200.144 127.918L200.143 127.918L200.143 127.917L200.143 127.917L200.143 127.916L200.143 127.916L200.142 127.915L200.142 127.915L200.142 127.914L200.142 127.914L200.141 127.913L200.141 127.913C199.458 126.327 198.775 124.742 198.111 123.177C196.544 119.642 194.976 115.871 193.487 112.257C187.14 97.0177 180.557 81.2281 170.839 68.2665C164.178 59.4684 157.439 55.0693 150.386 54.9907H150.151C141.295 54.9907 132.205 61.5108 120.685 76.0435C109.356 90.3749 99.8974 106.502 90.7548 122.09L90.6702 122.234C89.3611 124.421 88.0395 126.646 86.7105 128.883L86.7084 128.886C84.6968 132.272 82.6681 135.687 80.6393 139.045C79.6989 140.537 78.7585 142.108 77.8181 143.679C66.0631 163.083 53.9163 183.036 32.8356 192.226L33.1491 192.933C54.4648 183.664 66.69 163.554 78.445 144.072C78.9152 143.287 79.3854 142.521 79.8555 141.755L79.8566 141.753C80.3265 140.988 80.7964 140.222 81.2662 139.437C84.185 134.607 87.1037 129.658 89.9715 124.795L89.9732 124.792C90.4158 124.042 90.8572 123.294 91.2972 122.548L91.8114 121.676C100.821 106.39 110.161 90.5448 121.312 76.5148C132.596 62.2178 141.53 55.7763 150.151 55.7763H150.386C157.204 55.8549 163.708 60.0968 170.212 68.7379C179.852 81.6209 186.434 97.3319 192.782 112.572C194.271 116.264 195.838 119.956 197.406 123.569C198.553 126.062 199.649 128.659 200.735 131.232L201.093 132.079C201.222 132.386 201.352 132.691 201.481 132.996C207.28 146.743 213.314 160.883 221.621 173.295C232.984 190.184 243.642 193.012 263.312 193.012ZM352.728 198.825H261.98C242.545 198.825 232.592 195.919 221.151 178.087C213.006 165.369 206.818 151.004 200.866 137.187L200.854 137.159C200.266 135.824 199.678 134.469 199.09 133.113C198.503 131.758 197.915 130.403 197.327 129.068C196.358 126.91 195.426 124.677 194.506 122.472L194.506 122.471L194.505 122.471L194.504 122.467L194.502 122.462L194.5 122.458L194.498 122.454L194.496 122.449L194.494 122.445L194.493 122.441L194.491 122.436L194.487 122.426L194.48 122.411C194.069 121.427 193.661 120.448 193.252 119.484L192.912 118.688C186.436 103.539 179.757 87.9135 169.899 74.9437C163.081 65.9884 156.42 61.5894 149.602 61.3537H149.132C141.138 61.3537 132.832 66.9311 122.252 79.3428C109.89 93.8522 99.9494 110.946 90.3248 127.496L90.3247 127.496L90.2784 127.576C86.4384 134.174 82.4417 140.93 78.445 147.45L76.094 151.221L75.8165 151.668C64.1486 170.461 52.1041 189.86 31.1116 198.589L30.7981 197.882C51.722 189.241 63.7905 169.681 75.3887 150.828L77.7397 147.057C81.7365 140.616 85.7331 133.781 89.5731 127.183C99.2122 110.608 109.243 93.4827 121.625 78.8715C132.518 65.9884 141.138 60.3325 149.524 60.6467C156.655 60.8038 163.473 65.36 170.448 74.5509C180.478 87.7482 187.296 103.773 193.879 119.249C194.545 120.82 195.231 122.43 195.916 124.04C196.602 125.651 197.288 127.261 197.954 128.833C199.13 131.503 200.305 134.174 201.481 136.924L201.564 137.116C207.493 150.881 213.587 165.027 221.699 177.694C232.906 195.212 242.702 198.04 261.901 198.04H352.728V198.825ZM262.685 204.56H354.531V203.853H262.685C243.407 203.853 233.454 201.025 222.091 183.428C213.863 170.702 207.593 156.405 201.559 142.58C200.598 140.533 199.683 138.44 198.779 136.371C198.504 135.741 198.229 135.113 197.954 134.488C196.544 131.346 195.133 128.126 193.801 124.983L193.594 124.506C186.92 109.102 180.06 93.2692 169.899 80.2069C162.924 71.1731 156.028 66.6954 148.818 66.5383C140.355 66.3027 131.578 71.9586 120.528 84.9202C108.262 99.1368 98.3959 115.834 88.8021 132.071L88.1625 133.153C84.3225 139.752 80.2475 146.586 76.1724 153.106C75.6646 154.011 75.1161 154.875 74.5563 155.757C74.3386 156.1 74.1192 156.446 73.8998 156.798L73.7838 156.983C61.9864 175.779 49.7721 195.24 28.6822 203.774L28.9957 204.481C50.2435 195.946 62.5365 176.327 74.4128 157.373L74.5267 157.191C75.232 155.934 76.0157 154.677 76.7993 153.499C80.3233 147.967 83.7345 142.209 87.0807 136.56L87.0872 136.549L87.0876 136.548L87.088 136.548L87.0885 136.547L87.0889 136.546L87.0893 136.546L87.0898 136.545C87.6844 135.541 88.277 134.541 88.8678 133.546L89.1905 133L89.1906 133C98.8842 116.597 108.831 99.7647 121.155 85.3916C131.891 72.9013 140.355 67.2453 148.426 67.2453H148.818C155.715 67.4025 162.454 71.8015 169.272 80.5997C179.381 93.7184 186.356 109.744 193.017 125.219C194.349 128.361 195.76 131.582 197.171 134.724C198.424 137.395 199.6 140.066 200.775 142.815C201.049 143.433 201.322 144.052 201.596 144.671C207.446 157.916 213.45 171.51 221.386 183.743C232.984 201.653 243.093 204.56 262.685 204.56ZM356.412 210.294H265.663C247.09 210.294 235.962 209.509 224.129 193.091C214.851 180.302 208.242 165.297 201.82 150.714L201.559 150.121C200.148 146.822 198.66 143.444 197.171 140.223L196.786 139.367L196.518 138.77C195.306 136.073 194.055 133.289 192.86 130.561C186.356 115.792 179.616 100.553 170.212 87.7482C163.159 78.0859 156.028 73.2941 148.426 73.137H148.035C138.787 73.137 129.07 79.9713 117.472 94.504C106.236 108.621 96.6628 124.405 87.3422 139.772L86.8303 140.616C82.6768 147.529 78.3667 154.677 73.9781 161.511L72.2541 164.182C60.4207 182.8 48.1171 202.124 26.9581 210.216L26.6447 209.509C47.4905 201.526 59.7024 182.393 71.4946 163.919L71.6271 163.711L73.3512 161.04C77.7397 154.206 82.0499 147.057 86.2033 140.144L86.7096 139.31C96.032 123.94 105.608 108.151 116.923 93.9541C128.835 79.0286 138.787 72.1158 148.505 72.3514C156.342 72.5085 163.708 77.3789 170.918 87.2769C180.4 100.238 187.14 115.478 193.644 130.247C193.905 130.843 194.167 131.442 194.428 132.043L194.442 132.075L194.444 132.078L194.445 132.08L194.445 132.081C195.591 134.71 196.747 137.361 197.954 139.909C199.443 143.208 200.932 146.586 202.343 149.807L202.618 150.427C209.035 164.923 215.64 179.84 224.834 192.619C236.432 208.723 247.404 209.509 265.741 209.509H356.412V210.294ZM266.447 216.186H358.214H358.371V215.479H266.603C248.109 215.479 237.059 214.693 225.226 198.511C215.851 185.59 209.047 170.405 202.483 155.758L202.421 155.62C201.38 153.184 200.253 150.705 199.135 148.246L199.133 148.243L199.132 148.24L199.13 148.237L199.13 148.236L199.13 148.236L199.13 148.236L199.13 148.236L199.13 148.236L199.129 148.235C198.735 147.367 198.342 146.503 197.954 145.643C197.249 144.072 196.524 142.461 195.799 140.85L195.797 140.847L195.791 140.833C195.069 139.229 194.347 137.625 193.644 136.06L193.368 135.445C186.794 120.791 180.032 105.717 170.526 93.0114C163.238 83.192 155.871 78.4002 147.956 78.243H147.564C137.925 78.243 127.894 85.1559 115.983 100.003C104.463 114.378 94.5886 130.482 85.0278 146.115C80.796 153.027 76.4075 160.176 71.9406 167.089L70.2949 169.603L70.0851 169.926C58.0826 188.443 45.7219 207.512 24.6855 215.4L24.9206 216.107C46.3087 208.126 58.7553 188.844 70.7796 170.216L70.9218 169.995L72.5675 167.482C76.517 161.37 80.4052 155.012 84.1779 148.843L84.1787 148.842C84.6728 148.034 85.1648 147.229 85.6548 146.429C95.1371 130.875 105.011 114.771 116.531 100.396C128.443 85.6272 138.396 78.7929 147.878 78.95C155.479 79.1072 162.689 83.8204 169.821 93.4042C179.357 106.176 186.164 121.448 192.731 136.181L192.782 136.295C193.232 137.298 193.683 138.317 194.136 139.342L194.137 139.346C195.102 141.53 196.079 143.741 197.092 145.879C197.835 147.525 198.578 149.191 199.321 150.858L199.322 150.859L199.326 150.867L199.33 150.876L199.33 150.877C200.073 152.543 200.816 154.209 201.559 155.855C208.142 170.624 214.96 185.863 224.442 198.904C236.511 215.4 247.717 216.186 266.447 216.186ZM360.017 221.842H267.152C248.266 221.842 236.902 221.056 224.756 204.481C215.195 191.441 208.22 176.201 201.559 161.354C200.815 159.705 200.051 158.035 199.286 156.366C198.522 154.697 197.758 153.027 197.014 151.378C196.271 149.81 195.548 148.223 194.824 146.635L194.824 146.634L194.823 146.633L194.823 146.632L194.822 146.631L194.822 146.63L194.821 146.628L194.82 146.627L194.82 146.626L194.819 146.625C194.095 145.034 193.37 143.444 192.625 141.873L192.337 141.238C185.689 126.59 178.851 111.525 169.272 98.903C162.062 89.3979 154.853 84.7631 147.094 84.606C137.455 84.5275 127.424 91.2832 115.356 106.209C103.757 120.506 93.8049 136.609 84.2442 152.163C79.934 159.155 75.4671 166.382 70.9218 173.295L69.3545 175.651C57.1293 194.426 44.4339 213.829 22.8047 221.685L22.5696 220.978C43.9637 213.201 56.5807 193.876 68.7276 175.259L70.2949 172.902C74.8402 165.989 79.3071 158.762 83.6172 151.771L83.9051 151.306C93.4546 135.896 103.324 119.97 114.807 105.737C127.032 90.6548 137.22 83.6633 147.173 83.8205C155.166 83.9776 162.611 88.6909 169.899 98.4317C179.695 111.315 186.669 126.712 193.331 141.558C194.741 144.701 196.23 147.921 197.719 151.064C198.915 153.582 200.066 156.145 201.206 158.685C201.559 159.473 201.912 160.259 202.264 161.04C208.926 175.808 215.822 191.048 225.383 204.01C237.373 220.271 248.501 221.056 267.152 221.056H360.017V221.842ZM265.82 228.048H297.872H297.878C308.612 228.048 319.268 228.048 330.002 227.969H362.054V227.183H330.002H265.898C247.404 227.105 236.589 224.434 225.069 208.802C215.508 195.919 208.534 180.836 201.873 166.225C201.167 164.693 200.442 163.141 199.717 161.59C198.993 160.039 198.268 158.487 197.562 156.955C195.995 153.656 194.428 150.278 192.86 146.743C185.494 130.325 177.736 113.357 166.216 100.396C159.868 93.3256 153.442 89.7906 146.546 89.7906H146.467C135.026 89.7906 124.603 99.7671 116.766 108.408C103.914 122.705 93.4131 139.673 83.3038 156.091L82.504 157.392L82.5037 157.392C79.2325 162.714 75.8943 168.144 72.4892 173.373C71.9797 174.159 71.4898 174.925 70.9999 175.691C70.5102 176.457 70.0205 177.223 69.5112 178.008L69.3653 178.235C56.9407 197.583 42.8566 219.515 20.297 227.262L20.5321 227.969C43.3368 220.035 57.5995 197.961 70.1382 178.401C70.5254 177.804 70.9012 177.207 71.2744 176.614C71.8831 175.647 72.4845 174.691 73.1161 173.766C76.721 168.11 80.4042 162.218 83.9307 156.484L84.474 155.606L84.4741 155.606C94.4141 139.538 104.693 122.922 117.315 108.958C128.756 96.3107 137.69 90.6547 146.389 90.6547H146.467C153.05 90.6547 159.319 94.0326 165.51 101.024C176.779 113.55 184.299 130.059 191.59 146.067L192.077 147.136C192.78 148.647 193.455 150.129 194.119 151.588C195.009 153.544 195.881 155.459 196.779 157.348C198.268 160.412 199.678 163.475 201.089 166.618L201.597 167.72C208.177 181.989 214.967 196.715 224.364 209.351C236.119 225.22 247.09 228.048 265.82 228.048ZM299.126 235.196H266.682C248.187 235.196 236.589 232.29 224.756 216.421C215.205 203.682 208.228 188.818 201.444 174.365L201.089 173.609C200.345 172.038 199.62 170.487 198.895 168.936C198.17 167.384 197.445 165.832 196.7 164.261C195.133 160.962 193.566 157.662 191.998 154.127L191.781 153.658L191.781 153.658C184.247 137.385 176.449 120.541 164.883 107.858C158.614 101.024 152.345 97.7247 145.684 97.7247C134.399 97.7247 123.976 107.623 116.139 116.185C103.462 130.126 93.044 146.709 82.9659 162.752L82.3634 163.711C81.6389 164.863 80.9112 166.026 80.1803 167.193L80.1796 167.194C77.2743 171.833 74.319 176.553 71.3137 181.072C70.8435 181.818 70.3537 182.545 69.8639 183.271C69.3741 183.998 68.8843 184.724 68.4141 185.471C55.6403 205.109 41.2209 227.262 18.0243 235.039L17.7892 234.332C40.6723 226.634 55.0918 204.56 67.7872 185.078C68.4942 183.956 69.2455 182.834 69.9745 181.745L69.9748 181.744L69.9754 181.744L69.9764 181.742C70.2164 181.384 70.454 181.029 70.6867 180.679C73.6924 176.16 76.648 171.44 79.5536 166.8C80.2844 165.633 81.012 164.471 81.7364 163.318L81.9629 162.956C92.1581 146.651 102.678 129.827 115.591 115.635C123.506 106.916 134.164 96.9391 145.762 96.9391C152.658 96.9391 159.084 100.317 165.51 107.308C177.344 120.191 185.18 137.238 192.782 153.813C193.409 155.16 194.013 156.473 194.608 157.764L194.608 157.765L194.611 157.77C195.575 159.866 196.515 161.906 197.484 163.947C198.367 165.764 199.223 167.609 200.084 169.465L200.084 169.465L200.085 169.469L200.085 169.469L200.086 169.469L200.086 169.469L200.087 169.473L200.088 169.475L200.089 169.476L200.089 169.476L200.089 169.476L200.089 169.476L200.089 169.477L200.089 169.477C200.678 170.746 201.269 172.02 201.873 173.295L201.99 173.546L201.99 173.546C208.771 188.08 215.799 203.141 225.461 215.95C237.216 231.661 248.187 234.411 266.76 234.411H331.726H364.248V235.196H331.726H299.126ZM269.973 242.345H366.443V241.716H269.895C248.344 241.716 237.608 239.831 224.912 222.234C215.665 209.273 208.612 194.583 201.794 180.286C200.306 177.145 198.817 174.083 197.329 171.02L197.327 171.017C196.911 170.14 196.489 169.258 196.063 168.367C194.885 165.906 193.677 163.379 192.469 160.726C184.945 144.544 177.109 127.89 165.354 115.557C158.222 108.094 151.248 104.48 143.96 104.48H143.881C135.418 104.48 126.484 109.587 116.61 120.113C102.66 134.96 91.3755 152.792 80.4826 170.074C76.2508 176.751 71.8622 183.664 67.4737 190.184C66.4549 191.677 65.4362 193.169 64.4174 194.74C51.4085 214.3 37.9295 234.489 15.2815 241.638L15.5166 242.423C38.3997 235.118 51.9571 214.85 65.0443 195.212C65.5537 194.465 66.0631 193.699 66.5725 192.933C67.0819 192.168 67.5913 191.402 68.1006 190.655C72.4892 184.057 76.8777 177.144 81.1095 170.467C92.0025 153.185 103.209 135.431 117.158 120.584C126.876 110.294 135.653 105.187 143.881 105.187C150.934 105.109 157.83 108.722 164.805 116.028C176.403 128.204 184.24 144.858 191.763 160.962C192.52 162.514 193.247 164.051 193.964 165.567L193.964 165.568L193.965 165.568L193.965 165.569L193.965 165.569L193.965 165.57L193.967 165.573C194.881 167.506 195.778 169.404 196.7 171.252C197.445 172.784 198.189 174.336 198.934 175.887C199.678 177.438 200.423 178.99 201.167 180.522C207.985 194.819 215.038 209.587 224.364 222.549C237.216 240.459 248.109 242.345 269.973 242.345ZM368.715 249.415H270.914C249.363 249.415 237.764 247.451 224.756 229.54C215.586 217.006 208.614 202.708 201.857 188.849L201.167 187.435C200.276 185.553 199.356 183.699 198.442 181.857L198.441 181.856L198.439 181.853L198.439 181.852L198.439 181.852L198.438 181.85C197.827 180.618 197.218 179.392 196.622 178.165C195.656 176.229 194.717 174.266 193.758 172.26L193.757 172.257L193.749 172.24L193.743 172.228L193.739 172.219C193.069 170.819 192.39 169.399 191.685 167.953C184.005 151.771 176.012 135.038 164.178 122.862C157.204 115.714 150.307 112.179 143.254 112.179H143.098C134.712 112.257 125.857 117.363 115.983 127.733C102.077 142.451 90.7895 160.025 79.8302 177.088L79.8301 177.088L79.5422 177.537C78.8857 178.554 78.2255 179.578 77.5622 180.607L77.5524 180.623L77.5516 180.624C73.864 186.346 70.0811 192.216 66.2982 197.804C66.005 198.233 65.7118 198.656 65.4205 199.077L65.4135 199.087L65.4124 199.088L65.4114 199.09C64.6936 200.125 63.9872 201.144 63.3203 202.203C49.9979 221.92 36.2054 242.266 13.0872 249.336L12.8521 248.55C35.7245 241.562 49.4365 221.311 62.6747 201.759L62.6933 201.732L62.6951 201.729L62.6955 201.728C63.7136 200.237 64.7316 198.746 65.6713 197.333C70.1382 190.734 74.6051 183.821 78.9152 177.065L79.5446 176.085C90.3972 159.186 101.596 141.748 115.434 127.183C125.465 116.578 134.477 111.393 143.098 111.393C150.464 111.315 157.595 114.928 164.805 122.312C176.717 134.567 184.789 151.378 192.469 167.56C193.18 169.02 193.865 170.452 194.54 171.863L194.542 171.866L194.542 171.867C195.501 173.873 196.44 175.836 197.406 177.772C198.587 180.082 199.724 182.436 200.851 184.768L200.851 184.769C201.218 185.53 201.585 186.288 201.951 187.042L202.425 188.015C209.25 202.007 216.27 216.401 225.461 229.069C238.313 246.744 249.206 248.629 270.992 248.629H368.872V249.415H368.715ZM269.66 256.17H370.909H370.988V255.306H269.738C252.576 255.306 240.429 254.128 228.204 238.967C217.389 225.612 209.552 209.587 202.029 194.112C200.462 190.812 198.816 187.435 197.171 184.214C196.827 183.524 196.478 182.83 196.127 182.131L196.112 182.102L196.107 182.092C195.025 179.937 193.921 177.738 192.86 175.494L192.355 174.465C184.757 158.997 176.94 143.084 165.824 130.404C158.457 121.92 151.013 117.835 143.098 117.756H142.941C133.145 117.756 122.957 124.041 110.967 137.474C98.1989 151.746 87.4938 168.164 77.1163 184.079L76.721 184.685C76.1363 185.579 75.5492 186.478 74.9596 187.381C70.8871 193.616 66.7026 200.023 62.4582 206.131C62.0272 206.72 61.6158 207.329 61.2044 207.937C60.7929 208.546 60.3815 209.155 59.9505 209.744C46.7065 228.912 32.9924 248.708 10.266 255.306L10.5011 256.092C33.5409 249.415 47.3335 229.54 60.6558 210.216C60.8635 209.913 61.0666 209.615 61.2673 209.32L61.2674 209.32C61.9 208.391 62.5092 207.496 63.1635 206.602C67.4078 200.495 71.5923 194.088 75.6647 187.852C76.2543 186.95 76.8416 186.051 77.4263 185.157C87.849 169.131 98.742 152.478 111.594 138.023C123.428 124.748 133.38 118.542 142.941 118.542H143.098C150.777 118.62 158.066 122.627 165.275 130.954C176.482 143.915 184.475 160.176 192.155 175.887C193.001 177.677 193.875 179.438 194.743 181.189L194.744 181.19L194.744 181.19L194.745 181.191C195.324 182.359 195.901 183.522 196.465 184.685C198.111 187.984 199.757 191.362 201.324 194.583L201.709 195.366C209.191 210.601 216.945 226.389 227.577 239.595C239.959 254.992 252.341 256.17 269.66 256.17ZM373.025 263.083H270.522C253.516 263.083 240.586 261.905 227.969 246.429C216.997 232.997 209.004 216.893 201.324 201.339C200.775 200.239 200.227 199.13 199.678 198.022C198.581 195.805 197.484 193.588 196.387 191.441C195.273 189.325 194.202 187.165 193.11 184.961L193.11 184.96L193.11 184.96L193.11 184.959L193.11 184.959C192.742 184.218 192.373 183.472 191.998 182.721C184.162 166.932 176.012 150.592 164.57 137.709C157.282 129.54 149.994 125.612 142.314 125.612H142.236C132.518 125.612 122.409 131.818 110.34 145.251C97.4952 159.531 86.5836 176.06 76.0688 191.987L75.8589 192.305C71.1569 199.454 66.2982 206.838 61.3611 213.908C61.0401 214.358 60.7191 214.822 60.3928 215.293L60.3925 215.294L60.3918 215.295C59.9217 215.974 59.4403 216.669 58.9317 217.364L58.7077 217.683C45.2204 236.909 31.2969 256.756 8.15013 263.24L7.91503 262.455C30.8951 256.03 44.7537 236.242 58.2 217.042L58.3048 216.893C59.0885 215.714 59.8721 214.615 60.7342 213.436C65.6713 206.366 70.53 198.982 75.232 191.834C85.8115 175.73 96.7829 159.155 109.792 144.701C122.017 131.111 132.283 124.826 142.236 124.826H142.314C150.307 124.826 157.752 128.911 165.197 137.238C176.623 150.008 184.627 166.056 192.43 181.702L192.782 182.407C193.527 183.86 194.251 185.314 194.976 186.767C195.701 188.22 196.426 189.673 197.171 191.127C197.719 192.226 198.276 193.334 198.833 194.443L198.834 194.444C199.948 196.661 201.063 198.878 202.108 201.025C209.788 216.579 217.781 232.604 228.674 245.958C241.134 261.198 253.359 262.376 270.678 262.376H373.182V263.083H373.025ZM273.735 270.232H375.298H375.533V269.446H273.97C253.046 269.446 241.761 267.718 228.517 251.928C217.862 239.206 210.106 223.736 202.584 208.736L202.578 208.723L201.574 206.754L199.823 203.318C198.906 201.519 197.989 199.721 197.092 197.961C196.23 196.272 195.388 194.583 194.536 192.875L194.536 192.875L194.535 192.874L194.534 192.871C193.682 191.163 192.821 189.436 191.92 187.67L191.783 187.396C183.206 170.2 174.373 152.49 160.887 140.066C154.382 134.096 147.564 131.268 140.511 131.661C126.797 132.367 114.337 145.015 106.187 154.441C94.04 168.424 83.4605 184.135 73.2728 199.375L73.239 199.426L73.2384 199.427L73.237 199.429C68.1544 207.032 62.9158 214.868 57.5211 222.392L55.6403 224.984C42.1613 243.837 28.212 263.319 5.32893 269.368L5.56403 270.153C28.6211 264.063 42.5418 244.623 56.0228 225.797L56.2673 225.455L58.1481 222.863C63.5427 215.339 68.7813 207.503 73.8639 199.9L73.8653 199.898L73.8659 199.897L73.8998 199.846L74.4978 198.956C84.4988 184.071 94.8261 168.701 106.735 154.991C114.886 145.643 127.189 133.153 140.511 132.446C147.329 132.053 153.991 134.803 160.26 140.616C173.739 153.027 182.594 170.781 191.136 187.984C192.86 191.598 194.584 194.976 196.309 198.275C197.209 200.042 198.11 201.848 199.011 203.654L199.012 203.656C199.913 205.463 200.815 207.27 201.716 209.037L201.924 209.453C209.383 224.328 217.096 239.713 227.734 252.4C241.134 268.503 252.576 270.232 273.735 270.232ZM377.571 277.537H272.559C251.4 277.537 239.88 274.788 227.107 258.605C216.605 245.173 208.534 229.619 200.775 214.536L200.773 214.531C199.206 211.469 197.64 208.407 196.073 205.424C194.428 202.282 192.782 199.061 191.058 195.683L190.764 195.104L190.764 195.104C182.314 178.473 173.586 161.294 160.417 149.335C141.452 132.053 125.857 140.851 108.303 159.39C94.5422 173.881 83.1458 190.819 72.0822 207.261L71.6271 207.937C70.0637 210.199 68.4939 212.498 66.9141 214.812L66.9136 214.813C62.9505 220.618 58.9245 226.516 54.7783 232.132L53.6028 233.782C39.967 252.478 25.861 271.724 2.8212 277.537L2.66447 276.752C25.4692 271.017 39.4968 251.85 52.9759 233.311L54.1514 231.661C59.9425 223.816 65.4991 215.502 70.8994 207.421L70.9218 207.388L71.1782 207.007C82.3052 190.471 93.8329 173.339 107.676 158.683C125.543 139.83 141.452 130.954 160.887 148.628C174.287 160.811 183.04 178.119 191.535 194.916L191.685 195.212C192.173 196.168 192.649 197.112 193.119 198.046L193.119 198.046C194.309 200.408 195.465 202.7 196.7 204.952C198.268 207.937 199.835 211.001 201.402 214.065L201.449 214.156L201.449 214.156C209.193 229.21 217.175 244.728 227.655 258.056C240.194 274.002 251.557 276.673 272.481 276.673H377.571V277.537ZM273.5 285H380V284.293H273.5C252.419 284.293 240.821 281.622 228.125 265.597C217.7 252.437 209.633 237.064 201.826 222.185L201.481 221.527C200.658 219.996 199.855 218.464 199.051 216.932C198.248 215.4 197.445 213.868 196.622 212.337C194.976 209.194 193.331 206.052 191.607 202.674C182.908 185.706 173.896 168.189 160.181 156.013C140.511 138.495 124.446 147.529 106.344 166.382C92.4446 180.856 80.9042 197.771 69.6982 214.195L69.1978 214.929C63.7121 223.02 57.9913 231.425 52.1138 239.36L51.0951 240.773C37.3809 259.391 23.1182 278.637 0 284.214L0.156734 285C23.51 279.423 37.8511 260.019 51.722 241.245L52.7408 239.831C58.6183 231.897 64.339 223.491 69.8247 215.4L70.3281 214.662C81.5331 198.239 93.0715 181.327 106.892 166.932C124.681 148.393 140.433 139.516 159.633 156.562C173.172 168.565 182.178 186.051 190.865 202.918L190.901 202.988C192.625 206.366 194.271 209.509 195.917 212.651C196.74 214.183 197.543 215.714 198.346 217.246C199.149 218.778 199.953 220.31 200.775 221.842L201.117 222.493C208.925 237.373 216.994 252.75 227.498 265.99C240.429 282.251 252.184 285 273.5 285Z"
    fill="url(#paint0_linear_0_3144)" />
  <defs>
    <linearGradient id="paint0_linear_0_3144" x1="124.187" y1="106.446" x2="347.771" y2="44.6293"
      gradientUnits="userSpaceOnUse">
      <stop stop-color="white" />
      <stop offset="1" stop-color="#151F24" />
    </linearGradient>
  </defs>
</svg>