<svg width="322" height="298" viewBox="0 0 322 298" fill="none" xmlns="http://www.w3.org/2000/svg">
  <path fill-rule="evenodd" clip-rule="evenodd"
    d="M95.9115 298C65.9417 298 52.9491 271.198 41.4841 247.548L41.4634 247.505C40.5525 245.596 39.6417 243.746 38.7506 241.937L38.7505 241.936L38.7483 241.932C38.2882 240.998 37.8334 240.074 37.3867 239.158C36.3851 237.193 35.3662 235.193 34.3474 233.194L34.3415 233.182C33.324 231.185 32.3065 229.187 31.3061 227.225L31.2486 227.113C16.0651 197.554 0.350398 166.962 0.00535031 133.617C-0.179456 114.429 4.42411 96.8141 13.6921 80.9783C12.5468 75.0293 12.0361 69.2196 12.1663 64.0838C12.1726 63.836 12.1821 63.5883 12.1948 63.3408C11.5797 59.7434 11.3168 56.3086 11.4063 53.2533C11.4628 51.3591 11.7657 49.4939 12.2848 47.6657C12.1801 46.3466 12.1638 45.0958 12.2355 43.9405C12.4094 40.9022 13.4951 37.7305 15.3805 34.578C17.4072 24.6203 30.9297 15.9782 39.7329 15.1677C44.549 13.218 49.2185 12.1978 53.1407 12.347C54.5442 12.3933 55.9253 12.6209 57.2777 13.0085C61.4301 11.9599 65.3092 11.4144 68.6184 11.4505C71.2972 11.4776 73.9231 11.9806 76.4877 12.9556C80.0153 12.3918 83.3911 12.1088 86.5144 12.1407C89.9156 12.1698 93.219 12.8215 96.4143 14.0857C99.6833 13.758 102.85 13.6103 105.861 13.6577C107.42 13.6833 108.938 13.8221 110.414 14.0643C110.853 13.928 111.294 13.7925 111.735 13.658C140.341 4.89732 172.402 0.0686153 201.975 -0.000366211C214.205 -0.000366211 228.024 1.31028 237.352 11.1057C245.431 19.5771 250.708 31.311 255.805 42.6443L256.078 43.251C256.356 43.8665 256.63 44.4757 256.901 45.0789L256.942 45.1701L256.944 45.1749L256.944 45.176C258.207 47.9852 259.411 50.6652 260.707 53.2533C274.665 82.0186 286.204 105.955 296.983 131.34L298.365 134.583L298.509 134.923C309.392 160.501 321.721 189.48 321.996 217.843C322.203 233.502 314.533 241.849 297.19 244.884C290.488 246.057 283.647 246.953 277.014 247.781L276.031 247.911C264.87 249.387 253.399 250.903 242.189 253.851C224.5 258.542 206.466 265.854 189.123 272.89L188.963 272.955C159.025 285.076 128.123 297.586 96.4643 298H95.9115ZM12.9264 43.9405C13.0771 41.4649 13.8631 38.9467 15.1386 36.4697L15.1375 36.4913C15.0726 37.821 15.168 39.2117 15.4094 40.623C14.3879 42.312 13.537 44.0472 12.8855 45.8209C12.8747 45.1703 12.8884 44.5422 12.9264 43.9405ZM15.8976 36.5603C15.847 37.5575 15.8913 38.5916 16.0237 39.644C17.39 37.5431 19.017 35.5175 20.8473 33.5824C20.7596 32.9478 20.7209 32.3052 20.7343 31.6625C20.7738 30.2846 21.2353 28.8279 22.0288 27.4418C19.6925 29.7358 17.6764 32.1845 16.1376 34.6978C16.0108 35.3141 15.9295 35.9355 15.8976 36.5603ZM26.0089 23.122C25.5657 23.435 25.1438 23.7708 24.746 24.1254C21.5341 26.7532 18.8698 29.5381 16.8355 32.3679C19.827 24.7508 29.283 18.299 36.8898 16.4188C33.7183 17.9257 30.5344 19.8099 27.5058 22.0044C26.9957 22.3731 26.4966 22.7457 26.0089 23.122ZM29.5245 21.3286C30.5725 20.9765 31.6798 20.7541 32.8263 20.6945C34.0599 20.656 35.315 20.9396 36.5316 21.5453C39.5947 19.7849 42.7605 18.2191 45.9195 16.8768C44.3056 16.2047 42.6707 15.8659 41.0488 15.8659H40.9106C40.3913 15.8698 39.851 15.9058 39.2939 15.9721C35.9725 17.3764 32.6442 19.2032 29.5245 21.3286ZM35.7728 21.9867C34.9083 21.6311 34.0332 21.4533 33.1718 21.4533H32.8954C27.8513 21.6602 21.5635 26.351 21.4944 31.7315C21.4859 32.1138 21.4973 32.4961 21.5278 32.8765C25.5616 28.7705 30.4995 25.0905 35.7728 21.9867ZM21.6274 33.7209C25.7771 29.3969 30.956 25.5406 36.4945 22.3264C37.3223 22.7661 38.1337 23.3718 38.9068 24.1436C39.5555 24.7737 40.142 25.475 40.6549 26.218C40.4632 26.3308 40.272 26.4441 40.0814 26.5579C33.6695 30.4237 28.2733 34.6458 23.9861 39.1077C22.76 37.5942 21.936 35.7043 21.6274 33.7209ZM20.9881 34.3997C19.1413 36.3979 17.5169 38.4919 16.1786 40.6651C16.5235 42.6106 17.1564 44.5975 18.0359 46.5117C19.5645 44.1743 21.3815 41.8809 23.4752 39.6461C22.2483 38.1682 21.3892 36.3394 20.9881 34.3997ZM23.8942 40.1217C21.8656 42.2761 19.9693 44.6205 18.3375 47.1457C19.2371 48.9735 20.3613 50.722 21.6729 52.289C23.8584 49.1192 26.4812 46.0495 29.5225 43.1036C27.5916 42.8411 25.7567 41.9306 24.2583 40.4922C24.134 40.3719 24.0127 40.2483 23.8942 40.1217ZM30.2868 43.1732C27.0748 46.2311 24.3236 49.4279 22.0546 52.7338C22.1885 52.8861 22.3243 53.0365 22.4618 53.1848C23.6493 54.4652 24.9184 55.5581 26.2439 56.4468C27.7315 54.5355 29.373 52.6655 31.168 50.8387C38.5357 43.3011 48.1549 36.8986 58.7802 31.7008C58.027 29.8049 57.0871 27.9434 55.9978 26.2073C53.2315 27.5026 50.5409 28.8868 47.9584 30.3512C46.4616 31.1948 45.011 32.0583 43.6073 32.9405C43.6073 32.9976 43.6066 33.0545 43.6054 33.1112C43.4672 39.3195 37.1794 42.8375 31.0989 43.1825H30.6843C30.5515 43.1825 30.419 43.1794 30.2868 43.1732ZM42.9749 33.3414C42.687 38.9933 36.8266 42.2204 31.1679 42.4926C31.1129 42.4959 31.058 42.4985 31.0031 42.5006C34.4847 39.2765 38.4837 36.2115 42.9749 33.3414ZM42.979 32.6027C38.1374 35.6934 33.8557 39.0021 30.1653 42.4887C28.1922 42.356 26.3496 41.4862 24.8111 40.0093C24.6707 39.8737 24.5342 39.7337 24.4017 39.5895C29.6946 34.1074 35.796 29.8963 40.4269 27.1097C40.6211 26.9925 40.8159 26.8758 41.0113 26.7597C42.1908 28.6427 42.9036 30.7382 42.979 32.6027ZM43.5783 32.223C44.9269 31.3751 46.3181 30.544 47.7511 29.7304C50.292 28.2992 52.9362 26.9429 55.6534 25.6701C54.5718 24.0194 53.3544 22.4945 52.0352 21.1774L51.9688 21.1101C48.3941 22.7004 44.8912 24.486 41.5558 26.4386C42.6935 28.2958 43.4271 30.3471 43.5783 32.223ZM41.2076 25.8952C44.5103 23.9798 47.9683 22.2194 51.4944 20.6435C49.9641 19.1793 48.3715 18.0475 46.7516 17.2538C43.5448 18.5844 40.3242 20.1491 37.2073 21.9174C37.9347 22.3572 38.6438 22.9153 39.3214 23.5917C40.0192 24.2884 40.6535 25.0678 41.2076 25.8952ZM12.9837 47.7525C13.5856 45.6577 14.4753 43.6131 15.6058 41.631C16.0175 43.5164 16.6811 45.4213 17.5627 47.2513C16.1389 49.5276 14.9874 51.8439 14.119 54.1871C13.5301 51.9495 13.1522 49.7713 12.9837 47.7525ZM14.3934 55.1809C15.2683 52.6066 16.4604 50.1702 17.8748 47.8782C18.7982 49.6743 19.9321 51.386 21.2438 52.921C19.4003 55.6791 17.886 58.5112 16.7132 61.4018C15.7622 59.3417 14.9893 57.2426 14.3934 55.1809ZM17.0401 62.0936C18.2077 59.1172 19.7422 56.2005 21.63 53.3621C21.7222 53.4649 21.8152 53.5667 21.909 53.6677C23.1302 54.9806 24.4391 56.1022 25.806 57.0164C23.3765 60.2168 21.3754 63.5312 19.8058 66.9504C18.766 65.3901 17.8443 63.7575 17.0401 62.0936ZM20.3119 67.6907C21.8923 64.1591 23.9378 60.7352 26.4448 57.426C27.735 58.2179 29.0715 58.8273 30.4301 59.2411C27.225 62.5175 24.2698 65.8958 21.566 69.3735C21.1315 68.8249 20.7135 68.2633 20.3119 67.6907ZM26.882 56.8561C28.2082 57.669 29.5855 58.2801 30.9895 58.6732C39.1328 50.473 48.9444 42.9094 60.1778 36.1299C59.8869 34.8806 59.5022 33.6156 59.0344 32.3609C48.5236 37.5169 39.013 43.86 31.7207 51.3215C29.9577 53.128 28.3446 54.9733 26.882 56.8561ZM22.0089 69.9212C24.797 66.3224 27.8556 62.8308 31.1829 59.4498C31.739 59.5887 32.298 59.6948 32.8583 59.7673C29.4517 63.5058 26.4151 67.5993 23.9405 72.0689C23.7689 71.8935 23.5984 71.7149 23.4291 71.5331C22.9384 71.0117 22.465 70.4737 22.0089 69.9212ZM31.7626 58.8669C32.3198 58.9902 32.8805 59.0792 33.4431 59.1328C41.3943 50.6047 51.2552 43.9573 60.6727 38.9302C60.5923 38.2476 60.4795 37.5538 60.3361 36.8533C49.383 43.4884 39.7846 50.8709 31.7626 58.8669ZM24.4462 72.5733C26.9964 67.935 30.1619 63.7026 33.7246 59.8522C33.8858 59.863 34.047 59.8709 34.2082 59.876H35.0374C37.1273 59.876 39.4777 59.6432 41.8922 59.1604C37.0724 63.4317 32.6552 68.2061 28.957 73.5232C28.4977 74.0819 28.0463 74.6433 27.6026 75.2073C26.5177 74.4416 25.4634 73.5631 24.4462 72.5733ZM34.3464 59.1883C36.864 59.2617 39.8521 58.9743 42.8965 58.2826C48.2641 53.6549 54.0936 49.634 59.9624 46.1667C60.4714 44.8114 60.7555 43.3798 60.8105 41.8719C60.8323 41.1663 60.8111 40.4384 60.7495 39.6946C51.6169 44.5945 42.0949 51.0136 34.3464 59.1883ZM38.5203 63.3143C40.078 61.7632 41.6934 60.2719 43.3538 58.8389C43.4375 58.8188 43.5212 58.7984 43.6049 58.7777C41.8442 60.2651 40.1487 61.7776 38.5203 63.3143ZM44.4703 57.8896C44.5693 57.8626 44.6683 57.8351 44.7673 57.8072C48.2093 54.9671 51.8915 52.2208 55.8018 49.5753C51.9136 52.0877 48.0939 54.854 44.4703 57.8896ZM34.761 67.8774C37.8452 64.6293 41.2237 61.4805 44.8805 58.4392C47.2194 57.7754 49.543 56.8741 51.6768 55.72C44.6425 60.8806 38.6363 66.4359 33.7246 72.361C32.5034 73.8283 31.3488 75.3173 30.261 76.8274C29.618 76.4948 28.9833 76.1253 28.3581 75.7192C29.0012 74.7285 29.6697 73.7561 30.3617 72.8016C31.7587 71.137 33.2252 69.4955 34.761 67.8774ZM76.4954 41.1124C69.1391 44.6188 62.4137 48.4015 56.3546 52.4471C56.4123 52.3944 56.4696 52.3414 56.5265 52.2881C58.0947 50.792 59.2939 49.1555 60.115 47.3964C63.4319 45.2894 66.8997 43.2513 70.5114 41.2857C71.0106 41.04 71.5083 40.7982 72.0041 40.5603C74.1942 39.5085 76.4153 38.4997 78.66 37.5326C78.9517 38.2605 79.2281 38.991 79.4886 39.7219C78.4857 40.1776 77.4878 40.641 76.4954 41.1124ZM56.1119 51.8052C57.3367 50.6392 58.3268 49.3912 59.0771 48.0611C54.4688 51.0369 50.1591 54.1474 46.1674 57.3826C49.8713 56.1771 53.4379 54.3445 56.1119 51.8052ZM71.6586 39.9395C68.0932 41.6504 64.4338 43.5617 60.7819 45.6863C61.1683 44.4649 61.3859 43.1917 61.4323 41.8719C61.4483 41.0643 61.4133 40.2327 61.3303 39.3847C62.4548 38.7882 63.5727 38.2147 64.6798 37.6638C68.4898 35.7667 72.3915 34.0259 76.3388 32.4329C77.0502 33.8214 77.7085 35.2409 78.3084 36.6742C76.8357 37.3909 75.3836 38.1189 73.9524 38.8579C73.1848 39.2133 72.4201 39.5738 71.6586 39.9395ZM64.3344 37.043C63.3123 37.5515 62.2812 38.0794 61.244 38.6269C61.1541 37.9333 61.0333 37.2307 60.8835 36.523C65.2103 33.9225 69.7462 31.4379 74.4778 29.0775C75.0151 29.9736 75.5301 30.8902 76.0213 31.822C72.066 33.4125 68.1551 35.1499 64.3344 37.043ZM74.1167 28.4838C69.4576 30.8057 64.988 33.2482 60.7214 35.8031C60.4271 34.5691 60.0467 33.3243 59.5886 32.0906C63.8637 30.0173 68.2996 28.1394 72.8152 26.4612C73.2811 27.1477 73.7022 27.806 74.077 28.4197L74.1167 28.4838ZM72.407 25.869C67.9468 27.5303 63.5639 29.3856 59.3358 31.4306C58.5878 29.5368 57.6594 27.6786 56.5823 25.9355C60.4638 24.1424 64.4889 22.5243 68.5694 21.1051C70.0482 22.6907 71.3332 24.336 72.407 25.869ZM68.0896 20.5999C64.056 22.016 60.0788 23.6229 56.242 25.3962C55.1672 23.729 53.9556 22.178 52.636 20.8159C56.2499 19.2365 59.9308 17.8576 63.5807 16.708C65.2278 17.862 66.7349 19.1999 68.0896 20.5999ZM62.9218 16.2613C59.3333 17.4141 55.7197 18.7853 52.1692 20.3446C50.7057 18.9018 49.1759 17.7535 47.6075 16.9041C50.9621 15.5546 54.2901 14.4649 57.4567 13.6701C59.409 14.2514 61.2348 15.156 62.9218 16.2613ZM56.0865 13.3211C53.0852 14.138 49.9587 15.2079 46.8154 16.5021C45.0554 15.6681 43.2532 15.2057 41.4467 15.1212C45.301 13.705 49.0824 12.8988 52.4497 12.8988C52.7261 12.8988 52.9334 12.8988 53.2098 12.9678C54.1945 13.0017 55.1538 13.1236 56.0865 13.3211ZM12.5099 49.7067C12.2746 50.898 12.1343 52.1039 12.0973 53.3223C12.031 55.559 12.1555 58.0014 12.4707 60.5623C12.7294 58.808 13.1469 57.0618 13.7189 55.329C13.1652 53.4022 12.7624 51.508 12.5099 49.7067ZM14.0233 56.3426C13.3856 58.4859 12.9706 60.7213 12.8305 63.0451C13.1935 65.2283 13.6882 67.4741 14.3146 69.7325C14.7497 67.2196 15.4346 64.7378 16.362 62.2962C15.4237 60.3317 14.6443 58.3256 14.0233 56.3426ZM16.7005 62.9892C15.7386 65.6164 15.0612 68.2882 14.6773 70.9921C15.216 72.7957 15.8384 74.6015 16.5447 76.3839L16.6718 76.1909C17.3221 73.3029 18.2524 70.4773 19.4612 67.7188C18.4311 66.201 17.511 64.6121 16.7005 62.9892ZM19.9763 68.4588C19.153 70.3888 18.4676 72.3505 17.9204 74.3428C18.9405 72.8664 20.0038 71.4068 21.11 69.9641C20.7192 69.4724 20.3413 68.9701 19.9763 68.4588ZM21.5544 70.512C20.1056 72.4082 18.7315 74.334 17.4322 76.2889C17.3193 76.7854 17.2149 77.2838 17.1189 77.784C17.8197 79.436 18.5937 81.0617 19.4407 82.6407C20.5029 79.1554 21.902 75.8576 23.5745 72.7403C23.3398 72.5047 23.1071 72.2632 22.8764 72.016C22.4211 71.5284 21.9804 71.0265 21.5544 70.512ZM24.085 73.2408C22.3707 76.4597 20.9528 79.8715 19.9025 83.4838C20.1972 84.0107 20.5002 84.5319 20.8116 85.0466C22.7047 81.8842 24.8193 78.795 27.1548 75.7809C26.1018 75.0371 25.0769 74.19 24.085 73.2408ZM27.9662 76.33C25.7578 79.8141 23.8636 83.5203 22.3668 87.4587C22.6 87.7981 22.8372 88.1337 23.0783 88.4653C24.0234 86.6861 25.0434 84.9311 26.1381 83.2008C27.2668 81.2418 28.5 79.3151 29.8373 77.4214C29.2053 77.0921 28.5813 76.7283 27.9662 76.33ZM30.6461 77.8217C29.5335 79.2947 28.4794 80.7877 27.4841 82.3C26.0918 84.6118 24.8493 86.9703 23.7568 89.374C24.6552 90.5456 25.6055 91.662 26.6076 92.7107C31.9971 98.3672 38.1467 101.264 44.9182 101.402C67.5819 101.747 106.138 96.0218 106.76 72.2922C107.064 61.7177 103.242 46.2076 96.2752 33.6281C95.7669 33.8105 95.2592 33.9947 94.7521 34.1806C89.8571 36.0618 85.0369 38.0985 80.3381 40.2983C82.1445 45.5762 83.1056 50.8403 82.9905 55.3224C82.7832 63.6692 76.8409 70.3604 65.8545 74.8442C56.7337 78.4312 45.9547 79.7419 39.3214 79.7419H38.9068C36.0654 79.7081 33.2902 79.0626 30.6461 77.8217ZM79.7803 40.5604C81.5385 45.7387 82.4834 50.8981 82.3686 55.2535C81.8849 73.4646 52.9334 79.19 38.9759 79.0521C36.2768 79.0188 33.6259 78.408 31.093 77.2351C31.6562 76.5023 32.2339 75.7746 32.8263 75.0518C43.6054 61.9453 59.1521 50.4254 79.052 40.9059C79.2944 40.7903 79.5372 40.6752 79.7803 40.5604ZM80.0473 39.4691C84.5925 37.4211 89.2382 35.5331 93.9379 33.7973C94.6043 33.5392 95.2721 33.2839 95.9412 33.0316C95.6176 32.4598 95.2875 31.8945 94.9508 31.3364C89.6449 33.112 84.3711 35.093 79.2182 37.2932C79.51 38.0167 79.7865 38.7427 80.0473 39.4691ZM78.8538 36.4097C83.6823 34.0767 88.7297 31.8639 93.9824 29.7787C93.3499 28.7921 92.6965 27.8315 92.0227 26.9012C86.9725 28.4461 81.8975 30.2101 76.8919 32.2107C77.6006 33.5874 78.2561 34.9921 78.8538 36.4097ZM76.5736 31.601C81.5482 29.6198 86.5895 27.8701 91.607 26.3347C90.6433 25.0383 89.639 23.8045 88.5958 22.6458C83.9058 24.5933 79.3706 26.6526 75.0009 28.8175C75.5491 29.7275 76.0739 30.657 76.5736 31.601ZM74.6387 28.2246C78.9694 26.0812 83.4626 24.0415 88.1075 22.112C87.9795 21.9744 87.8509 21.8379 87.7218 21.7025C82.9133 22.9987 78.0955 24.5194 73.3615 26.2593C73.7995 26.9018 74.2254 27.5576 74.6387 28.2246ZM72.9518 25.6672C77.6394 23.9402 82.4085 22.4272 87.1692 21.1331C85.6406 19.585 84.0797 18.2368 82.4901 17.0896C78.0515 18.108 73.5607 19.3921 69.1302 20.9114C70.4815 22.3712 71.7593 23.9694 72.9518 25.6672ZM68.652 20.4038C72.9989 18.8988 77.4067 17.6159 81.7706 16.5855C79.9433 15.3431 78.0792 14.3637 76.1837 13.6493C72.3354 14.2857 68.304 15.2518 64.2265 16.5069C65.7692 17.6275 67.2486 18.9405 68.652 20.4038ZM63.581 16.0519C67.439 14.8403 71.2615 13.8836 74.9386 13.2194C72.8652 12.569 70.7561 12.2316 68.6184 12.2093C68.5493 12.1404 68.4802 12.1404 68.342 12.1404C65.4322 12.1404 62.0919 12.5818 58.5214 13.4126C60.2652 14.0458 61.9565 14.9414 63.581 16.0519ZM13.7383 77.5545C13.1316 73.6422 12.809 69.835 12.7718 66.2935C13.135 67.9475 13.5699 69.6226 14.0763 71.2989C13.8862 72.7476 13.7789 74.2059 13.7556 75.6721C13.7432 76.2936 13.7375 76.9213 13.7383 77.5545ZM14.3084 75.6721C14.325 74.6446 14.3837 73.6207 14.484 72.6009C14.9682 74.0935 15.5091 75.5831 16.1069 77.0555C15.4932 78.0048 14.8969 78.9608 14.318 79.9234C14.2885 78.518 14.2848 77.1005 14.3084 75.6721ZM16.3122 87.4678C16.2518 84.5743 16.452 81.7334 16.9112 78.9481C17.6029 80.5043 18.3595 82.0339 19.1812 83.5197C18.51 85.8673 17.9914 88.2988 17.6441 90.8161C17.4768 91.1503 17.3118 91.4853 17.1492 91.821C16.8752 90.9834 16.6139 90.1418 16.3655 89.2978C16.3412 88.6159 16.3241 88.004 16.3122 87.4678ZM18.6413 88.8858C18.9152 87.3441 19.255 85.8359 19.6559 84.3607C19.911 84.8033 20.1719 85.2417 20.4387 85.6752C19.8147 86.7373 19.2156 87.8075 18.6413 88.8858ZM18.3106 90.9981C19.1007 89.4201 19.9433 87.8587 20.8383 86.3139C21.0821 86.6974 21.3307 87.0769 21.584 87.4521C20.4682 90.4238 19.5749 93.5269 18.9386 96.7656C18.6033 95.924 18.2816 95.075 17.9735 94.2202C18.0541 93.1308 18.1669 92.0568 18.3106 90.9981ZM21.2052 85.6866C21.4217 86.0328 21.642 86.3759 21.8662 86.7155C22.8814 84.1166 24.0671 81.6194 25.3996 79.2209C23.8958 81.3419 22.4975 83.4974 21.2052 85.6866ZM20.1796 94.5469C20.7019 92.3652 21.3438 90.2474 22.0937 88.192C22.308 88.497 22.5255 88.7988 22.7462 89.0974C21.815 90.8898 20.9593 92.7065 20.1796 94.5469ZM20.1038 99.5345C20.9754 96.2963 22.0943 93.1294 23.4599 90.0367C24.3037 91.1171 25.1917 92.1496 26.1239 93.1246C31.6517 98.9191 38.0086 101.885 44.9182 102.023H46.5765C52.9334 102.023 68.342 101.54 82.3686 97.1255C98.6754 92.0209 107.105 83.6052 107.382 72.2232C107.684 61.3453 103.936 45.9818 96.9699 33.3801C102.272 31.4959 107.633 29.8021 112.985 28.2876C127.158 46.6876 133.551 75.9813 133.362 91.6764C133.224 105.128 122.099 114.785 100.403 120.304C82.7831 124.787 62.4687 125.408 51.8969 125.339C43.9508 125.339 36.8339 122.097 30.6843 115.82C26.3884 111.411 22.8596 105.739 20.1038 99.5345ZM112.344 27.4702C107.067 29.0724 101.81 30.8368 96.6304 32.7728C96.3122 32.2096 95.9875 31.6523 95.6564 31.1015C100.942 29.3517 106.256 27.8049 111.51 26.4476C111.791 26.7843 112.069 27.1252 112.344 27.4702ZM110.97 25.809C105.761 27.1651 100.501 28.7095 95.2635 30.456C95.1602 30.2883 95.0562 30.1212 94.9517 29.9547C99.7649 28.0589 104.749 26.2693 109.893 24.5915C110.256 24.9903 110.615 25.3962 110.97 25.809ZM84.5366 34.3423C87.695 32.9204 90.9395 31.5476 94.2664 30.2258C94.3641 30.3808 94.4612 30.5364 94.5577 30.6926C91.1998 31.8246 87.8528 33.0399 84.5366 34.3423ZM109.516 24.1819C104.405 25.8479 99.4522 27.625 94.6684 29.5076C94.0502 28.5405 93.4114 27.5965 92.7526 26.6794C97.9164 25.1207 103.049 23.7905 108.051 22.6704C108.22 22.8375 108.388 23.0066 108.556 23.1778C108.879 23.5069 109.199 23.8417 109.516 24.1819ZM107.493 22.1276C102.535 23.2459 97.4523 24.568 92.3399 26.112C91.3706 24.7961 90.3591 23.5388 89.3068 22.352C91.5555 21.4267 93.8394 20.5271 96.1575 19.6538C98.4314 19.1619 100.691 18.7218 102.925 18.334C104.479 19.437 106.003 20.702 107.493 22.1276ZM91.5238 20.7236C90.6184 21.0835 89.7184 21.4476 88.8241 21.8157C88.7239 21.7061 88.6234 21.5971 88.5225 21.4887C89.5238 21.2239 90.5245 20.9689 91.5238 20.7236ZM96.1023 18.9562C93.4101 19.537 90.6967 20.1903 87.979 20.9151L87.9655 20.901C86.4878 19.3749 84.9809 18.0323 83.4469 16.874C87.8924 15.8907 92.2771 15.177 96.4874 14.7639C98.0585 15.4028 99.604 16.1937 101.122 17.1351C99.4316 17.7285 97.7583 18.3356 96.1023 18.9562ZM95.0673 14.2302C91.0698 14.687 86.9319 15.4056 82.7462 16.3592C81.0725 15.163 79.3671 14.1841 77.6326 13.424C80.6247 12.989 83.4924 12.7616 86.1689 12.7616H86.5835C89.4803 12.7869 92.3117 13.2788 95.0673 14.2302ZM14.53 84.8771C14.756 88.3714 15.1381 91.7791 15.6535 95.0822C15.7243 94.9187 15.7957 94.7555 15.8675 94.5924C15.7228 92.3725 15.64 90.464 15.5916 88.9354C15.2054 87.5856 14.8515 86.2308 14.53 84.8771ZM15.542 86.311C15.1008 84.5973 14.7121 82.8812 14.3759 81.1755C14.9952 80.121 15.6352 79.0743 16.2961 78.0358C15.8024 80.7425 15.5506 83.5022 15.542 86.311ZM16.4776 91.8458C16.4984 92.2463 16.5214 92.6615 16.5468 93.091C16.6129 92.9485 16.6795 92.8063 16.7464 92.6641C16.6554 92.3918 16.5658 92.119 16.4776 91.8458ZM17.0637 93.5966C17.1364 93.8064 17.2099 94.0159 17.2843 94.2251C17.1647 95.8477 17.1155 97.5042 17.1413 99.1953C17.151 99.7617 17.1652 100.34 17.184 100.93C16.9441 98.595 16.768 96.4493 16.6387 94.5374C16.7783 94.2232 16.92 93.9096 17.0637 93.5966ZM17.8781 95.8438C18.1478 96.5562 18.427 97.264 18.7156 97.9663C18.6815 98.1607 18.6484 98.3556 18.6163 98.551C18.3551 99.2811 18.1054 100.015 17.8673 100.752C17.8515 100.2 17.8399 99.6577 17.8323 99.1263C17.8152 98.0172 17.8309 96.9231 17.8781 95.8438ZM19.2577 99.2529C19.188 99.7078 19.1234 100.165 19.0641 100.625C19.1591 100.245 19.2575 99.8655 19.3593 99.4869C19.3253 99.409 19.2915 99.331 19.2577 99.2529ZM19.6411 98.4707C19.5868 98.3432 19.5329 98.2156 19.4792 98.0877C19.9354 96.8468 20.4256 95.6162 20.9497 94.3961C20.4693 95.7414 20.0331 97.0997 19.6411 98.4707ZM19.8368 100.56C19.3267 102.585 18.9124 104.637 18.5941 106.716C18.5793 107.275 18.572 107.837 18.5723 108.403C22.6395 122.673 29.0398 133.934 35.2446 140.17C42.0161 146.999 50.0313 150.517 59.083 150.517H59.2212C76.5645 150.448 134.606 148.654 154.367 128.512C158.859 123.959 161.07 118.648 161.001 112.784C160.793 98.091 156.44 73.8785 147.181 52.7012C142.919 42.9034 136.799 32.0233 128.544 24.3607C123.606 25.462 118.603 26.711 113.591 28.1169C127.769 46.6743 134.172 76.0448 133.984 91.7454C133.846 105.542 122.514 115.406 100.472 121.062C83.4741 125.339 63.9198 126.098 53.0716 126.098H51.8969C43.7435 126.029 36.4884 122.787 30.2006 116.372C26.0275 112.066 22.5703 106.575 19.8368 100.56ZM112.946 27.2881C117.763 25.8376 122.595 24.5219 127.403 23.334C127.252 23.2025 127.1 23.072 126.948 22.9427C122.12 23.8924 117.157 25.0031 112.137 26.2866C112.41 26.6165 112.679 26.9504 112.946 27.2881ZM111.6 25.6457C116.538 24.3734 121.427 23.2701 126.203 22.3241C125.396 21.6682 124.571 21.0437 123.726 20.4542C120.253 21.4014 116.827 22.4019 113.462 23.4533C112.47 23.7625 111.484 24.0758 110.504 24.3931C110.874 24.8034 111.239 25.221 111.6 25.6457ZM110.13 23.9827C111.188 23.6405 112.252 23.3031 113.324 22.9704C116.561 21.9617 119.854 20.9997 123.19 20.0868C123.084 20.0154 122.978 19.9445 122.871 19.8741C118.35 20.5676 113.605 21.4437 108.729 22.5196C108.81 22.6006 108.89 22.682 108.971 22.7639C109.362 23.1621 109.748 23.5685 110.13 23.9827ZM108.178 21.9742C112.949 20.9134 117.599 20.0416 122.043 19.3424C120.32 18.268 118.521 17.3398 116.646 16.5847C112.5 16.9111 108.171 17.4492 103.741 18.1947C105.249 19.3041 106.728 20.5644 108.178 21.9742ZM102.946 17.6265C107.116 16.9067 111.198 16.3689 115.126 16.017C113.574 15.4821 111.972 15.0655 110.317 14.7818C107.687 15.605 105.094 16.4602 102.538 17.3465C102.674 17.4387 102.811 17.532 102.946 17.6265ZM101.837 16.8851C100.494 16.0231 99.1287 15.2776 97.7424 14.6492C100.1 14.4499 102.399 14.3475 104.618 14.3475H105.654C106.73 14.3655 107.786 14.4386 108.823 14.5637C106.464 15.3117 104.135 16.0858 101.837 16.8851ZM101.837 17.591C101.928 17.6511 102.02 17.7117 102.111 17.7729C101.566 17.87 101.018 17.9702 100.47 18.0735C100.924 17.9117 101.38 17.7508 101.837 17.591ZM0.696317 133.617C0.514481 114.873 4.93843 97.6231 13.8501 82.0817C14.0604 86.5495 14.5633 91.2047 15.3263 95.8479C10.6096 107.04 8.41766 119.035 8.78063 131.754C9.67888 164.038 24.3274 198.045 38.0085 227.432L38.7686 229.018L38.8578 229.209C50.5195 254.147 64.9615 285.031 94.115 285.031H95.497C121.339 284.203 148.287 273.718 174.336 263.509C192.301 256.473 210.958 249.23 229.337 245.022C240.876 242.401 252.692 241.09 264.162 239.848C265.805 239.653 267.459 239.463 269.119 239.273C273.325 238.79 277.571 238.303 281.782 237.71C300.161 235.157 308.937 227.501 308.729 214.463C308.038 174.523 285.927 129.616 266.373 90.0204C265.417 88.075 264.468 86.1496 263.528 84.2418L263.527 84.2393C259.233 75.5276 255.12 67.1835 251.379 58.9788L249.306 54.426L249.279 54.3669C238.441 30.5902 228.208 8.13992 199.004 8.76024C178.957 9.16661 156.737 12.0791 135.544 16.9744C132.492 16.0307 129.197 15.5201 125.623 15.5201H125.485C122.742 15.5267 119.875 15.6435 116.912 15.869C115.266 15.2171 113.561 14.6961 111.796 14.3235L111.942 14.2788C140.479 5.58713 172.471 0.75843 201.975 0.689449H202.182C214.205 0.689449 227.748 2.0001 236.8 11.5885C244.852 20.1082 250.162 31.9128 255.325 43.3896L255.387 43.5269L255.709 44.241L255.71 44.2423C257.183 47.5035 258.599 50.6408 260.016 53.5982C273.974 82.3635 285.513 106.369 296.292 131.685L297.674 134.927C308.591 160.52 320.959 189.561 321.305 217.912C321.443 233.157 313.981 241.297 297.052 244.263C290.35 245.436 283.509 246.332 276.945 247.16C265.475 248.678 253.659 250.264 242.051 253.3C224.653 257.895 207.056 265.007 189.975 271.91L188.916 272.339C159.066 284.479 128.111 297.034 96.5334 297.379H95.9806C66.4763 297.31 53.5553 270.752 42.1543 247.229C41.5658 246.054 40.9999 244.902 40.443 243.767L40.4408 243.763L40.4403 243.762C39.6252 242.101 38.829 240.48 38.0085 238.882C36.6624 236.195 35.2851 233.507 33.9186 230.84L33.9181 230.839L33.9133 230.83C33.2474 229.53 32.584 228.236 31.928 226.949L31.874 226.844C16.6894 197.352 0.972376 166.826 0.696317 133.617ZM9.47159 131.754C9.11962 119.526 11.1522 107.96 15.542 97.1203C15.8329 98.7862 16.1571 100.448 16.5128 102.097C16.5944 102.862 16.6828 103.646 16.7785 104.447C14.8678 111.609 14.0169 119.088 14.2393 126.857C14.9302 150.931 23.0146 181.145 37.594 214.118C49.4786 240.952 65.0944 268.2 90.7293 268.2H92.1112C114.107 267.305 137.205 258.991 161.677 250.182L161.678 250.182L161.678 250.181L161.83 250.127C179.104 243.849 197.069 237.434 214.551 233.847C224.017 231.916 233.69 230.812 243.018 229.777C250.343 228.949 257.943 228.053 265.406 226.811C274.941 225.224 290.833 220.327 290.557 205.565C289.866 169.832 271.003 129.961 252.761 91.4694C247.924 81.3981 243.433 71.8097 239.287 62.4282L238.251 60.1518L238.231 60.1065C228.149 37.1497 217.711 13.3829 190.643 14.2791C179.881 14.6281 167.126 15.8148 153.471 18.0248C150.7 17.3325 147.824 17.0292 144.832 17.1073C142.46 17.1738 139.898 17.3123 137.177 17.5288C136.935 17.4392 136.692 17.3525 136.447 17.2686C157.341 12.4872 179.197 9.64423 198.935 9.24311C227.679 8.69126 237.836 30.9723 248.546 54.5639L250.619 59.1167C254.895 68.4184 259.524 77.8379 264.398 87.7554L265.613 90.2274L265.635 90.2729C285.115 129.788 307.21 174.607 307.9 214.394C308.107 227.087 299.47 234.468 281.574 236.951C275.701 237.779 269.759 238.469 264.024 239.089L262.851 239.223C251.745 240.491 240.274 241.8 229.061 244.332C210.813 248.494 192.362 255.693 174.511 262.658L173.922 262.888L173.166 263.182L173.166 263.182C147.353 273.231 120.745 283.59 95.2897 284.341C65.7854 285.169 51.1369 253.851 39.4596 228.742L38.6995 227.156C25.0183 197.838 10.3699 163.9 9.47159 131.754ZM15.8587 96.3494C15.9365 96.8138 16.017 97.2759 16.1001 97.736C16.0532 97.1696 16.0103 96.6178 15.9708 96.0814C15.9333 96.1707 15.8959 96.26 15.8587 96.3494ZM18.6618 112.03C18.6376 111.465 18.6181 110.917 18.6034 110.385C22.3387 123.259 27.936 133.703 34.8301 140.653C41.7397 147.689 49.8931 151.207 59.1521 151.207H59.3594C76.7718 151.138 135.02 149.344 154.989 128.995C159.619 124.304 161.899 118.854 161.83 112.784C161.622 98.022 157.269 73.6716 148.01 52.4253C143.74 42.6704 137.671 31.8678 129.505 24.1482C134.212 23.115 138.858 22.216 143.395 21.4432C153.944 28.3507 161.07 41.2287 167.15 54.7706C176.478 75.3271 188.847 106.024 189.33 134.375C189.745 154.794 164.317 160.174 147.458 163.692C146.814 163.806 146.191 163.94 145.578 164.072L145.577 164.072L145.577 164.072L145.576 164.072L145.576 164.072L145.576 164.072L145.575 164.073C145.07 164.181 144.571 164.289 144.072 164.382C120.372 169.487 93.4241 175.281 67.0291 175.902C57.4247 176.109 48.9258 172.729 41.7398 165.831C33.2409 157.691 26.6076 144.929 22.0472 127.891C20.5751 122.375 19.4785 117.003 18.6618 112.03ZM128.94 23.622L128.943 23.6252C133.571 22.6035 138.139 21.7112 142.604 20.9409C142.473 20.8599 142.341 20.7798 142.208 20.7006C137.832 21.5684 133.398 22.5404 128.94 23.622ZM127.958 22.746C128.093 22.8628 128.227 22.9806 128.36 23.0991C131.022 22.4505 133.674 21.8409 136.312 21.2692C133.586 21.7073 130.797 22.1987 127.958 22.746ZM140.718 19.8617C136.371 20.475 131.855 21.2253 127.227 22.1234C126.412 21.4443 125.577 20.7966 124.724 20.1839C126.24 19.7757 127.766 19.3777 129.298 18.99C131.998 18.6622 134.59 18.4036 137.051 18.2101C138.316 18.6843 139.538 19.2369 140.718 19.8617ZM125.313 19.5142C124.941 19.6131 124.569 19.7127 124.198 19.8129L124.111 19.7527L124.033 19.6992C124.462 19.6359 124.889 19.5742 125.313 19.5142ZM130.481 18.1864C128.142 18.4579 125.719 18.7813 123.227 19.1594C121.655 18.1348 120.019 17.2294 118.318 16.4639C120.807 16.3005 123.225 16.2155 125.554 16.21H125.692C128.717 16.21 131.539 16.5872 134.181 17.2921C132.944 17.5835 131.711 17.8816 130.481 18.1864ZM17.0034 106.251C17.1435 107.332 17.297 108.44 17.4651 109.572C17.1107 112.79 16.9794 116.069 17.0723 119.406C17.7632 143.55 24.742 172.591 36.212 199.218C50.3769 232.191 66.6837 248.264 85.9616 248.264H87.3436C107.313 247.436 128.732 240.607 151.327 233.364C166.943 228.328 183.112 223.155 198.727 220.188C202.459 219.499 207.434 218.947 213.238 218.326L213.473 218.3C235.862 215.886 269.549 212.254 268.93 192.044C267.963 158.888 250.506 120.358 235.105 86.3682L235.072 86.2953C234.198 84.345 233.333 82.4201 232.477 80.5164C229.882 74.7445 227.374 69.1679 224.984 63.6694C215.863 42.561 204.462 16.2101 178.344 17.1069C174.588 17.2328 170.553 17.4759 166.298 17.8458C165.137 17.7651 163.948 17.7472 162.728 17.7965C160.88 17.8718 158.955 17.9794 156.962 18.1208C169.323 16.247 180.854 15.2203 190.712 14.8999H192.163C217.66 14.8999 227.886 38.0087 237.698 60.4277L238.734 62.7041C242.122 70.4251 245.785 78.1922 249.613 86.3062L249.613 86.3066L249.613 86.3067L249.623 86.3276L249.633 86.3488L249.637 86.3566L249.67 86.4271C250.509 88.2051 251.355 89.9997 252.208 91.8143L252.215 91.8285C270.385 130.247 289.175 169.975 289.935 205.565C290.281 219.775 274.734 224.535 265.406 226.121C258.012 227.363 250.412 228.26 243.087 229.087C233.69 230.122 224.017 231.226 214.551 233.157C197 236.744 179.035 243.16 161.692 249.437C137.231 258.267 114.153 266.544 92.1803 267.441H90.7293C65.4399 267.441 50.0314 240.4 38.2158 213.774C23.6364 180.869 15.6212 150.724 14.9302 126.719C14.7258 119.652 15.4192 112.822 17.0034 106.251ZM20.3266 124.342C20.6274 125.585 20.9472 126.837 21.2871 128.098C25.9166 145.274 32.619 158.174 41.187 166.383C48.3039 173.212 56.6646 176.661 66.0618 176.661C66.4073 176.661 66.6837 176.661 66.96 176.592C93.0382 175.98 119.586 170.278 143.099 165.227L144.141 165.003C145.247 164.796 146.352 164.589 147.527 164.313L147.667 164.284C164.666 160.697 190.297 155.288 189.952 134.306C189.745 120.648 187.188 97.5391 167.772 54.4257C161.738 41.0544 154.706 28.3473 144.375 21.2778C148.396 20.6067 152.328 20.0349 156.138 19.5569C171.142 24.9021 180.503 41.6776 188.363 59.5309C200.178 86.5717 216.278 123.546 217.176 155.346C217.729 175.42 189.261 180.318 170.398 183.491C169.451 183.66 168.53 183.821 167.641 183.977L167.637 183.978L167.635 183.978C165.994 184.265 164.461 184.533 163.074 184.801C154.298 186.526 145.247 188.595 136.471 190.665L135.78 190.825L135.78 190.825C115.197 195.604 93.9651 200.534 74.4225 201.012C65.0253 201.288 56.3882 197.632 48.7185 190.32C33.1743 175.44 24.2837 147.764 20.3266 124.342ZM143.611 20.7689C147.413 20.1262 151.137 19.5721 154.755 19.1018C154.658 19.0724 154.56 19.0435 154.462 19.015C152.13 19.2132 149.696 19.4591 147.176 19.7549C145.856 19.9957 144.53 20.246 143.198 20.5059C143.336 20.5926 143.474 20.6802 143.611 20.7689ZM141.853 19.7042C144.025 19.4076 146.153 19.1455 148.229 18.9164C149.359 18.7149 150.484 18.5203 151.603 18.3326C149.729 17.981 147.774 17.7971 145.73 17.7971H144.832C142.88 17.8453 140.797 17.9437 138.6 18.0955C139.719 18.5723 140.802 19.1101 141.853 19.7042ZM135.487 17.6714C135.375 17.6363 135.263 17.6018 135.151 17.5679C134.834 17.6417 134.518 17.7161 134.201 17.7908C134.633 17.7492 135.062 17.7094 135.487 17.6714ZM17.9402 102.746C17.9554 103.09 17.9721 103.437 17.9903 103.788C18.034 103.208 18.0857 102.632 18.1453 102.06C18.0758 102.289 18.0075 102.517 17.9402 102.746ZM28.1277 163.554C23.8657 149.726 21.2581 136.41 19.8652 125.528C23.9513 148.855 32.858 176.102 48.2348 190.872C55.7664 198.115 64.3344 201.771 73.5933 201.771H74.4916C94.1727 201.293 115.408 196.362 135.992 191.583L136.679 191.424C138.218 191.073 139.765 190.718 141.319 190.361C148.621 188.686 156.045 186.982 163.281 185.56C164.518 185.321 165.871 185.082 167.3 184.829L167.302 184.829C168.345 184.645 169.428 184.453 170.536 184.249L170.538 184.249C189.609 181.007 218.42 176.109 217.867 155.415C217.044 123.7 201.026 86.9503 189.233 59.8928L189.233 59.8926L188.985 59.324C184.839 49.8735 179.657 39.1124 172.678 30.9036C168.001 25.4036 163.006 21.5831 157.601 19.3772C160.374 19.0439 163.08 18.7608 165.704 18.5256C186.992 19.5848 198.398 41.8356 207.434 62.7724C209.161 66.7043 210.888 70.6363 212.616 74.6372L212.696 74.8203C226.772 106.99 242.675 143.334 243.709 175.005C244.331 194.596 212.892 198.873 192.094 201.701L191.768 201.745L191.766 201.745C187.755 202.279 184.209 202.75 181.384 203.288C168.532 205.702 155.197 209.358 142.275 212.945C121.685 218.671 100.403 224.465 81.3322 225.155C72.2114 225.5 63.5743 221.844 55.6282 214.394C41.8089 201.425 33.0336 179.558 28.1277 163.554ZM157.081 18.8092C156.838 18.8387 156.596 18.8686 156.352 18.8988L156.27 18.8693C156.542 18.8486 156.812 18.8286 157.081 18.8092ZM17.9467 112.718C17.8079 114.898 17.7697 117.104 17.8323 119.337C18.5233 143.343 25.5021 172.384 36.903 198.942C50.9987 231.639 67.0983 247.574 86.0308 247.574H87.4127C107.288 246.747 128.541 239.934 151.104 232.701L151.189 232.674C166.805 227.638 182.973 222.465 198.658 219.499C202.39 218.809 207.434 218.257 213.238 217.636C235.418 215.291 268.93 211.704 268.308 192.044C267.346 159.199 250.067 120.968 234.794 87.1781L234.52 86.5712C230.926 78.7073 227.61 71.2573 224.431 63.9453L224.334 63.7214C215.369 43.1351 204.304 17.7277 179.657 17.7277H178.413C175.562 17.8233 172.553 17.9863 169.41 18.221C190.574 21.8817 201.398 46.9474 208.056 62.4965C209.714 66.3594 211.441 70.3604 213.238 74.3613L213.346 74.6083C227.415 106.762 243.367 143.217 244.4 175.005C245.021 195.193 213.312 199.552 192.237 202.45L192.163 202.46L191.836 202.503C187.824 203.037 184.279 203.509 181.453 204.046C168.601 206.461 155.266 210.117 142.414 213.704C121.823 219.36 100.472 225.224 81.3322 225.914H80.2266C71.3132 225.914 62.8834 222.258 55.1445 214.946C41.2561 201.839 32.4117 179.903 27.4368 163.761C21.2928 143.827 18.587 124.839 17.9467 112.718Z"
    fill="url(#paint0_linear_0_3857)" />
  <path
    d="M296.194 79.9672L287.492 84.6016L288.988 94.2664L297.646 89.7191L296.194 79.9672ZM298.424 94.9654L289.859 99.8987L293.641 124.426L303.531 129.41L298.415 94.961L298.424 94.9654ZM284.625 102.924L268.918 111.967L286.701 120.929L284.625 102.924ZM282.808 87.1066L252.075 103.489L261.964 108.473L283.93 96.9215L282.795 87.1108L282.808 87.1066Z"
    fill="white" />
  <g filter="url(#filter0_f_0_3857)">
    <path
      d="M84.7134 90.5117L83.9932 96.5847L89.4454 99.2442L90.1944 93.2244L84.7134 90.5117ZM93.1418 94.6857L92.6224 100.795L106.454 107.551L112.494 104.278L93.1364 94.6886L93.1418 94.6857ZM92.3105 104.532L91.3555 115.733L102.216 109.848L92.3105 104.532ZM83.6109 99.8571L81.0751 121.31L87.1146 118.038L89.0069 102.761L83.6084 99.8653L83.6109 99.8571Z"
      fill="white" />
  </g>
  <defs>
    <filter id="filter0_f_0_3857" x="73.0751" y="82.5117" width="47.4186" height="46.7986" filterUnits="userSpaceOnUse"
      color-interpolation-filters="sRGB">
      <feFlood flood-opacity="0" result="BackgroundImageFix" />
      <feBlend mode="normal" in="SourceGraphic" in2="BackgroundImageFix" result="shape" />
      <feGaussianBlur stdDeviation="4" result="effect1_foregroundBlur_0_3857" />
    </filter>
    <linearGradient id="paint0_linear_0_3857" x1="169" y1="149" x2="32" y2="-0.000361727"
      gradientUnits="userSpaceOnUse">
      <stop stop-color="white" />
      <stop offset="1" stop-color="#151F24" />
    </linearGradient>
  </defs>
</svg>