<svg width="170" height="34" viewBox="0 0 170 34" fill="none" xmlns="http://www.w3.org/2000/svg">
<path d="M57.5569 25.6377C60.5964 25.6377 62.8928 25.0228 62.8928 22.0215C62.8928 19.8531 61.4467 18.9276 59.2909 18.6234L54.3432 17.9226C50.661 17.4137 48.8132 15.5228 48.8132 12.2438C48.8132 7.81446 52.6829 5.98987 57.1686 5.98987C60.0206 5.98987 62.163 6.61127 63.6092 7.84757C65.0553 9.08378 65.8519 10.7168 66.006 12.7529H62.7923C62.404 9.75814 60.2415 8.53509 57.1351 8.53509C55.4613 8.53509 54.2161 8.85906 53.3926 9.5003C52.5691 10.1481 52.154 11.0275 52.154 12.1513C52.154 13.9098 53.2587 14.8618 55.0127 15.1328L60.2483 15.8931C64.6937 16.5212 66.2269 18.6763 66.2269 21.605C66.2269 25.9814 63.3347 28.1763 57.5502 28.1763C54.2964 28.1763 51.913 27.4623 50.4133 26.0343C48.9136 24.6064 48.1638 22.795 48.1638 20.5935H51.3774C51.4845 23.9585 53.5399 25.6377 57.5502 25.6377H57.5569Z" fill="white"/>
<path d="M105.366 13.9229C101.617 13.9229 100.8 17.2746 100.8 20.9702V27.6671H97.6532V18.0547C97.6532 15.5359 96.7962 13.9295 94.2454 13.9295C90.5163 13.9295 89.6795 17.3011 89.6795 20.9768V27.6737H86.4658V11.8074H89.6795V15.2649C90.7507 12.6205 92.6387 11.2983 95.3367 11.2983C98.0348 11.2983 99.9429 12.5412 100.572 15.3905C101.643 12.6602 103.605 11.2983 106.45 11.2983C110.133 11.2983 111.981 13.4535 111.981 17.7705V27.6737H108.767V18.0613C108.767 15.5293 107.897 13.9361 105.359 13.9361L105.366 13.9229Z" fill="white"/>
<path d="M133.873 13.9229C130.124 13.9229 129.307 17.2746 129.307 20.9702V27.6671H126.154V18.0547C126.154 15.5359 125.297 13.9295 122.746 13.9295C119.023 13.9295 118.18 17.2945 118.18 20.9768V27.6737H114.966V11.8074H118.18V15.2649C119.251 12.6205 121.139 11.2983 123.837 11.2983C126.535 11.2983 128.443 12.5544 129.073 15.3905C130.144 12.6602 132.105 11.2983 134.951 11.2983C138.633 11.2983 140.481 13.4535 140.481 17.7705V27.6737H137.267V18.0613C137.267 15.5425 136.41 13.9361 133.859 13.9361L133.873 13.9229Z" fill="white"/>
<path d="M148.576 19.7011C148.576 14.8089 151.508 11.2919 156.864 11.2919C162.22 11.2919 165.153 14.7494 165.153 19.7011C165.153 24.6527 162.254 28.1763 156.864 28.1763C151.475 28.1763 148.576 24.613 148.576 19.7011ZM156.864 25.6377C160.68 25.6377 161.912 23.5354 161.912 19.7341C161.912 15.9328 160.687 13.8305 156.864 13.8305C153.041 13.8305 151.816 15.9262 151.816 19.7341C151.816 23.542 153.041 25.6377 156.864 25.6377Z" fill="white"/>
<path d="M143.233 6.56451H146.607V9.42053H143.233V6.56451ZM143.313 11.8005H146.526V27.6668H143.313V11.8005Z" fill="white"/>
<path d="M81.94 11.8004L81.9266 11.8335L76.6644 25.4124L76.1019 27.0057L75.5864 25.4124L70.4513 11.7938H67.144L73.2164 27.6601H75.8006L74.3278 31.4615H69.5743V34H72.3393C73.6047 34 74.5889 33.8347 75.2918 33.4976C76.0015 33.1538 76.5572 32.658 76.9656 32.0035C77.374 31.349 77.836 30.364 78.3448 29.0551L85.0666 11.7938H81.9467L81.94 11.8004Z" fill="white"/>
<path d="M166.191 6.56458V7.08024H165.186V9.4205H164.557V7.08024H163.553V6.56458H166.191ZM166.559 6.56458H167.456L168.259 8.56102H168.306L169.103 6.56458H170V9.4205H169.391V7.46365H169.344L168.554 9.4205H168.018L167.228 7.46365H167.181V9.4205H166.572V6.56458H166.559Z" fill="white"/>
<path d="M19.5092 0L15.6596 5.45402L19.5092 10.842L23.3588 5.45402L19.5092 0ZM25.4276 8.38933L21.7521 13.9822L31.5134 27.6603H39.0118L25.4209 8.38933H25.4276ZM19.5092 17.4066L12.7674 27.6603H26.2511L19.5092 17.4066ZM13.5908 8.39591L0 27.6669H7.4984L17.2597 13.9888L13.5842 8.4025L13.5908 8.39591Z" fill="white"/>
</svg>
